SplineFontDB: 3.0
FontName: Oswald
FullName: empty
FamilyName: Oswald
Weight: empty
Copyright: 2010-13 (c) Vernon Adams
Version: 4
ItalicAngle: 0
UnderlinePosition: -91
UnderlineWidth: 28
Ascent: 1658
Descent: 390
UFOAscent: 1658
UFODescent: -390
LayerCount: 2
Layer: 0 0 "Back"  1
Layer: 1 0 "Fore"  0
FSType: 0
OS2Version: 0
OS2_WeightWidthSlopeOnly: 0
OS2_UseTypoMetrics: 0
CreationTime: 1372440345
ModificationTime: 1372440557
PfmFamily: 0
TTFWeight: 250
TTFWidth: 5
LineGap: 0
VLineGap: 0
OS2TypoAscent: 1658
OS2TypoAOffset: 1
OS2TypoDescent: -390
OS2TypoDOffset: 1
OS2TypoLinegap: 0
OS2WinAscent: 1658
OS2WinAOffset: 0
OS2WinDescent: 390
OS2WinDOffset: 0
HheadAscent: 1658
HheadAOffset: 1
HheadDescent: -390
HheadDOffset: 1
OS2Vendor: 'newt'
OS2CodePages: 00000001.00000000
OS2UnicodeRanges: 00000001.00000000.00000000.00000000
Lookup: 258 0 0 "'kern' Horizontal Kerning in Cyrillic lookup 0"  {"'kern' Horizontal Kerning in Cyrillic lookup 0 subtable"  } ['kern' ('cyrl' <'dflt' > ) ]
Lookup: 258 0 0 "'kern' Horizontal Kerning in Latin lookup 0"  {"'kern' Horizontal Kerning in Latin lookup 0 subtable"  } ['kern' ('latn' <'dflt' > ) ]
DEI: 91125
LangName: 1033 "2010-13 (c) Vernon Adams" "Oswald" "2" "3" "4" "5" "6" "7" "Vernon Adams" "Vernon Adams" "10" "code.newtypography.co.uk" "code.newtypography.co.uk" "Copyright (c) 2013, vernon adams (vernnobile@gmail.com),with Reserved Font Name Oswald. This Font Software is licensed under the SIL Open Font License, Version 1.1." "http://scripts.sil.org/OFL" 
Encoding: Latin1
Compacted: 1
UnicodeInterp: none
NameList: AGL For New Fonts
DisplaySize: -48
AntiAlias: 1
FitToEm: 1
WinInfo: 0 27 12
BeginPrivate: 10
BlueScale 8 0.039625
BlueShift 1 7
BlueValues 27 [-24 0 1184 1204 1658 1678]
OtherBlues 11 [-390 -324]
BlueFuzz 1 1
StdHW 4 [50]
StdVW 4 [54]
StemSnapH 7 [50 56]
StemSnapV 31 [24 42 50 54 61 77 100 246 662]
ForceBold 5 false
EndPrivate
BeginChars: 622 555

StartChar: A
Encoding: 65 65 0
Width: 939
VWidth: 0
Flags: HW
LayerCount: 2
UndoRedoHistory
Layer: 1
Undoes
EndUndoes
Redoes
EndRedoes
EndUndoRedoHistory
Fore
SplineSet
262 524 m 1
 597 1600 l 1
 709 524 l 1
 262 524 l 1
37 0 m 1
 103 0 l 1
 246 474 l 1
 714 474 l 1
 754 0 l 1
 822 0 l 1
 647 1658 l 1
 557 1658 l 1
 37 0 l 1
EndSplineSet
EndChar

StartChar: AE
Encoding: 198 198 1
Width: 1284
VWidth: 0
Flags: HW
LayerCount: 2
UndoRedoHistory
Layer: 1
Undoes
EndUndoes
Redoes
EndRedoes
EndUndoRedoHistory
Fore
SplineSet
298 532 m 1
 789 1591 l 1
 678 532 l 1
 298 532 l 1
-41 0 m 1
 53 0 l 1
 272 474 l 1
 674 474 l 1
 624 0 l 1
 1172 0 l 1
 1179 68 l 1
 705 68 l 1
 786 840 l 1
 1125 840 l 1
 1131 899 l 1
 792 899 l 1
 865 1590 l 1
 1339 1590 l 1
 1346 1658 l 1
 754 1658 l 1
 -41 0 l 1
EndSplineSet
EndChar

StartChar: B
Encoding: 66 66 11
Width: 970
VWidth: 0
Flags: HW
HStem: 0 56<495 640.38> 864 53<617 724.145> 1602 56<621 761.632>
LayerCount: 2
UndoRedoHistory
Layer: 1
Undoes
EndUndoes
Redoes
EndRedoes
EndUndoRedoHistory
Fore
SplineSet
282 917 m 1
 354 1602 l 1
 621 1602 l 2
 889 1602 894 1413 876 1246 c 0
 859 1085 799 917 619 917 c 2
 282 917 l 1
192 56 m 1
 277 864 l 1
 617 864 l 2
 814 864 849 678 829 485 c 0
 798 195 727 56 503 56 c 2
 192 56 l 1
122 0 m 1
 495 0 l 2
 823 0 868 251 893 486 c 0
 905 599 911 834 726 894 c 1
 891 942 929 1141 940 1246 c 0
 962 1453 930 1658 623 1658 c 2
 296 1658 l 1
 122 0 l 1
EndSplineSet
EndChar

StartChar: C
Encoding: 67 67 12
Width: 979
VWidth: 0
Flags: HW
HStem: -24 56<328.839 620.759> 1623 55<488.768 784.845>
LayerCount: 2
UndoRedoHistory
Layer: 1
Undoes
EndUndoes
Redoes
EndRedoes
EndUndoRedoHistory
Fore
SplineSet
471 -24 m 0
 758 -24 855 178 884 453 c 1
 890 517 l 1
 830 517 l 1
 821 427 l 1
 796 188 711 32 477 32 c 0
 217 32 171 203 197 446 c 2
 277 1211 l 2
 303 1455 385 1623 645 1623 c 0
 871 1623 931 1479 905 1223 c 1
 897 1150 l 1
 957 1150 l 1
 964 1215 l 2
 993 1490 929 1678 650 1678 c 0
 344 1678 241 1472 213 1206 c 2
 134 456 l 2
 106 191 153 -24 471 -24 c 0
EndSplineSet
EndChar

StartChar: D
Encoding: 68 68 18
Width: 1051
VWidth: 0
Flags: HW
HStem: 0 56<494 647.127> 1602 56<656 801.822>
LayerCount: 2
UndoRedoHistory
Layer: 1
Undoes
EndUndoes
Redoes
EndRedoes
EndUndoRedoHistory
Fore
SplineSet
122 0 m 1
 494 0 l 2
 803 0 908 215 935 474 c 2
 1010 1194 l 2
 1035 1431 975 1658 662 1658 c 2
 296 1658 l 1
 122 0 l 1
192 56 m 1
 354 1602 l 1
 656 1602 l 2
 918 1602 971 1431 946 1192 c 2
 871 473 l 2
 849 264 773 56 499 56 c 2
 192 56 l 1
EndSplineSet
EndChar

StartChar: Dcroat
Encoding: 264 272 20
Width: 1051
VWidth: 0
Flags: HW
HStem: 0 56<494 647.127> 1602 56<656 801.822>
LayerCount: 2
UndoRedoHistory
Layer: 1
Undoes
EndUndoes
Redoes
EndRedoes
EndUndoRedoHistory
Fore
SplineSet
122 0 m 1
 494 0 l 2
 803 0 908 215 935 474 c 2
 1010 1194 l 2
 1035 1431 975 1658 662 1658 c 2
 296 1658 l 1
 217 905 l 1
 69 905 l 1
 64 853 l 1
 212 853 l 1
 122 0 l 1
192 56 m 1
 276 853 l 1
 495 853 l 1
 500 905 l 1
 281 905 l 1
 354 1602 l 1
 656 1602 l 2
 918 1602 971 1431 946 1192 c 2
 871 473 l 2
 849 264 773 56 499 56 c 2
 192 56 l 1
EndSplineSet
EndChar

StartChar: E
Encoding: 69 69 21
Width: 792
VWidth: 0
Flags: HW
LayerCount: 2
UndoRedoHistory
Layer: 1
Undoes
EndUndoes
Redoes
EndRedoes
EndUndoRedoHistory
Fore
SplineSet
121 0 m 1
 672 0 l 1
 678 56 l 1
 191 56 l 1
 273 834 l 1
 670 834 l 1
 675 889 l 1
 278 889 l 1
 353 1602 l 1
 835 1602 l 1
 841 1658 l 1
 295 1658 l 1
 121 0 l 1
EndSplineSet
EndChar

StartChar: Eng
Encoding: 269 330 30
Width: 1106
VWidth: 0
Flags: HW
HStem: -252 45<539 692.416>
LayerCount: 2
UndoRedoHistory
Layer: 1
Undoes
EndUndoes
Redoes
EndRedoes
EndUndoRedoHistory
Fore
SplineSet
535 -252 m 1
 590 -252 l 2
 773 -252 826 -165 843 0 c 2
 1017 1658 l 1
 957 1658 l 1
 797 137 l 1
 358 1658 l 1
 296 1658 l 1
 122 0 l 1
 182 0 l 1
 341 1512 l 1
 780 0 l 1
 775 -48 l 2
 762 -167 712 -210 539 -207 c 1
 535 -252 l 1
EndSplineSet
EndChar

StartChar: Eth
Encoding: 208 208 32
Width: 1185
VWidth: 0
Flags: HW
HStem: 0 56<494 647.127> 1602 56<656 801.822>
LayerCount: 2
UndoRedoHistory
Layer: 1
Undoes
EndUndoes
Redoes
EndRedoes
EndUndoRedoHistory
Fore
SplineSet
122 0 m 1
 494 0 l 2
 803 0 908 215 935 474 c 2
 1010 1194 l 2
 1035 1431 975 1658 662 1658 c 2
 296 1658 l 1
 217 905 l 1
 69 905 l 1
 64 853 l 1
 212 853 l 1
 122 0 l 1
192 56 m 1
 276 853 l 1
 495 853 l 1
 500 905 l 1
 281 905 l 1
 354 1602 l 1
 656 1602 l 2
 918 1602 971 1431 946 1192 c 2
 871 473 l 2
 849 264 773 56 499 56 c 2
 192 56 l 1
EndSplineSet
EndChar

StartChar: Euro
Encoding: 271 8364 33
Width: 971
VWidth: 0
Flags: HW
HStem: -24 56<329 621> 1623 55<489 785>
LayerCount: 2
UndoRedoHistory
Layer: 1
Undoes
EndUndoes
Redoes
EndRedoes
EndUndoRedoHistory
Fore
SplineSet
471 -24 m 0
 758 -24 855 178 884 453 c 1
 890 517 l 1
 830 517 l 1
 821 427 l 1
 796 188 711 32 477 32 c 0
 217 32 171 203 197 446 c 1
 217 641 l 1
 546 641 l 1
 551 685 l 1
 222 685 l 1
 258 1029 l 1
 587 1029 l 1
 592 1073 l 1
 263 1073 l 1
 277 1211 l 1
 303 1455 385 1623 645 1623 c 0
 871 1623 931 1479 905 1223 c 1
 897 1150 l 1
 957 1150 l 1
 964 1215 l 2
 993 1490 929 1678 650 1678 c 0
 344 1678 241 1472 213 1206 c 2
 199 1073 l 1
 54 1073 l 1
 49 1029 l 1
 194 1029 l 1
 158 685 l 1
 13 685 l 1
 8 641 l 1
 153 641 l 1
 134 456 l 2
 106 191 153 -24 471 -24 c 0
EndSplineSet
EndChar

StartChar: F
Encoding: 70 70 34
Width: 778
VWidth: 0
Flags: HW
LayerCount: 2
UndoRedoHistory
Layer: 1
Undoes
EndUndoes
Redoes
EndRedoes
EndUndoRedoHistory
Fore
SplineSet
122 0 m 1
 186 0 l 1
 274 834 l 1
 703 834 l 1
 708 889 l 1
 279 889 l 1
 354 1602 l 1
 834 1602 l 1
 840 1658 l 1
 296 1658 l 1
 122 0 l 1
EndSplineSet
EndChar

StartChar: G
Encoding: 71 71 35
Width: 1024
VWidth: 0
Flags: HW
HStem: -24 56<328.839 619.408> 1623 55<488.822 784.799>
VStem: 794 42<0 135.842>
LayerCount: 2
UndoRedoHistory
Layer: 1
Undoes
EndUndoes
Redoes
EndRedoes
EndUndoRedoHistory
Fore
SplineSet
471 -24 m 0
 649 -24 745 52 798 184 c 1
 794 0 l 1
 836 0 l 1
 918 777 l 1
 570 777 l 1
 564 723 l 1
 849 723 l 1
 818 427 l 2
 793 188 711 32 477 32 c 0
 217 32 171 203 197 446 c 2
 277 1211 l 2
 303 1455 385 1623 645 1623 c 0
 871 1623 931 1479 905 1223 c 1
 897 1154 l 1
 957 1154 l 1
 963 1210 l 2
 992 1485 929 1678 650 1678 c 0
 344 1678 242 1483 214 1220 c 2
 134 455 l 2
 106 190 153 -24 471 -24 c 0
EndSplineSet
EndChar

StartChar: H
Encoding: 72 72 40
Width: 1093
VWidth: 0
Flags: W
LayerCount: 2
UndoRedoHistory
Layer: 1
Undoes
EndUndoes
Redoes
EndRedoes
EndUndoRedoHistory
Fore
SplineSet
121 0 m 5
 185 0 l 5
 274 846 l 5
 917 846 l 5
 828 0 l 5
 892 0 l 5
 1066 1658 l 5
 1002 1658 l 5
 922 898 l 5
 279 898 l 5
 359 1658 l 5
 295 1658 l 5
 121 0 l 5
EndSplineSet
EndChar

StartChar: Hbar
Encoding: 276 294 41
Width: 1093
VWidth: 0
Flags: HW
LayerCount: 2
UndoRedoHistory
Layer: 1
Undoes
EndUndoes
Redoes
EndRedoes
EndUndoRedoHistory
Fore
SplineSet
279 898 m 1
 325 1329 l 1
 968 1329 l 1
 922 898 l 1
 279 898 l 1
121 0 m 1
 185 0 l 1
 274 846 l 1
 917 846 l 1
 828 0 l 1
 892 0 l 1
 1032 1329 l 1
 1101 1329 l 1
 1105 1373 l 1
 1036 1373 l 1
 1066 1658 l 1
 1002 1658 l 1
 972 1373 l 1
 329 1373 l 1
 359 1658 l 1
 295 1658 l 1
 265 1373 l 1
 197 1373 l 1
 193 1329 l 1
 261 1329 l 1
 121 0 l 1
EndSplineSet
EndChar

StartChar: I
Encoding: 73 73 43
Width: 388
VWidth: 0
Flags: HW
LayerCount: 2
UndoRedoHistory
Layer: 1
Undoes
EndUndoes
Redoes
EndRedoes
EndUndoRedoHistory
Fore
SplineSet
122 0 m 1
 186 0 l 1
 360 1658 l 1
 296 1658 l 1
 122 0 l 1
EndSplineSet
EndChar

StartChar: J
Encoding: 74 74 54
Width: 513
VWidth: 0
Flags: HW
HStem: -114 56<-29 163.279>
LayerCount: 2
UndoRedoHistory
Layer: 1
Undoes
EndUndoes
Redoes
EndRedoes
EndUndoRedoHistory
Fore
SplineSet
-35 -114 m 1
 2 -114 l 2
 278 -114 311 4 339 262 c 1
 485 1658 l 1
 421 1658 l 1
 276 279 l 2
 246 -9 232 -57 -29 -58 c 1
 -35 -114 l 1
EndSplineSet
EndChar

StartChar: K
Encoding: 75 75 56
Width: 913
VWidth: 0
Flags: HW
LayerCount: 2
UndoRedoHistory
Layer: 1
Undoes
EndUndoes
Redoes
EndRedoes
EndUndoRedoHistory
Fore
SplineSet
121 0 m 1
 185 0 l 1
 245 570 l 1
 471 916 l 1
 807 0 l 1
 873 0 l 1
 517 969 l 1
 949 1658 l 1
 882 1658 l 1
 255 668 l 1
 359 1658 l 1
 295 1658 l 1
 121 0 l 1
EndSplineSet
EndChar

StartChar: L
Encoding: 76 76 58
Width: 744
VWidth: 0
Flags: HW
LayerCount: 2
UndoRedoHistory
Layer: 1
Undoes
EndUndoes
Redoes
EndRedoes
EndUndoRedoHistory
Fore
SplineSet
122 0 m 1
 718 0 l 1
 724 56 l 1
 192 56 l 1
 360 1658 l 1
 296 1658 l 1
 122 0 l 1
EndSplineSet
EndChar

StartChar: Lslash
Encoding: 290 321 63
Width: 744
VWidth: 0
Flags: HW
LayerCount: 2
UndoRedoHistory
Layer: 1
Undoes
EndUndoes
Redoes
EndRedoes
EndUndoRedoHistory
Fore
SplineSet
122 0 m 1
 718 0 l 1
 724 56 l 1
 192 56 l 1
 280 893 l 1
 557 1026 l 1
 563 1082 l 1
 286 949 l 1
 360 1658 l 1
 296 1658 l 1
 218 916 l 1
 62 841 l 1
 57 785 l 1
 212 860 l 1
 122 0 l 1
EndSplineSet
EndChar

StartChar: M
Encoding: 77 77 64
Width: 1271
VWidth: 0
Flags: HW
LayerCount: 2
UndoRedoHistory
Layer: 1
Undoes
EndUndoes
Redoes
EndRedoes
EndUndoRedoHistory
Fore
SplineSet
96 0 m 1
 156 0 l 1
 360 1462 l 1
 562 0 l 1
 624 0 l 1
 1139 1467 l 1
 1035 0 l 1
 1095 0 l 1
 1215 1658 l 1
 1144 1658 l 1
 603 101 l 1
 389 1658 l 1
 327 1658 l 1
 96 0 l 1
EndSplineSet
EndChar

StartChar: N
Encoding: 78 78 65
Width: 1045
VWidth: 0
Flags: HW
LayerCount: 2
UndoRedoHistory
Layer: 1
Undoes
EndUndoes
Redoes
EndRedoes
EndUndoRedoHistory
Fore
SplineSet
122 0 m 1
 182 0 l 1
 341 1512 l 1
 780 0 l 1
 843 0 l 1
 1017 1658 l 1
 957 1658 l 1
 797 137 l 1
 358 1658 l 1
 296 1658 l 1
 122 0 l 1
EndSplineSet
EndChar

StartChar: O
Encoding: 79 79 70
Width: 1036
VWidth: 0
Flags: HW
HStem: -24 56<332.221 633.828> 1623 55<492.35 800.316>
LayerCount: 2
UndoRedoHistory
Layer: 1
Undoes
EndUndoes
Redoes
EndRedoes
EndUndoRedoHistory
Fore
SplineSet
475 -24 m 0
 793 -24 889 183 917 448 c 2
 998 1215 l 2
 1025 1478 960 1678 654 1678 c 0
 348 1678 241 1478 214 1215 c 2
 134 452 l 2
 106 187 156 -24 475 -24 c 0
481 32 m 0
 221 32 171 196 196 438 c 2
 278 1219 l 2
 304 1461 389 1623 649 1623 c 0
 909 1623 959 1460 934 1219 c 2
 852 438 l 2
 827 197 740 32 481 32 c 0
EndSplineSet
EndChar

StartChar: OE
Encoding: 294 338 71
Width: 1218
VWidth: 0
Flags: HW
HStem: 0 62<335.781 495> 1598 60<490.469 662>
LayerCount: 2
UndoRedoHistory
Layer: 1
Undoes
EndUndoes
Redoes
EndRedoes
EndUndoRedoHistory
Fore
SplineSet
495 62 m 2
 236 62 173 225 196 443 c 2
 277 1217 l 2
 301 1442 396 1598 656 1598 c 2
 816 1598 l 1
 655 62 l 1
 495 62 l 2
488 0 m 2
 1114 0 l 1
 1121 62 l 1
 717 62 l 1
 799 844 l 1
 1139 844 l 1
 1144 899 l 1
 804 899 l 1
 878 1598 l 1
 1282 1598 l 1
 1288 1658 l 1
 662 1658 l 2
 357 1658 239 1460 213 1207 c 2
 134 453 l 2
 108 213 170 0 488 0 c 2
EndSplineSet
EndChar

StartChar: Oslash
Encoding: 216 216 79
Width: 1056
VWidth: 0
Flags: HW
HStem: -24 56<332.221 633.828> 1623 55<492.35 800.316>
LayerCount: 2
UndoRedoHistory
Layer: 1
Undoes
EndUndoes
Redoes
EndRedoes
EndUndoRedoHistory
Fore
SplineSet
177 -211 m 1
 999 1837 l 1
 960 1848 l 1
 138 -200 l 1
 177 -211 l 1
EndSplineSet
Refer: 70 79 N 1 0 0 1 0 0 2
EndChar

StartChar: P
Encoding: 80 80 81
Width: 999
VWidth: 0
Flags: HW
HStem: 800 55<590 740.133> 1604 54<672 820.818>
LayerCount: 2
UndoRedoHistory
Layer: 1
Undoes
EndUndoes
Redoes
EndRedoes
EndUndoRedoHistory
Fore
SplineSet
276 855 m 1
 355 1604 l 1
 672 1604 l 2
 877 1604 968 1523 939 1242 c 1
 909 964 792 855 592 855 c 2
 276 855 l 1
122 0 m 1
 186 0 l 1
 270 800 l 1
 590 800 l 2
 895 800 988 1040 1010 1242 c 0
 1034 1472 976 1658 677 1658 c 2
 296 1658 l 1
 122 0 l 1
EndSplineSet
EndChar

StartChar: Pi
Encoding: 298 928 82
Width: 1151
VWidth: 0
Flags: HW
LayerCount: 2
UndoRedoHistory
Layer: 1
Undoes
EndUndoes
Redoes
EndRedoes
EndUndoRedoHistory
Fore
SplineSet
121 0 m 1
 185 0 l 1
 354 1606 l 1
 1055 1606 l 1
 886 0 l 1
 950 0 l 1
 1124 1658 l 1
 295 1658 l 1
 121 0 l 1
EndSplineSet
EndChar

StartChar: Q
Encoding: 81 81 83
Width: 1058
VWidth: 0
Flags: HW
HStem: -41 20G<543 600.5> -24 56<341.133 561.628> 1623 55<501.119 811.473>
LayerCount: 2
UndoRedoHistory
Layer: 1
Undoes
EndUndoes
Redoes
EndRedoes
EndUndoRedoHistory
Fore
SplineSet
491 32 m 0x60
 231 32 171 196 196 438 c 2
 278 1219 l 2
 304 1461 399 1623 659 1623 c 0
 919 1623 979 1460 954 1219 c 2
 872 438 l 2
 847 197 750 32 491 32 c 0x60
801 -313 m 1
 808 -247 l 1
 757 -212 654 -82 607 -12 c 1
 832 35 913 220 937 448 c 2
 1018 1215 l 2
 1045 1478 970 1678 664 1678 c 0
 358 1678 241 1478 214 1215 c 2
 134 452 l 2
 106 187 166 -24 485 -24 c 0x60
 510 -24 532 -23 554 -21 c 1xa0
 647 -168 738 -281 801 -313 c 1
EndSplineSet
EndChar

StartChar: R
Encoding: 82 82 84
Width: 1032
VWidth: 0
Flags: HW
HStem: 860 52<697 774.416> 1602 56<712 838.985>
LayerCount: 2
UndoRedoHistory
Layer: 1
Undoes
EndUndoes
Redoes
EndRedoes
EndUndoRedoHistory
Fore
SplineSet
282 912 m 1
 354 1602 l 1
 712 1602 l 2
 919 1602 959 1478 937 1263 c 0
 916 1063 866 912 647 912 c 2
 282 912 l 1
122 0 m 1
 186 0 l 1
 276 860 l 1
 636 860 l 1
 822 0 l 1
 887 0 l 1
 697 867 l 1
 924 893 981 1079 1001 1263 c 0
 1021 1455 1005 1658 727 1658 c 2
 296 1658 l 1
 122 0 l 1
EndSplineSet
EndChar

StartChar: S
Encoding: 83 83 88
Width: 908
VWidth: 0
Flags: HW
HStem: -23 56<295.248 592.251> 1625 53<426.275 722.94>
VStem: 88 57<207.754 387> 856 54<1267 1474.2>
LayerCount: 2
UndoRedoHistory
Layer: 1
Undoes
EndUndoes
Redoes
EndRedoes
EndUndoRedoHistory
Fore
SplineSet
430 -23 m 0
 641 -23 802 81 828 331 c 0
 845 495 747 643 626 782 c 2
 351 1097 l 2
 265 1197 244 1280 252 1358 c 0
 272 1547 411 1625 579 1625 c 0
 787 1625 860 1519 856 1258 c 1
 910 1267 l 1
 927 1591 790 1678 579 1678 c 0
 372 1678 216 1567 193 1355 c 1
 185 1271 211 1165 300 1062 c 2
 580 738 l 1
 713 586 783 473 768 329 c 0
 745 114 620 33 437 33 c 0
 205 33 155 171 145 407 c 1
 88 387 l 1
 85 135 178 -23 430 -23 c 0
EndSplineSet
EndChar

StartChar: T
Encoding: 84 84 94
Width: 763
VWidth: 0
Flags: HW
LayerCount: 2
UndoRedoHistory
Layer: 1
Undoes
EndUndoes
Redoes
EndRedoes
EndUndoRedoHistory
Fore
SplineSet
312 0 m 1
 376 0 l 1
 544 1602 l 1
 909 1602 l 1
 915 1658 l 1
 116 1658 l 1
 110 1602 l 1
 480 1602 l 1
 312 0 l 1
EndSplineSet
EndChar

StartChar: Tbar
Encoding: 307 358 95
Width: 763
VWidth: 0
Flags: HW
LayerCount: 2
UndoRedoHistory
Layer: 1
Undoes
EndUndoes
Redoes
EndRedoes
EndUndoRedoHistory
Fore
SplineSet
140 876 m 1
 719 876 l 1
 724 927 l 1
 145 927 l 1
 140 876 l 1
EndSplineSet
Refer: 94 84 N 1 0 0 1 0 0 2
EndChar

StartChar: Thorn
Encoding: 222 222 98
Width: 1035
VWidth: 0
Flags: HW
HStem: 528 60<581 734.006> 1389 59<674 811.906>
LayerCount: 2
UndoRedoHistory
Layer: 1
Undoes
EndUndoes
Redoes
EndRedoes
EndUndoRedoHistory
Fore
SplineSet
248 588 m 1
 332 1389 l 1
 674 1389 l 2
 857 1389 979 1281 949 1000 c 0
 920 720 802 588 588 588 c 2
 248 588 l 1
122 0 m 1
 186 0 l 1
 241 528 l 1
 581 528 l 2
 920 528 1002 827 1021 1007 c 0
 1044 1225 978 1448 678 1448 c 2
 338 1448 l 1
 360 1658 l 1
 296 1658 l 1
 122 0 l 1
EndSplineSet
EndChar

StartChar: U
Encoding: 85 85 99
Width: 1084
VWidth: 0
Flags: HW
HStem: -24 56<329.79 676.828>
LayerCount: 2
UndoRedoHistory
Layer: 1
Undoes
EndUndoes
Redoes
EndRedoes
EndUndoRedoHistory
Fore
SplineSet
499 -24 m 0
 788 -24 916 132 936 320 c 2
 1076 1658 l 1
 1012 1658 l 1
 872 322 l 2
 854 154 745 32 505 32 c 0
 248 32 182 151 200 322 c 2
 340 1658 l 1
 276 1658 l 1
 136 320 l 2
 116 132 190 -24 499 -24 c 0
EndSplineSet
EndChar

StartChar: V
Encoding: 86 86 110
Width: 963
VWidth: 0
Flags: HW
LayerCount: 2
UndoRedoHistory
Layer: 1
Undoes
EndUndoes
Redoes
EndRedoes
EndUndoRedoHistory
Fore
SplineSet
423 0 m 1
 489 0 l 1
 1046 1658 l 1
 980 1658 l 1
 463 97 l 1
 251 1658 l 1
 185 1658 l 1
 423 0 l 1
EndSplineSet
EndChar

StartChar: W
Encoding: 87 87 111
Width: 1427
VWidth: 0
Flags: HW
LayerCount: 2
UndoRedoHistory
Layer: 1
Undoes
EndUndoes
Redoes
EndRedoes
EndUndoRedoHistory
Fore
SplineSet
324 0 m 1
 388 0 l 1
 845 1545 l 1
 986 0 l 1
 1049 0 l 1
 1494 1658 l 1
 1434 1658 l 1
 1031 120 l 1
 895 1608 l 1
 810 1608 l 1
 370 120 l 1
 261 1658 l 1
 201 1656 l 1
 324 0 l 1
EndSplineSet
EndChar

StartChar: X
Encoding: 88 88 116
Width: 901
VWidth: 0
Flags: HW
LayerCount: 2
UndoRedoHistory
Layer: 1
Undoes
EndUndoes
Redoes
EndRedoes
EndUndoRedoHistory
Fore
SplineSet
-8 0 m 1
 61 0 l 1
 479 795 l 1
 766 0 l 1
 829 0 l 1
 523 840 l 1
 1001 1659 l 1
 932 1659 l 1
 500 902 l 1
 224 1659 l 1
 167 1659 l 1
 456 859 l 1
 -8 0 l 1
EndSplineSet
EndChar

StartChar: Y
Encoding: 89 89 117
Width: 930
VWidth: 0
Flags: HW
LayerCount: 2
UndoRedoHistory
Layer: 1
Undoes
EndUndoes
Redoes
EndRedoes
EndUndoRedoHistory
Fore
SplineSet
400 0 m 1
 467 0 l 1
 520 508 l 1
 1016 1658 l 1
 944 1658 l 1
 497 583 l 1
 256 1658 l 1
 182 1658 l 1
 453 508 l 1
 400 0 l 1
EndSplineSet
EndChar

StartChar: Z
Encoding: 90 90 122
Width: 810
VWidth: 0
Flags: HW
LayerCount: 2
UndoRedoHistory
Layer: 1
Undoes
EndUndoes
Redoes
EndRedoes
EndUndoRedoHistory
Fore
SplineSet
18 0 m 1
 731 0 l 1
 737 56 l 1
 95 56 l 1
 896 1601 l 1
 902 1658 l 1
 255 1658 l 1
 249 1602 l 1
 827 1602 l 1
 24 57 l 1
 18 0 l 1
EndSplineSet
EndChar

StartChar: a
Encoding: 97 97 126
Width: 739
VWidth: 0
Flags: HW
HStem: -20 50<183.865 382.945> 1154 50<342.865 554.347>
VStem: 159 61<908 1026.56> 538 50<0 138.581>
LayerCount: 2
UndoRedoHistory
Layer: 1
Undoes
EndUndoes
Redoes
EndRedoes
EndUndoRedoHistory
Fore
SplineSet
277 30 m 0
 200 30 104 68 121 227 c 0
 141 423 212 452 591 635 c 1
 547 223 l 1
 483 113 394 30 277 30 c 0
271 -20 m 0
 383 -20 490 50 541 149 c 1
 538 0 l 1
 588 0 l 1
 606 174 l 1
 671 793 l 2
 703 1090 654 1204 469 1204 c 0
 293 1204 188 1126 162 913 c 1
 159 886 l 1
 220 886 l 1
 222 908 l 1
 246 1131 367 1154 463 1154 c 0
 592 1154 638 1083 606 777 c 2
 597 692 l 1
 108 469 77 397 59 232 c 1
 43 75 126 -20 271 -20 c 0
EndSplineSet
EndChar

StartChar: acute
Encoding: 180 180 130
Width: 362
VWidth: 0
Flags: HW
HStem: 1264 394
LayerCount: 2
UndoRedoHistory
Layer: 1
Undoes
EndUndoes
Redoes
EndRedoes
EndUndoRedoHistory
Fore
SplineSet
169 1264 m 1
 205 1264 l 1
 412 1658 l 1
 347 1658 l 1
 169 1264 l 1
EndSplineSet
EndChar

StartChar: acutecomb
Encoding: 327 769 131
Width: 362
VWidth: 0
Flags: HW
HStem: 1264 394
LayerCount: 2
UndoRedoHistory
Layer: 1
Undoes
EndUndoes
Redoes
EndRedoes
EndUndoRedoHistory
Fore
SplineSet
169 1264 m 1
 205 1264 l 1
 412 1658 l 1
 347 1658 l 1
 169 1264 l 1
EndSplineSet
EndChar

StartChar: ae
Encoding: 230 230 133
Width: 1183
VWidth: 0
Flags: HW
HStem: -20 50<187.306 382.521 706.108 935.423> 1154 50<345.275 556.608 817.337 1040.37>
VStem: 163 56<911.72 1016.35>
LayerCount: 2
UndoRedoHistory
Layer: 1
Undoes
EndUndoes
Redoes
EndRedoes
EndUndoRedoHistory
Fore
SplineSet
663 683 m 1
 672 775 l 1
 705 1088 789 1154 934 1154 c 0
 1078 1154 1118 1060 1109 970 c 0
 1100 884 1067 827 922 775 c 2
 663 683 l 1
280 30 m 0
 203 30 110 68 124 227 c 1
 134 352 141 432 411 537 c 2
 591 607 l 1
 574 448 l 1
 539 110 397 30 280 30 c 0
274 -20 m 0
 356 -20 512 14 575 218 c 1
 579 22 696 -20 807 -20 c 0
 1023 -20 1089 116 1109 304 c 2
 1119 395 l 1
 1056 395 l 1
 1046 301 l 2
 1017 28 892 30 812 30 c 0
 674 30 601 95 636 430 c 2
 657 629 l 1
 931 726 l 2
 1090 782 1157 865 1168 967 c 0
 1181 1097 1103 1204 940 1204 c 0
 836 1204 710 1163 663 991 c 1
 665 1133 590 1204 472 1204 c 0
 297 1204 185 1119 163 913 c 1
 219 908 l 1
 242 1121 365 1154 463 1154 c 0
 584 1154 641 1087 609 777 c 1
 596 659 l 1
 404 589 l 2
 84 473 74 347 62 232 c 0
 46 75 129 -20 274 -20 c 0
EndSplineSet
EndChar

StartChar: afii10018
Encoding: 329 1041 135
Width: 942
VWidth: 0
Flags: HW
HStem: 0 61<421 586.032> 895 61<519 661.148>
LayerCount: 2
UndoRedoHistory
Layer: 1
Undoes
EndUndoes
Redoes
EndRedoes
EndUndoRedoHistory
Fore
SplineSet
191 61 m 1
 279 895 l 1
 519 895 l 2
 767 895 834 721 807 466 c 0
 782 229 688 61 431 61 c 2
 191 61 l 1
121 0 m 1
 421 0 l 2
 728 0 851 215 877 463 c 0
 909 766 804 956 520 956 c 2
 285 956 l 1
 354 1606 l 1
 898 1606 l 1
 904 1658 l 1
 295 1658 l 1
 121 0 l 1
EndSplineSet
EndChar

StartChar: afii10019
Encoding: 330 1042 136
Width: 970
VWidth: 0
Flags: HW
HStem: 0 56<495 640.38> 864 53<617 724.145> 1602 56<621 761.632>
LayerCount: 2
UndoRedoHistory
Layer: 1
Undoes
EndUndoes
Redoes
EndRedoes
EndUndoRedoHistory
Fore
SplineSet
282 917 m 1
 354 1602 l 1
 621 1602 l 2
 889 1602 894 1413 876 1246 c 0
 859 1085 799 917 619 917 c 2
 282 917 l 1
192 56 m 1
 277 864 l 1
 617 864 l 2
 814 864 849 678 829 485 c 0
 798 195 727 56 503 56 c 2
 192 56 l 1
122 0 m 1
 495 0 l 2
 823 0 868 251 893 486 c 0
 905 599 911 834 726 894 c 1
 891 942 929 1141 940 1246 c 0
 962 1453 930 1658 623 1658 c 2
 296 1658 l 1
 122 0 l 1
EndSplineSet
EndChar

StartChar: afii10020
Encoding: 331 1043 137
Width: 741
VWidth: 0
Flags: HW
LayerCount: 2
UndoRedoHistory
Layer: 1
Undoes
EndUndoes
Redoes
EndRedoes
EndUndoRedoHistory
Fore
SplineSet
122 0 m 1
 186 0 l 1
 354 1602 l 1
 827 1602 l 1
 833 1658 l 1
 296 1658 l 1
 122 0 l 1
EndSplineSet
EndChar

StartChar: afii10021
Encoding: 332 1044 138
Width: 1104
VWidth: 0
Flags: HW
HStem: 0 55<39 82.1435>
LayerCount: 2
UndoRedoHistory
Layer: 1
Undoes
EndUndoes
Redoes
EndRedoes
EndUndoRedoHistory
Fore
SplineSet
124 55 m 1
 241 115 297 114 480 1057 c 2
 587 1606 l 1
 996 1606 l 1
 833 55 l 1
 124 55 l 1
-51 -264 m 1
 3 -264 l 1
 39 0 l 1
 934 0 l 1
 916 -264 l 1
 969 -264 l 1
 1003 55 l 1
 897 55 l 1
 1065 1658 l 1
 528 1658 l 1
 416 1064 l 2
 238 122 192 138 34 55 c 1
 -17 55 l 1
 -51 -264 l 1
EndSplineSet
EndChar

StartChar: afii10024
Encoding: 335 1046 141
Width: 1206
VWidth: 0
Flags: HW
LayerCount: 2
UndoRedoHistory
Layer: 1
Undoes
EndUndoes
Redoes
EndRedoes
EndUndoRedoHistory
Fore
SplineSet
18 0 m 1
 81 0 l 1
 596 849 l 1
 620 849 l 1
 531 0 l 1
 595 0 l 1
 684 849 l 1
 708 849 l 1
 1045 0 l 1
 1108 0 l 1
 757 873 l 1
 1243 1658 l 1
 1183 1658 l 1
 703 878 l 1
 687 878 l 1
 769 1658 l 1
 705 1658 l 1
 623 878 l 1
 607 878 l 1
 291 1658 l 1
 231 1658 l 1
 553 873 l 1
 18 0 l 1
EndSplineSet
EndChar

StartChar: afii10025
Encoding: 336 1047 142
Width: 925
VWidth: 0
Flags: HW
HStem: -24 51<321.499 588.485> 838 44<545 676.328> 1628 50<488.807 761.78>
LayerCount: 2
UndoRedoHistory
Layer: 1
Undoes
EndUndoes
Redoes
EndRedoes
EndUndoRedoHistory
Fore
SplineSet
442 -24 m 0
 711 -24 837 167 865 433 c 0
 897 744 752 840 666 857 c 1
 799 877 925 1006 953 1278 c 0
 976 1496 894 1678 647 1678 c 0
 369 1678 276 1526 253 1308 c 1
 252 1292 l 1
 308 1292 l 1
 310 1313 l 1
 336 1559 455 1628 643 1628 c 0
 847 1628 907 1481 886 1280 c 0
 857 1007 761 882 550 882 c 2
 429 882 l 1
 424 838 l 1
 545 838 l 2
 755 838 821 669 796 429 c 0
 760 89 599 27 448 27 c 0
 266 27 190 133 212 343 c 2
 215 373 l 1
 160 373 l 1
 158 352 l 1
 135 131 199 -24 442 -24 c 0
EndSplineSet
EndChar

StartChar: afii10026
Encoding: 337 1048 143
Width: 1043
VWidth: 0
Flags: HW
LayerCount: 2
UndoRedoHistory
Layer: 1
Undoes
EndUndoes
Redoes
EndRedoes
EndUndoRedoHistory
Fore
SplineSet
121 0 m 1
 184 0 l 1
 943 1512 l 1
 784 0 l 1
 842 0 l 1
 1016 1658 l 1
 954 1658 l 1
 193 137 l 1
 353 1658 l 1
 295 1658 l 1
 121 0 l 1
EndSplineSet
EndChar

StartChar: afii10028
Encoding: 339 1050 145
Width: 927
VWidth: 0
Flags: HW
LayerCount: 2
UndoRedoHistory
Layer: 1
Undoes
EndUndoes
Redoes
EndRedoes
EndUndoRedoHistory
Fore
SplineSet
121 0 m 1
 185 0 l 1
 271 818 l 1
 430 818 l 1
 808 0 l 1
 874 0 l 1
 489 847 l 1
 975 1658 l 1
 908 1658 l 1
 435 865 l 1
 276 865 l 1
 359 1658 l 1
 295 1658 l 1
 121 0 l 1
EndSplineSet
EndChar

StartChar: afii10029
Encoding: 340 1051 146
Width: 1122
VWidth: 0
Flags: HW
HStem: -7 55<35 171.135>
LayerCount: 2
UndoRedoHistory
Layer: 1
Undoes
EndUndoes
Redoes
EndRedoes
EndUndoRedoHistory
Fore
SplineSet
29 -7 m 1
 341 16 314 51 528 1147 c 1
 617 1606 l 1
 1026 1606 l 1
 857 0 l 1
 921 0 l 1
 1095 1658 l 1
 558 1658 l 1
 462 1149 l 1
 257 69 284 68 35 48 c 1
 29 -7 l 1
EndSplineSet
EndChar

StartChar: afii10030
Encoding: 341 1052 147
Width: 1271
VWidth: 0
Flags: HW
LayerCount: 2
UndoRedoHistory
Layer: 1
Undoes
EndUndoes
Redoes
EndRedoes
EndUndoRedoHistory
Fore
SplineSet
96 0 m 1
 156 0 l 1
 360 1462 l 1
 562 0 l 1
 624 0 l 1
 1139 1467 l 1
 1035 0 l 1
 1095 0 l 1
 1215 1658 l 1
 1144 1658 l 1
 603 101 l 1
 389 1658 l 1
 327 1658 l 1
 96 0 l 1
EndSplineSet
EndChar

StartChar: afii10033
Encoding: 344 1055 150
Width: 1093
VWidth: 0
Flags: HW
LayerCount: 2
UndoRedoHistory
Layer: 1
Undoes
EndUndoes
Redoes
EndRedoes
EndUndoRedoHistory
Fore
SplineSet
122 0 m 1
 186 0 l 1
 355 1606 l 1
 996 1606 l 1
 827 0 l 1
 891 0 l 1
 1065 1658 l 1
 296 1658 l 1
 122 0 l 1
EndSplineSet
EndChar

StartChar: afii10034
Encoding: 345 1056 151
Width: 976
VWidth: 0
Flags: HW
HStem: 800 55<590 740.133> 1604 54<672 820.818>
LayerCount: 2
UndoRedoHistory
Layer: 1
Undoes
EndUndoes
Redoes
EndRedoes
EndUndoRedoHistory
Fore
SplineSet
276 855 m 1
 355 1604 l 1
 672 1604 l 2
 877 1604 968 1523 939 1242 c 1
 909 964 792 855 592 855 c 2
 276 855 l 1
122 0 m 1
 186 0 l 1
 270 800 l 1
 590 800 l 2
 895 800 988 1040 1010 1242 c 0
 1034 1472 976 1658 677 1658 c 2
 296 1658 l 1
 122 0 l 1
EndSplineSet
EndChar

StartChar: afii10037
Encoding: 348 1059 154
Width: 927
VWidth: 0
Flags: HW
HStem: -165 52<82 267.436>
LayerCount: 2
UndoRedoHistory
Layer: 1
Undoes
EndUndoes
Redoes
EndRedoes
EndUndoRedoHistory
Fore
SplineSet
74 -165 m 1
 376 -164 412 -93 516 228 c 1
 1009 1658 l 1
 942 1658 l 1
 678 874 l 1
 492 324 l 1
 406 868 l 1
 280 1658 l 1
 213 1658 l 1
 452 239 l 1
 368 -58 345 -109 82 -113 c 1
 74 -165 l 1
EndSplineSet
EndChar

StartChar: afii10038
Encoding: 349 1060 155
Width: 1158
VWidth: 0
Flags: HW
HStem: 171 50<315.862 523 593 814.906> 1476 52<455.136 660 729 930.004>
LayerCount: 2
UndoRedoHistory
Layer: 1
Undoes
EndUndoes
Redoes
EndRedoes
EndUndoRedoHistory
Fore
SplineSet
697 221 m 0
 675 221 628 223 593 227 c 1
 724 1471 l 1
 757 1474 799 1476 818 1476 c 0
 1003 1476 1067 1323 1043 1090 c 2
 989 578 l 2
 965 349 874 221 697 221 c 0
427 221 m 0
 250 221 187 349 211 578 c 2
 265 1090 l 2
 289 1323 385 1476 570 1476 c 0
 588 1476 628 1475 660 1471 c 1
 529 226 l 1
 492 223 448 221 427 221 c 0
491 -130 m 1
 555 -130 l 1
 588 177 l 1
 625 173 675 171 700 171 c 0
 909 171 1025 312 1053 578 c 2
 1107 1090 l 2
 1135 1363 1048 1528 831 1528 c 0
 810 1528 764 1526 729 1523 c 1
 759 1808 l 1
 695 1808 l 1
 665 1522 l 1
 635 1524 597 1525 580 1525 c 0
 355 1525 229 1365 201 1090 c 2
 147 578 l 2
 119 310 205 171 413 171 c 0
 437 171 485 173 523 176 c 1
 491 -130 l 1
EndSplineSet
EndChar

StartChar: afii10040
Encoding: 351 1062 157
Width: 1082
VWidth: 0
Flags: HW
LayerCount: 2
UndoRedoHistory
Layer: 1
Undoes
EndUndoes
Redoes
EndRedoes
EndUndoRedoHistory
Fore
SplineSet
902 -264 m 1
 956 -264 l 1
 989 52 l 1
 892 52 l 1
 1061 1658 l 1
 997 1658 l 1
 828 52 l 1
 190 52 l 1
 359 1658 l 1
 295 1658 l 1
 121 0 l 1
 920 0 l 1
 902 -264 l 1
EndSplineSet
EndChar

StartChar: afii10041
Encoding: 352 1063 158
Width: 1006
VWidth: 0
Flags: HW
HStem: 734 54<394.169 775.375>
LayerCount: 2
UndoRedoHistory
Layer: 1
Undoes
EndUndoes
Redoes
EndRedoes
EndUndoRedoHistory
Fore
SplineSet
740 0 m 1
 804 0 l 1
 978 1658 l 1
 914 1658 l 1
 827 829 l 1
 770 806 680 788 584 788 c 0
 400 788 229 829 256 1081 c 2
 316 1658 l 1
 252 1658 l 1
 192 1080 l 1
 164 820 325 734 574 734 c 0
 649 734 732 746 821 773 c 1
 740 0 l 1
EndSplineSet
EndChar

StartChar: afii10042
Encoding: 353 1064 159
Width: 1396
VWidth: 0
Flags: HW
LayerCount: 2
UndoRedoHistory
Layer: 1
Undoes
EndUndoes
Redoes
EndRedoes
EndUndoRedoHistory
Fore
SplineSet
122 0 m 1
 1194 0 l 1
 1368 1658 l 1
 1304 1658 l 1
 1135 52 l 1
 703 52 l 1
 872 1658 l 1
 808 1658 l 1
 639 52 l 1
 191 52 l 1
 360 1658 l 1
 296 1658 l 1
 122 0 l 1
EndSplineSet
EndChar

StartChar: afii10043
Encoding: 354 1065 160
Width: 1393
VWidth: 0
Flags: HW
LayerCount: 2
UndoRedoHistory
Layer: 1
Undoes
EndUndoes
Redoes
EndRedoes
EndUndoRedoHistory
Fore
SplineSet
1213 -264 m 1
 1267 -264 l 1
 1300 52 l 1
 1200 52 l 1
 1369 1658 l 1
 1305 1658 l 1
 1136 52 l 1
 702 52 l 1
 871 1658 l 1
 807 1658 l 1
 638 52 l 1
 190 52 l 1
 359 1658 l 1
 295 1658 l 1
 121 0 l 1
 1231 0 l 1
 1213 -264 l 1
EndSplineSet
EndChar

StartChar: afii10044
Encoding: 355 1066 161
Width: 1088
VWidth: 0
Flags: HW
HStem: 0 61<593 758.032> 895 61<691 833.148>
LayerCount: 2
UndoRedoHistory
Layer: 1
Undoes
EndUndoes
Redoes
EndRedoes
EndUndoRedoHistory
Fore
SplineSet
363 61 m 1
 451 895 l 1
 691 895 l 2
 939 895 1006 721 979 466 c 0
 954 229 860 61 603 61 c 2
 363 61 l 1
293 0 m 1
 593 0 l 2
 900 0 1023 215 1049 463 c 0
 1081 766 976 956 692 956 c 2
 457 956 l 1
 531 1658 l 1
 149 1658 l 1
 144 1605 l 1
 462 1605 l 1
 293 0 l 1
EndSplineSet
EndChar

StartChar: afii10045
Encoding: 356 1067 162
Width: 1323
VWidth: 0
Flags: HW
HStem: 0 61<421 586.032> 895 61<519 661.148>
LayerCount: 2
UndoRedoHistory
Layer: 1
Undoes
EndUndoes
Redoes
EndRedoes
EndUndoRedoHistory
Fore
SplineSet
1058 0 m 1
 1122 0 l 1
 1296 1658 l 1
 1232 1658 l 1
 1058 0 l 1
191 61 m 1
 279 895 l 1
 519 895 l 2
 767 895 834 721 807 466 c 0
 782 229 688 61 431 61 c 2
 191 61 l 1
121 0 m 1
 421 0 l 2
 728 0 851 215 877 463 c 0
 909 766 804 956 520 956 c 2
 285 956 l 1
 359 1658 l 1
 295 1658 l 1
 121 0 l 1
EndSplineSet
EndChar

StartChar: afii10046
Encoding: 357 1068 163
Width: 917
VWidth: 0
Flags: HW
HStem: 0 61<422 587.032> 895 61<520 662.148>
LayerCount: 2
UndoRedoHistory
Layer: 1
Undoes
EndUndoes
Redoes
EndRedoes
EndUndoRedoHistory
Fore
SplineSet
192 61 m 1
 280 895 l 1
 520 895 l 2
 768 895 835 721 808 466 c 0
 783 229 689 61 432 61 c 2
 192 61 l 1
122 0 m 1
 422 0 l 2
 729 0 852 215 878 463 c 0
 910 766 805 956 521 956 c 2
 286 956 l 1
 360 1658 l 1
 296 1658 l 1
 122 0 l 1
EndSplineSet
EndChar

StartChar: afii10047
Encoding: 358 1069 164
Width: 1002
VWidth: 0
Flags: HW
HStem: -24 55<310.63 606.786> 1622 56<474.364 766.27>
LayerCount: 2
UndoRedoHistory
Layer: 1
Undoes
EndUndoes
Redoes
EndRedoes
EndUndoRedoHistory
Fore
SplineSet
445 -24 m 0
 751 -24 855 182 883 448 c 2
 962 1198 l 2
 990 1463 942 1678 624 1678 c 0
 337 1678 241 1476 212 1201 c 1
 206 1137 l 1
 266 1137 l 1
 275 1227 l 1
 300 1466 384 1622 618 1622 c 0
 878 1622 925 1451 899 1208 c 2
 864 878 l 1
 431 878 l 1
 426 826 l 1
 859 826 l 1
 819 443 l 2
 793 199 711 31 451 31 c 0
 225 31 164 175 191 431 c 1
 199 504 l 1
 139 504 l 1
 132 439 l 2
 103 164 166 -24 445 -24 c 0
EndSplineSet
EndChar

StartChar: afii10048
Encoding: 359 1070 165
Width: 1326
VWidth: 0
Flags: HW
HStem: -24 56<611.619 922.339> 1623 55<771.169 1081.47>
LayerCount: 2
UndoRedoHistory
Layer: 1
Undoes
EndUndoes
Redoes
EndRedoes
EndUndoRedoHistory
Fore
SplineSet
765 32 m 0
 499 32 441 196 466 438 c 2
 548 1219 l 2
 574 1461 669 1623 929 1623 c 0
 1189 1623 1249 1460 1224 1219 c 2
 1142 438 l 2
 1117 197 1024 32 765 32 c 0
755 -24 m 0
 1073 -24 1179 183 1207 448 c 2
 1287 1212 l 2
 1315 1475 1240 1678 934 1678 c 0
 628 1678 512 1481 484 1214 c 2
 446 860 l 1
 276 860 l 1
 360 1658 l 1
 296 1658 l 1
 122 0 l 1
 186 0 l 1
 271 804 l 1
 441 804 l 1
 404 452 l 2
 376 187 436 -24 755 -24 c 0
EndSplineSet
EndChar

StartChar: afii10049
Encoding: 360 1071 166
Width: 1063
VWidth: 0
Flags: HW
HStem: 736 54<478.36 576> 1603 55<513.931 665>
LayerCount: 2
UndoRedoHistory
Layer: 1
Undoes
EndUndoes
Redoes
EndRedoes
EndUndoRedoHistory
Fore
SplineSet
576 790 m 2
 343 790 269 938 298 1219 c 0
 327 1497 458 1603 658 1603 c 2
 966 1603 l 1
 881 790 l 1
 576 790 l 2
17 0 m 1
 86 0 l 1
 477 744 l 1
 506 739 536 736 570 736 c 2
 875 736 l 1
 798 0 l 1
 862 0 l 1
 1036 1658 l 1
 665 1658 l 2
 360 1658 257 1443 233 1220 c 0
 211 1009 248 819 419 759 c 1
 17 0 l 1
EndSplineSet
EndChar

StartChar: afii10051
Encoding: 361 1026 167
Width: 940
VWidth: 0
Flags: HW
HStem: 0 54<429 598.703> 929 54<468.79 719.916>
LayerCount: 2
UndoRedoHistory
Layer: 1
Undoes
EndUndoes
Redoes
EndRedoes
EndUndoRedoHistory
Fore
SplineSet
423 0 m 1
 434 0 l 2
 682 0 816 110 841 353 c 2
 875 679 l 2
 899 902 760 983 615 983 c 0
 518 983 418 946 364 893 c 1
 438 1602 l 1
 780 1602 l 1
 786 1658 l 1
 50 1658 l 1
 44 1602 l 1
 374 1602 l 1
 206 0 l 1
 270 0 l 1
 358 841 l 1
 428 896 521 929 605 929 c 0
 727 929 829 859 811 686 c 2
 776 355 l 2
 754 146 663 54 429 54 c 1
 423 0 l 1
EndSplineSet
EndChar

StartChar: afii10053
Encoding: 363 1028 169
Width: 971
VWidth: 0
Flags: HW
HStem: -24 56<328.839 620.759> 1623 55<488.768 784.845>
LayerCount: 2
UndoRedoHistory
Layer: 1
Undoes
EndUndoes
Redoes
EndRedoes
EndUndoRedoHistory
Fore
SplineSet
471 -24 m 0
 758 -24 855 178 884 453 c 1
 890 517 l 1
 830 517 l 1
 821 427 l 1
 796 188 711 32 477 32 c 0
 217 32 171 203 197 446 c 2
 240 856 l 1
 674 856 l 1
 679 908 l 1
 245 908 l 1
 277 1211 l 2
 303 1455 385 1623 645 1623 c 0
 871 1623 931 1479 905 1223 c 1
 897 1150 l 1
 957 1150 l 1
 964 1215 l 2
 993 1490 929 1678 650 1678 c 0
 344 1678 241 1472 213 1206 c 2
 134 456 l 2
 106 191 153 -24 471 -24 c 0
EndSplineSet
EndChar

StartChar: afii10055
Encoding: 365 1030 171
Width: 388
VWidth: 0
Flags: HW
LayerCount: 2
UndoRedoHistory
Layer: 1
Undoes
EndUndoes
Redoes
EndRedoes
EndUndoRedoHistory
Fore
SplineSet
122 0 m 1
 186 0 l 1
 360 1658 l 1
 296 1658 l 1
 122 0 l 1
EndSplineSet
EndChar

StartChar: afii10057
Encoding: 367 1032 173
Width: 513
VWidth: 0
Flags: HW
HStem: -114 56<-29 163.279>
LayerCount: 2
UndoRedoHistory
Layer: 1
Undoes
EndUndoes
Redoes
EndRedoes
EndUndoRedoHistory
Fore
SplineSet
-35 -114 m 1
 2 -114 l 2
 278 -114 311 4 339 262 c 1
 485 1658 l 1
 421 1658 l 1
 276 279 l 2
 246 -9 232 -57 -29 -58 c 1
 -35 -114 l 1
EndSplineSet
EndChar

StartChar: afii10058
Encoding: 368 1033 174
Width: 1636
VWidth: 0
Flags: HW
HStem: 0 61<15 173.443 1137 1302.03> 895 61<1235 1377.15>
LayerCount: 2
UndoRedoHistory
Layer: 1
Undoes
EndUndoes
Redoes
EndRedoes
EndUndoRedoHistory
Fore
SplineSet
907 61 m 1
 995 895 l 1
 1235 895 l 2
 1483 895 1550 721 1523 466 c 0
 1498 229 1404 61 1147 61 c 2
 907 61 l 1
9 -7 m 1
 26 -7 l 2
 302 -7 318 167 422 705 c 2
 597 1606 l 1
 1006 1606 l 1
 837 0 l 1
 1137 0 l 2
 1444 0 1567 215 1593 463 c 0
 1625 766 1520 956 1236 956 c 2
 1001 956 l 1
 1075 1658 l 1
 538 1658 l 1
 358 705 l 2
 257 173 254 48 15 48 c 1
 9 -7 l 1
EndSplineSet
EndChar

StartChar: afii10059
Encoding: 369 1034 175
Width: 1505
VWidth: 0
Flags: HW
HStem: 1 60<1010 1175.03> 896 52<1108 1239.79>
LayerCount: 2
UndoRedoHistory
Layer: 1
Undoes
EndUndoes
Redoes
EndRedoes
EndUndoRedoHistory
Fore
SplineSet
782 61 m 1
 870 895 l 1
 1108 895 l 2
 1356 895 1423 721 1396 466 c 0
 1371 229 1277 61 1020 61 c 2
 782 61 l 1
1010 0 m 1
 1317 0 1440 215 1466 463 c 0
 1498 766 1393 956 1109 956 c 2
 876 956 l 1
 950 1659 l 1
 886 1659 l 1
 812 948 l 1
 286 948 l 1
 360 1659 l 1
 296 1659 l 1
 122 1 l 1
 186 1 l 1
 280 896 l 1
 806 896 l 1
 712 1 l 1
 1010 0 l 1
EndSplineSet
EndChar

StartChar: afii10060
Encoding: 370 1035 176
Width: 847
VWidth: 0
Flags: HW
HStem: 945 41<466.825 660.42>
LayerCount: 2
UndoRedoHistory
Layer: 1
Undoes
EndUndoes
Redoes
EndRedoes
EndUndoRedoHistory
Fore
SplineSet
172 0 m 1
 236 0 l 1
 324 837 l 1
 407 908 485 945 575 945 c 0
 650 945 727 915 713 776 c 2
 631 0 l 1
 696 0 l 1
 777 769 l 2
 796 948 675 986 584 986 c 0
 483 986 393 944 330 891 c 1
 404 1602 l 1
 769 1602 l 1
 775 1658 l 1
 -24 1658 l 1
 -30 1602 l 1
 340 1602 l 1
 172 0 l 1
EndSplineSet
EndChar

StartChar: afii10066
Encoding: 374 1073 180
Width: 900
VWidth: 0
Flags: HW
HStem: -20 50<320.257 554.881> 1071 50<456.365 687.525>
LayerCount: 2
UndoRedoHistory
Layer: 1
Undoes
EndUndoes
Redoes
EndRedoes
EndUndoRedoHistory
Fore
SplineSet
433 30 m 0
 301 26 169 117 194 351 c 2
 256 940 l 1
 306 991 475 1071 579 1071 c 0
 748 1071 796 972 761 636 c 2
 741 446 l 2
 706 110 606 35 433 30 c 0
428 -20 m 0
 640 -13 767 87 805 450 c 1
 825 635 l 1
 862 994 791 1121 584 1121 c 1
 470 1120 310 1051 262 995 c 1
 278 1154 l 1
 330 1650 508 1505 829 1620 c 1
 836 1687 l 1
 509 1552 273 1712 215 1156 c 2
 130 351 l 2
 101 77 276 -25 428 -20 c 0
EndSplineSet
EndChar

StartChar: afii10067
Encoding: 375 1074 181
Width: 735
VWidth: 0
Flags: HW
HStem: 0 51<333 457.27> 605 51<411 497.975> 1126 58<433 545.236>
LayerCount: 2
UndoRedoHistory
Layer: 1
Undoes
EndUndoes
Redoes
EndRedoes
EndUndoRedoHistory
Fore
SplineSet
211 656 m 1
 260 1126 l 1
 433 1126 l 2
 581 1126 636 1029 622 896 c 0
 607 756 518 656 414 656 c 2
 211 656 l 1
147 51 m 1
 206 605 l 1
 411 605 l 2
 534 605 609 531 589 343 c 0
 573 190 530 51 343 51 c 2
 147 51 l 1
78 0 m 1
 333 0 l 2
 571 0 632 140 653 342 c 0
 667 473 633 591 515 637 c 1
 624 683 677 804 686 897 c 1
 702 1042 653 1184 435 1184 c 2
 202 1184 l 1
 78 0 l 1
EndSplineSet
EndChar

StartChar: afii10068
Encoding: 376 1075 182
Width: 562
VWidth: 0
Flags: HW
LayerCount: 2
UndoRedoHistory
Layer: 1
Undoes
EndUndoes
Redoes
EndRedoes
EndUndoRedoHistory
Fore
SplineSet
78 0 m 1
 142 0 l 1
 260 1127 l 1
 584 1127 l 1
 590 1184 l 1
 202 1184 l 1
 78 0 l 1
EndSplineSet
EndChar

StartChar: afii10069
Encoding: 377 1076 183
Width: 898
VWidth: 0
Flags: HW
HStem: -20 20G<57.4242 703>
LayerCount: 2
UndoRedoHistory
Layer: 1
Undoes
EndUndoes
Redoes
EndRedoes
EndUndoRedoHistory
Fore
SplineSet
88 48 m 1
 223 129 245 294 334 744 c 2
 411 1132 l 1
 731 1132 l 1
 617 48 l 1
 88 48 l 1
-29 -264 m 1
 26 -264 l 1
 60 0 l 1
 703 0 l 1
 681 -264 l 1
 738 -264 l 1
 771 48 l 1
 681 48 l 1
 800 1184 l 1
 359 1184 l 1
 276 754 l 2
 175 232 126 98 4 48 c 1
 -29 -264 l 1
EndSplineSet
EndChar

StartChar: afii10072
Encoding: 380 1078 186
Width: 977
VWidth: 0
Flags: HW
LayerCount: 2
UndoRedoHistory
Layer: 1
Undoes
EndUndoes
Redoes
EndRedoes
EndUndoRedoHistory
Fore
SplineSet
-32 0 m 1
 31 0 l 1
 461 594 l 1
 484 594 l 1
 422 0 l 1
 478 0 l 1
 541 594 l 1
 561 594 l 1
 866 0 l 1
 929 0 l 1
 613 609 l 1
 1035 1184 l 1
 975 1184 l 1
 563 619 l 1
 543 619 l 1
 603 1184 l 1
 546 1184 l 1
 487 619 l 1
 466 619 l 1
 170 1184 l 1
 109 1184 l 1
 412 609 l 1
 -32 0 l 1
EndSplineSet
EndChar

StartChar: afii10073
Encoding: 381 1079 187
Width: 720
VWidth: 0
Flags: HW
HStem: -20 50<222.009 432.113> 590 56<345 459.767> 1154 50<342.089 543.579>
LayerCount: 2
UndoRedoHistory
Layer: 1
Undoes
EndUndoes
Redoes
EndRedoes
EndUndoRedoHistory
Fore
SplineSet
316 -20 m 0
 495 -23 619 110 635 315 c 0
 649 483 576 579 460 619 c 1
 582 643 670 738 689 875 c 0
 714 1053 646 1204 455 1204 c 0
 279 1204 164 1099 144 911 c 1
 207 911 l 1
 223 1063 316 1154 450 1154 c 0
 601 1154 649 1012 625 872 c 0
 602 743 537 646 345 646 c 1
 339 590 l 1
 522 590 582 464 571 315 c 0
 557 126 460 28 321 30 c 0
 173 32 127 135 144 294 c 1
 79 294 l 1
 58 98 144 -17 316 -20 c 0
EndSplineSet
EndChar

StartChar: afii10074
Encoding: 382 1080 188
Width: 793
VWidth: 0
Flags: HW
LayerCount: 2
UndoRedoHistory
Layer: 1
Undoes
EndUndoes
Redoes
EndRedoes
EndUndoRedoHistory
Fore
SplineSet
78 0 m 1
 136 0 l 1
 687 1042 l 1
 578 0 l 1
 636 0 l 1
 760 1184 l 1
 702 1183 l 1
 149 127 l 1
 261 1184 l 1
 202 1184 l 1
 78 0 l 1
EndSplineSet
EndChar

StartChar: afii10076
Encoding: 384 1082 190
Width: 727
VWidth: 0
Flags: HW
LayerCount: 2
UndoRedoHistory
Layer: 1
Undoes
EndUndoes
Redoes
EndRedoes
EndUndoRedoHistory
Fore
SplineSet
78 0 m 1
 142 0 l 1
 204 588 l 1
 318 588 l 1
 600 0 l 1
 667 0 l 1
 379 614 l 1
 775 1184 l 1
 706 1184 l 1
 323 635 l 1
 209 635 l 1
 266 1184 l 1
 202 1184 l 1
 78 0 l 1
EndSplineSet
EndChar

StartChar: afii10077
Encoding: 385 1083 191
Width: 871
VWidth: 0
Flags: HW
HStem: -10 50<-29 69.5>
LayerCount: 2
UndoRedoHistory
Layer: 1
Undoes
EndUndoes
Redoes
EndRedoes
EndUndoRedoHistory
Fore
SplineSet
-34 -10 m 1
 -17 -10 l 2
 175 -10 248 121 350 635 c 2
 448 1132 l 1
 768 1132 l 1
 649 0 l 1
 713 0 l 1
 837 1184 l 1
 396 1184 l 1
 290 635 l 2
 189 116 120 45 -29 40 c 1
 -34 -10 l 1
EndSplineSet
EndChar

StartChar: afii10078
Encoding: 386 1084 192
Width: 929
VWidth: 0
Flags: HW
LayerCount: 2
UndoRedoHistory
Layer: 1
Undoes
EndUndoes
Redoes
EndRedoes
EndUndoRedoHistory
Fore
SplineSet
68 0 m 1
 127 0 l 1
 237 986 l 1
 426 129 l 1
 448 129 l 1
 820 989 l 1
 722 0 l 1
 781 0 l 1
 898 1184 l 1
 840 1184 l 1
 450 261 l 1
 253 1184 l 1
 201 1184 l 1
 68 0 l 1
EndSplineSet
EndChar

StartChar: afii10079
Encoding: 387 1085 193
Width: 846
VWidth: 0
Flags: HW
LayerCount: 2
UndoRedoHistory
Layer: 1
Undoes
EndUndoes
Redoes
EndRedoes
EndUndoRedoHistory
Fore
SplineSet
78 0 m 1
 142 0 l 1
 204 593 l 1
 686 593 l 1
 624 0 l 1
 688 0 l 1
 812 1184 l 1
 748 1184 l 1
 692 645 l 1
 210 645 l 1
 266 1184 l 1
 202 1184 l 1
 78 0 l 1
EndSplineSet
EndChar

StartChar: afii10081
Encoding: 389 1087 195
Width: 801
VWidth: 0
Flags: HW
LayerCount: 2
UndoRedoHistory
Layer: 1
Undoes
EndUndoes
Redoes
EndRedoes
EndUndoRedoHistory
Fore
SplineSet
78 0 m 1
 142 0 l 1
 261 1129 l 1
 698 1129 l 1
 579 0 l 1
 643 0 l 1
 767 1184 l 1
 202 1184 l 1
 78 0 l 1
EndSplineSet
EndChar

StartChar: afii10084
Encoding: 392 1090 198
Width: 657
VWidth: 0
Flags: HW
LayerCount: 2
UndoRedoHistory
Layer: 1
Undoes
EndUndoes
Redoes
EndRedoes
EndUndoRedoHistory
Fore
SplineSet
263 0 m 1
 327 0 l 1
 446 1132 l 1
 732 1132 l 1
 738 1184 l 1
 88 1184 l 1
 83 1132 l 1
 382 1132 l 1
 263 0 l 1
EndSplineSet
EndChar

StartChar: afii10085
Encoding: 393 1091 199
Width: 744
VWidth: 0
Flags: HW
HStem: -298 56<5 166.74>
LayerCount: 2
UndoRedoHistory
Layer: 1
Undoes
EndUndoes
Redoes
EndRedoes
EndUndoRedoHistory
Fore
SplineSet
-1 -298 m 1
 202 -279 298 -251 357 -78 c 2
 780 1184 l 1
 718 1184 l 1
 508 546 l 1
 361 100 l 1
 303 554 l 1
 222 1184 l 1
 156 1184 l 1
 307 84 l 2
 329 -70 300 -240 5 -242 c 1
 -1 -298 l 1
EndSplineSet
EndChar

StartChar: afii10086
Encoding: 394 1092 200
Width: 1032
VWidth: 0
Flags: HW
HStem: 100 46<250.091 388 590 736.429> 1085 48<330.227 468 717 843.031>
LayerCount: 2
UndoRedoHistory
Layer: 1
Undoes
EndUndoes
Redoes
EndRedoes
EndUndoRedoHistory
Fore
SplineSet
594 146 m 2
 519 146 l 1
 618 1085 l 1
 717 1085 l 2
 865 1085 951 1054 915 718 c 1
 893 500 l 1
 857 164 737 146 594 146 c 2
388 146 m 2
 245 146 129 164 165 500 c 1
 187 718 l 1
 223 1054 315 1086 463 1086 c 2
 560 1086 l 1
 461 146 l 1
 388 146 l 2
405 -390 m 1
 463 -390 l 1
 515 100 l 1
 590 100 l 2
 769 100 911 141 949 504 c 2
 971 717 l 2
 1009 1076 904 1133 722 1133 c 2
 623 1133 l 1
 678 1658 l 1
 620 1658 l 1
 565 1133 l 1
 468 1133 l 2
 286 1133 169 1076 131 717 c 2
 109 504 l 2
 71 141 205 100 384 100 c 2
 457 100 l 1
 405 -390 l 1
EndSplineSet
EndChar

StartChar: afii10088
Encoding: 396 1094 202
Width: 777
VWidth: 0
Flags: HW
LayerCount: 2
UndoRedoHistory
Layer: 1
Undoes
EndUndoes
Redoes
EndRedoes
EndUndoRedoHistory
Fore
SplineSet
625 -264 m 1
 676 -264 l 1
 709 44 l 1
 622 44 l 1
 741 1184 l 1
 677 1184 l 1
 558 44 l 1
 147 44 l 1
 266 1184 l 1
 202 1184 l 1
 78 0 l 1
 646 0 l 1
 625 -264 l 1
EndSplineSet
EndChar

StartChar: afii10089
Encoding: 397 1095 203
Width: 724
VWidth: 0
Flags: HW
HStem: 493 50<258.01 528.882>
LayerCount: 2
UndoRedoHistory
Layer: 1
Undoes
EndUndoes
Redoes
EndRedoes
EndUndoRedoHistory
Fore
SplineSet
498 0 m 1
 562 0 l 1
 686 1184 l 1
 622 1184 l 1
 558 572 l 1
 500 555 458 543 369 543 c 0
 252 543 174 599 188 734 c 2
 235 1184 l 1
 171 1184 l 1
 124 737 l 2
 107 573 204 493 357 493 c 0
 439 493 495 509 553 524 c 1
 498 0 l 1
EndSplineSet
EndChar

StartChar: afii10090
Encoding: 398 1096 204
Width: 1066
VWidth: 0
Flags: HW
LayerCount: 2
UndoRedoHistory
Layer: 1
Undoes
EndUndoes
Redoes
EndRedoes
EndUndoRedoHistory
Fore
SplineSet
78 0 m 1
 908 0 l 1
 1032 1184 l 1
 968 1184 l 1
 849 44 l 1
 537 44 l 1
 656 1184 l 1
 592 1184 l 1
 473 44 l 1
 147 44 l 1
 266 1184 l 1
 202 1184 l 1
 78 0 l 1
EndSplineSet
EndChar

StartChar: afii10091
Encoding: 399 1097 205
Width: 1096
VWidth: 0
Flags: HW
LayerCount: 2
UndoRedoHistory
Layer: 1
Undoes
EndUndoes
Redoes
EndRedoes
EndUndoRedoHistory
Fore
SplineSet
933 -264 m 1
 982 -264 l 1
 1015 44 l 1
 926 44 l 1
 1046 1184 l 1
 984 1184 l 1
 864 44 l 1
 542 44 l 1
 662 1184 l 1
 600 1184 l 1
 480 44 l 1
 145 44 l 1
 265 1184 l 1
 203 1184 l 1
 78 0 l 1
 951 0 l 1
 933 -264 l 1
EndSplineSet
EndChar

StartChar: afii10092
Encoding: 400 1098 206
Width: 872
VWidth: 0
Flags: HW
HStem: 0 52<405 555.374> 662 52<475 606.588>
LayerCount: 2
UndoRedoHistory
Layer: 1
Undoes
EndUndoes
Redoes
EndRedoes
EndUndoRedoHistory
Fore
SplineSet
290 52 m 1
 355 662 l 1
 475 662 l 2
 727 662 739 483 724 347 c 0
 710 214 662 52 410 52 c 2
 290 52 l 1
221 0 m 1
 405 0 l 2
 718 0 774 214 788 346 c 0
 803 482 796 714 480 714 c 2
 360 714 l 1
 409 1184 l 1
 84 1184 l 1
 79 1133 l 1
 340 1133 l 1
 221 0 l 1
EndSplineSet
EndChar

StartChar: afii10093
Encoding: 401 1099 207
Width: 999
VWidth: 0
Flags: HW
HStem: 0 52<262 412.374> 662 52<332 463.588>
LayerCount: 2
UndoRedoHistory
Layer: 1
Undoes
EndUndoes
Redoes
EndRedoes
EndUndoRedoHistory
Fore
SplineSet
777 0 m 1
 841 0 l 1
 965 1184 l 1
 901 1184 l 1
 777 0 l 1
147 52 m 1
 212 662 l 1
 332 662 l 2
 584 662 596 483 581 347 c 0
 567 214 519 52 267 52 c 2
 147 52 l 1
78 0 m 1
 262 0 l 2
 575 0 631 214 645 346 c 0
 660 482 653 714 337 714 c 2
 217 714 l 1
 266 1184 l 1
 202 1184 l 1
 78 0 l 1
EndSplineSet
EndChar

StartChar: afii10094
Encoding: 402 1100 208
Width: 729
VWidth: 0
Flags: HW
HStem: 0 52<262 412.374> 662 52<332 463.588>
LayerCount: 2
UndoRedoHistory
Layer: 1
Undoes
EndUndoes
Redoes
EndRedoes
EndUndoRedoHistory
Fore
SplineSet
147 52 m 1
 212 662 l 1
 332 662 l 2
 584 662 596 483 581 347 c 0
 567 214 519 52 267 52 c 2
 147 52 l 1
78 0 m 1
 262 0 l 2
 575 0 631 214 645 346 c 0
 660 482 653 714 337 714 c 2
 217 714 l 1
 266 1184 l 1
 202 1184 l 1
 78 0 l 1
EndSplineSet
EndChar

StartChar: afii10095
Encoding: 403 1101 209
Width: 770
VWidth: 0
Flags: HW
HStem: -20 50<248.62 475.832> 1134 50<361.938 589.535>
LayerCount: 2
UndoRedoHistory
Layer: 1
Undoes
EndUndoes
Redoes
EndRedoes
EndUndoRedoHistory
Fore
SplineSet
354 -20 m 0
 563 -20 643 90 683 463 c 1
 710 722 l 2
 738 987 742 1184 486 1184 c 0
 225 1184 182 992 163 811 c 2
 161 792 l 1
 225 792 l 1
 227 809 l 1
 250 1029 301 1134 481 1134 c 0
 659 1134 678 1025 646 723 c 2
 636 626 l 1
 287 626 l 1
 281 575 l 1
 630 575 l 1
 619 463 l 1
 586 155 548 30 367 30 c 0
 222 30 152 91 177 329 c 1
 178 346 l 1
 114 346 l 1
 112 327 l 2
 93 142 112 -20 354 -20 c 0
EndSplineSet
EndChar

StartChar: afii10096
Encoding: 404 1102 210
Width: 1002
VWidth: 0
Flags: HW
HStem: -20 50<484.359 702.434> 1154 50<596.023 814.111>
LayerCount: 2
UndoRedoHistory
Layer: 1
Undoes
EndUndoes
Redoes
EndRedoes
EndUndoRedoHistory
Fore
SplineSet
590 30 m 0
 399 30 390 171 418 437 c 2
 451 747 l 1
 478 1013 517 1154 708 1154 c 0
 899 1154 908 1013 881 747 c 1
 848 437 l 2
 820 171 781 30 590 30 c 0
585 -20 m 0
 810 -20 879 128 912 437 c 2
 945 747 l 2
 977 1056 939 1204 714 1204 c 0
 489 1204 419 1053 387 747 c 1
 371 603 l 1
 205 603 l 1
 266 1184 l 1
 202 1184 l 1
 78 0 l 1
 142 0 l 1
 200 556 l 1
 366 556 l 1
 354 437 l 1
 321 128 360 -20 585 -20 c 0
EndSplineSet
EndChar

StartChar: afii10097
Encoding: 405 1103 211
Width: 750
VWidth: 0
Flags: HW
HStem: 494 52<364.321 580> 1132 52<383.102 532>
LayerCount: 2
UndoRedoHistory
Layer: 1
Undoes
EndUndoes
Redoes
EndRedoes
EndUndoRedoHistory
Fore
SplineSet
495 546 m 2
 287 546 207 641 229 847 c 0
 243 980 275 1132 527 1132 c 2
 647 1132 l 1
 585 546 l 1
 495 546 l 2
7 0 m 1
 76 0 l 1
 362 503 l 1
 411 494 493 494 580 494 c 1
 528 0 l 1
 592 0 l 1
 716 1184 l 1
 532 1184 l 2
 219 1184 179 980 165 848 c 0
 154 745 171 586 308 526 c 1
 7 0 l 1
EndSplineSet
EndChar

StartChar: afii10098
Encoding: 406 1169 212
Width: 584
VWidth: 0
Flags: HW
LayerCount: 2
UndoRedoHistory
Layer: 1
Undoes
EndUndoes
Redoes
EndRedoes
EndUndoRedoHistory
Fore
SplineSet
95 0 m 1
 159 0 l 1
 277 1127 l 1
 601 1127 l 1
 621 1315 l 1
 574 1315 l 1
 560 1184 l 1
 219 1184 l 1
 95 0 l 1
EndSplineSet
EndChar

StartChar: afii10099
Encoding: 407 1106 213
Width: 790
VWidth: 0
Flags: HW
HStem: -224 52<352 474.906> 943 43<393.961 608.723>
LayerCount: 2
UndoRedoHistory
Layer: 1
Undoes
EndUndoes
Redoes
EndRedoes
EndUndoRedoHistory
Fore
SplineSet
311 -224 m 1
 352 -224 l 2
 613 -224 634 -43 660 204 c 2
 719 765 l 2
 739 947 621 986 530 986 c 0
 422 986 333 951 258 894 c 1
 299 1288 l 1
 540 1288 l 1
 545 1334 l 1
 304 1334 l 1
 338 1658 l 1
 274 1658 l 1
 240 1334 l 1
 97 1334 l 1
 92 1288 l 1
 235 1288 l 1
 100 0 l 1
 164 0 l 1
 252 838 l 1
 339 913 429 943 524 943 c 0
 599 943 670 913 655 773 c 2
 595 204 l 2
 569 -47 555 -172 359 -172 c 2
 317 -172 l 1
 311 -224 l 1
EndSplineSet
EndChar

StartChar: afii10101
Encoding: 409 1108 215
Width: 753
VWidth: 0
Flags: HW
HStem: -20 50<237.514 460.519> 1154 50<343.787 570.675>
LayerCount: 2
UndoRedoHistory
Layer: 1
Undoes
EndUndoes
Redoes
EndRedoes
EndUndoRedoHistory
Fore
SplineSet
335 -20 m 0
 596 -20 630 168 654 403 c 2
 656 422 l 1
 592 422 l 1
 591 405 l 1
 561 125 520 30 340 30 c 0
 162 30 137 161 166 441 c 2
 180 575 l 1
 500 575 l 1
 506 626 l 1
 186 626 l 1
 196 721 l 2
 229 1034 276 1154 457 1154 c 0
 602 1154 664 1100 635 827 c 1
 632 800 l 1
 696 800 l 1
 699 829 l 2
 721 1034 705 1204 463 1204 c 0
 254 1204 171 1090 132 721 c 2
 102 442 l 2
 76 194 79 -20 335 -20 c 0
EndSplineSet
EndChar

StartChar: afii10103
Encoding: 411 1110 217
Width: 474
VWidth: 0
Flags: HW
LayerCount: 2
UndoRedoHistory
Layer: 1
Undoes
EndUndoes
Redoes
EndRedoes
EndUndoRedoHistory
Fore
SplineSet
295 1330 m 1
 391 1330 l 1
 408 1491 l 1
 312 1491 l 1
 295 1330 l 1
169 0 m 1
 233 0 l 1
 357 1184 l 1
 293 1184 l 1
 169 0 l 1
EndSplineSet
EndChar

StartChar: afii10105
Encoding: 413 1112 219
Width: 391
VWidth: 0
Flags: HW
HStem: -324 58<-63 60.2985>
LayerCount: 2
UndoRedoHistory
Layer: 1
Undoes
EndUndoes
Redoes
EndRedoes
EndUndoRedoHistory
Fore
SplineSet
275 1331 m 1
 339 1331 l 1
 357 1503 l 1
 293 1503 l 1
 275 1331 l 1
-103 -324 m 1
 -63 -324 l 2
 80 -324 171 -268 191 -76 c 2
 323 1184 l 1
 259 1184 l 1
 127 -75 l 2
 118 -164 109 -266 -54 -266 c 2
 -97 -266 l 1
 -103 -324 l 1
EndSplineSet
EndChar

StartChar: afii10106
Encoding: 414 1113 220
Width: 1198
VWidth: 0
Flags: HW
HStem: 0 52<-29 93.7844 799 956.3> 577 52<860 1009.84>
LayerCount: 2
UndoRedoHistory
Layer: 1
Undoes
EndUndoes
Redoes
EndRedoes
EndUndoRedoHistory
Fore
SplineSet
718 52 m 1
 774 577 l 1
 860 577 l 2
 1112 577 1101 443 1086 307 c 0
 1072 174 1056 52 804 52 c 2
 718 52 l 1
-34 -10 m 1
 -26 -10 l 2
 124 -10 229 29 329 534 c 2
 448 1132 l 1
 768 1132 l 1
 649 0 l 1
 799 0 l 2
 1112 0 1136 174 1150 306 c 0
 1164 442 1181 629 865 629 c 2
 779 629 l 1
 837 1184 l 1
 396 1184 l 1
 271 539 l 2
 189 121 117 40 -29 40 c 1
 -34 -10 l 1
EndSplineSet
EndChar

StartChar: afii10107
Encoding: 415 1114 221
Width: 1144
VWidth: 0
Flags: HW
HStem: 0 52<735 892.3> 577 52<796 945.844>
LayerCount: 2
UndoRedoHistory
Layer: 1
Undoes
EndUndoes
Redoes
EndRedoes
EndUndoRedoHistory
Fore
SplineSet
626 52 m 1
 682 577 l 1
 796 577 l 2
 1048 577 1037 443 1022 307 c 0
 1008 174 992 52 740 52 c 2
 626 52 l 1
78 0 m 1
 142 0 l 1
 203 577 l 1
 618 577 l 1
 557 0 l 1
 735 0 l 2
 1048 0 1072 174 1086 306 c 0
 1100 442 1117 629 801 629 c 2
 687 629 l 1
 745 1184 l 1
 681 1184 l 1
 623 629 l 1
 208 629 l 1
 266 1184 l 1
 202 1184 l 1
 78 0 l 1
EndSplineSet
EndChar

StartChar: afii10108
Encoding: 416 1115 222
Width: 790
VWidth: 0
Flags: HW
HStem: 943 43<393.961 608.723>
LayerCount: 2
UndoRedoHistory
Layer: 1
Undoes
EndUndoes
Redoes
EndRedoes
EndUndoRedoHistory
Fore
SplineSet
100 0 m 1
 164 0 l 1
 252 838 l 1
 339 913 429 943 524 943 c 0
 599 943 670 913 655 773 c 2
 574 0 l 1
 639 0 l 1
 719 765 l 2
 739 947 621 986 530 986 c 0
 422 986 333 951 258 894 c 1
 299 1288 l 1
 540 1288 l 1
 545 1334 l 1
 304 1334 l 1
 338 1658 l 1
 274 1658 l 1
 240 1334 l 1
 97 1334 l 1
 92 1288 l 1
 235 1288 l 1
 100 0 l 1
EndSplineSet
EndChar

StartChar: afii10145
Encoding: 419 1039 225
Width: 1017
VWidth: 0
Flags: HW
LayerCount: 2
UndoRedoHistory
Layer: 1
Undoes
EndUndoes
Redoes
EndRedoes
EndUndoRedoHistory
Fore
SplineSet
437 -264 m 1
 488 -264 l 1
 525 0 l 1
 815 0 l 1
 989 1658 l 1
 925 1658 l 1
 756 52 l 1
 191 52 l 1
 360 1658 l 1
 296 1658 l 1
 122 0 l 1
 455 0 l 1
 437 -264 l 1
EndSplineSet
EndChar

StartChar: afii10193
Encoding: 420 1119 226
Width: 790
VWidth: 0
Flags: HW
LayerCount: 2
UndoRedoHistory
Layer: 1
Undoes
EndUndoes
Redoes
EndRedoes
EndUndoRedoHistory
Fore
SplineSet
310 -264 m 1
 354 -264 l 1
 391 0 l 1
 632 0 l 1
 756 1184 l 1
 692 1184 l 1
 573 52 l 1
 147 52 l 1
 266 1184 l 1
 202 1184 l 1
 78 0 l 1
 329 0 l 1
 310 -264 l 1
EndSplineSet
EndChar

StartChar: afii61289
Encoding: 421 8467 227
Width: 1024
VWidth: 0
Flags: HW
LayerCount: 2
UndoRedoHistory
Layer: 1
Undoes
EndUndoes
Redoes
EndRedoes
EndUndoRedoHistory
Fore
SplineSet
451 626 m 1
 378 339 l 1
 263 -110 570 -113 782 148 c 1
 745 189 l 1
 582 -23 341 -57 436 330 c 1
 540 741 l 1
 686 929 l 2
 1451 1915 813 2059 711 1653 c 2
 482 749 l 1
 163 335 l 1
 199 302 l 1
 451 626 l 1
572 865 m 1
 771 1652 l 2
 848 1956 1306 1821 650 967 c 1
 572 865 l 1
EndSplineSet
EndChar

StartChar: ampersand
Encoding: 38 38 231
Width: 1229
VWidth: 0
Flags: HW
HStem: -24 56<340 633 1013 1093> 1623 55<530 814>
VStem: 1110 51<601 702>
LayerCount: 2
UndoRedoHistory
Layer: 1
Undoes
EndUndoes
Redoes
EndRedoes
EndUndoRedoHistory
Fore
SplineSet
507 905 m 1
 391 1128 348 1228 361 1353 c 0
 377 1507 480 1623 672 1623 c 0
 835 1623 934 1547 918 1403 c 0
 900 1231 713 1073 507 905 c 1
490 32 m 0
 232 32 163 210 179 358 c 0
 193 493 259 613 485 825 c 1
 826 181 l 1
 701 66 602 32 490 32 c 0
482 -24 m 0
 630 -24 761 56 849 139 c 1
 898 52 972 10 1043 -5 c 0
 1060 -8 1077 -10 1093 -10 c 1
 1098 41 l 1
 1024 41 971 54 890 173 c 1
 1051 333 1147 567 1161 702 c 1
 1110 702 l 1
 1097 582 991 344 867 216 c 1
 528 858 l 1
 818 1087 961 1250 977 1397 c 0
 995 1569 893 1678 681 1678 c 0
 472 1678 323 1570 300 1349 c 0
 286 1222 324 1129 461 872 c 1
 191 627 127 485 114 359 c 0
 93 163 201 -24 482 -24 c 0
EndSplineSet
EndChar

StartChar: approxequal
Encoding: 425 8776 233
Width: 755
VWidth: 0
Flags: HW
HStem: 595 46<474 598> 704 44<232 346> 827 46<498 624> 936 44<256 370>
LayerCount: 2
UndoRedoHistory
Layer: 1
Undoes
EndUndoes
Redoes
EndRedoes
EndUndoRedoHistory
Fore
SplineSet
554 827 m 0
 597 827 641 853 711 913 c 1
 690 942 l 1
 619 890 596 873 558 873 c 0
 508 873 386 980 320 980 c 0
 271 980 224 951 152 876 c 1
 174 849 l 1
 249 917 288 936 312 936 c 0
 367 936 485 827 554 827 c 0
530 595 m 0
 573 595 616 621 687 681 c 1
 666 710 l 1
 594 658 571 641 533 641 c 0
 483 641 362 748 296 748 c 0
 247 748 200 719 128 644 c 1
 150 617 l 1
 225 685 264 704 288 704 c 0
 343 704 461 595 530 595 c 0
EndSplineSet
EndChar

StartChar: asciicircum
Encoding: 94 94 235
Width: 683
VWidth: 0
Flags: HW
LayerCount: 2
UndoRedoHistory
Layer: 1
Undoes
EndUndoes
Redoes
EndRedoes
EndUndoRedoHistory
Fore
SplineSet
122 1107 m 1
 167 1107 l 1
 473 1627 l 1
 668 1107 l 1
 713 1107 l 1
 514 1658 l 1
 437 1658 l 1
 122 1107 l 1
EndSplineSet
EndChar

StartChar: asciitilde
Encoding: 126 126 236
Width: 729
VWidth: 0
Flags: HW
HStem: 797 46<482 606> 906 44<240 354>
LayerCount: 2
UndoRedoHistory
Layer: 1
Undoes
EndUndoes
Redoes
EndRedoes
EndUndoRedoHistory
Fore
SplineSet
538 797 m 0
 581 797 625 823 695 883 c 1
 674 912 l 1
 602 860 580 843 542 843 c 0
 492 843 370 950 304 950 c 0
 255 950 208 921 136 846 c 1
 158 819 l 1
 233 887 272 906 296 906 c 0
 351 906 469 797 538 797 c 0
EndSplineSet
EndChar

StartChar: asterisk
Encoding: 42 42 237
Width: 696
VWidth: 0
Flags: HW
VStem: 458 55<1558 1658>
LayerCount: 2
UndoRedoHistory
Layer: 1
Undoes
EndUndoes
Redoes
EndRedoes
EndUndoRedoHistory
Fore
SplineSet
233 1028 m 1
 443 1291 l 1
 599 1028 l 1
 645 1054 l 1
 474 1312 l 1
 758 1424 l 1
 743 1468 l 1
 468 1344 l 1
 513 1658 l 1
 458 1658 l 1
 433 1344 l 1
 180 1468 l 1
 156 1424 l 1
 418 1311 l 1
 193 1058 l 1
 233 1028 l 1
EndSplineSet
EndChar

StartChar: at
Encoding: 64 64 238
Width: 1567
VWidth: 0
Flags: HW
HStem: -174 51<594 1084> 277 50<627 816> 295 59<1079 1259> 1186 53<892 1116> 1605 51<807 1192>
CounterMasks: 1 d8
LayerCount: 2
UndoRedoHistory
Layer: 1
Undoes
EndUndoes
Redoes
EndRedoes
EndUndoRedoHistory
Fore
SplineSet
718 327 m 0xd8
 635 327 530 370 557 624 c 0
 595 993 825 1186 1008 1186 c 0
 1060 1186 1109 1170 1149 1138 c 1
 1011 571 l 1
 935 424 831 327 718 327 c 0xd8
827 -174 m 0
 941 -174 1099 -149 1239 -123 c 1
 1221 -74 l 1
 1133 -94 995 -123 834 -123 c 0
 556 -123 135 -67 218 720 c 0
 279 1304 601 1597 958 1605 c 1
 1320 1612 1581 1487 1468 790 c 0
 1399 368 1209 354 1154 354 c 0xb8
 1044 354 1051 440 1080 573 c 1
 1235 1232 l 1
 1184 1232 l 1
 1164 1188 l 1
 1123 1222 1071 1239 1012 1239 c 0
 806 1239 532 1032 490 625 c 0
 464 377 572 277 714 277 c 0xd8
 835 277 937 373 1001 486 c 1
 970 354 1060 295 1130 295 c 0xb8
 1182 295 1451 292 1530 789 c 0
 1629 1416 1440 1662 962 1656 c 0
 594 1651 223 1362 156 722 c 0
 78 -22 431 -174 827 -174 c 0
EndSplineSet
EndChar

StartChar: b
Encoding: 98 98 240
Width: 772
VWidth: 0
Flags: W
HStem: -20 50<268.058 468.571> 1154 50<391.336 590.522>
LayerCount: 2
UndoRedoHistory
Layer: 1
Undoes
EndUndoes
Redoes
EndRedoes
EndUndoRedoHistory
Fore
SplineSet
368 30 m 0
 274 30 201 91 159 159 c 1
 250 1025 l 1
 298 1076 389 1154 491 1154 c 0
 660 1154 681 1035 645 699 c 1
 624 490 l 1
 588 154 530 30 368 30 c 0
363 -20 m 0
 568 -20 650 131 688 494 c 2
 709 698 l 1
 747 1057 704 1204 497 1204 c 0
 384 1204 302 1137 256 1081 c 1
 316 1658 l 1
 252 1658 l 1
 78 0 l 1
 142 0 l 1
 153 102 l 1
 187 50 252 -20 363 -20 c 0
EndSplineSet
EndChar

StartChar: backslash
Encoding: 92 92 241
Width: 640
VWidth: 0
Flags: HW
LayerCount: 2
UndoRedoHistory
Layer: 1
Undoes
EndUndoes
Redoes
EndRedoes
EndUndoRedoHistory
Fore
SplineSet
501 0 m 1
 562 0 l 1
 232 1658 l 1
 172 1658 l 1
 501 0 l 1
EndSplineSet
EndChar

StartChar: bar
Encoding: 124 124 242
Width: 389
VWidth: 0
Flags: HW
LayerCount: 2
UndoRedoHistory
Layer: 1
Undoes
EndUndoes
Redoes
EndRedoes
EndUndoRedoHistory
Fore
SplineSet
94 -283 m 1
 155 -283 l 1
 359 1658 l 1
 298 1658 l 1
 94 -283 l 1
EndSplineSet
EndChar

StartChar: braceleft
Encoding: 123 123 243
Width: 418
VWidth: 0
Flags: HW
HStem: -269 50<224 319> 675 72<113 181> 1624 50<415 518>
LayerCount: 2
UndoRedoHistory
Layer: 1
Undoes
EndUndoes
Redoes
EndRedoes
EndUndoRedoHistory
Fore
SplineSet
319 -269 m 1
 324 -219 l 1
 187 -219 189 -203 225 144 c 2
 253 410 l 2
 275 615 264 682 184 711 c 1
 270 740 295 807 316 1012 c 1
 343 1261 l 1
 379 1608 381 1624 518 1624 c 1
 523 1674 l 1
 330 1674 324 1626 286 1261 c 2
 263 1044 l 2
 239 820 213 747 113 747 c 1
 105 675 l 1
 205 675 216 602 193 378 c 2
 168 144 l 2
 130 -221 126 -269 319 -269 c 1
EndSplineSet
EndChar

StartChar: braceright
Encoding: 125 125 244
Width: 418
VWidth: 0
Flags: HW
HStem: -269 50<-32 71> 675 72<306 375> 1624 50<167 262>
LayerCount: 2
UndoRedoHistory
Layer: 1
Undoes
EndUndoes
Redoes
EndRedoes
EndUndoRedoHistory
Fore
SplineSet
-37 -269 m 1
 156 -269 162 -221 200 144 c 2
 225 378 l 2
 248 602 275 675 375 675 c 1
 383 747 l 1
 283 747 271 820 295 1044 c 2
 318 1261 l 2
 356 1626 360 1674 167 1674 c 1
 162 1624 l 1
 299 1624 297 1608 261 1261 c 1
 234 1012 l 1
 213 807 224 740 304 711 c 1
 218 682 193 615 171 410 c 2
 143 144 l 2
 107 -203 105 -219 -32 -219 c 1
 -37 -269 l 1
EndSplineSet
EndChar

StartChar: bracketleft
Encoding: 91 91 245
Width: 520
VWidth: 0
Flags: HW
LayerCount: 2
UndoRedoHistory
Layer: 1
Undoes
EndUndoes
Redoes
EndRedoes
EndUndoRedoHistory
Fore
SplineSet
93 -264 m 1
 334 -264 l 1
 339 -215 l 1
 164 -215 l 1
 356 1610 l 1
 531 1610 l 1
 536 1658 l 1
 295 1658 l 1
 93 -264 l 1
EndSplineSet
EndChar

StartChar: bracketright
Encoding: 93 93 246
Width: 520
VWidth: 0
Flags: HW
LayerCount: 2
UndoRedoHistory
Layer: 1
Undoes
EndUndoes
Redoes
EndRedoes
EndUndoRedoHistory
Fore
SplineSet
50 -262 m 1
 291 -262 l 1
 493 1658 l 1
 252 1658 l 1
 247 1609 l 1
 422 1609 l 1
 231 -214 l 1
 56 -214 l 1
 50 -262 l 1
EndSplineSet
EndChar

StartChar: breve
Encoding: 426 728 247
Width: 744
VWidth: 0
Flags: HW
HStem: 1462 48<399 589>
VStem: 291 54<1560 1658> 675 54<1590 1658>
LayerCount: 2
UndoRedoHistory
Layer: 1
Undoes
EndUndoes
Redoes
EndRedoes
EndUndoRedoHistory
Fore
SplineSet
487 1462 m 0
 592 1462 705 1509 729 1658 c 1
 675 1658 l 1
 653 1546 570 1510 491 1510 c 0
 413 1510 338 1546 345 1658 c 1
 291 1658 l 1
 285 1509 382 1462 487 1462 c 0
EndSplineSet
EndChar

StartChar: brokenbar
Encoding: 166 166 248
Width: 387
VWidth: 0
Flags: HW
LayerCount: 2
UndoRedoHistory
Layer: 1
Undoes
EndUndoes
Redoes
EndRedoes
EndUndoRedoHistory
Fore
SplineSet
205 793 m 1
 269 793 l 1
 360 1658 l 1
 296 1658 l 1
 205 793 l 1
81 -390 m 1
 145 -390 l 1
 236 475 l 1
 172 475 l 1
 81 -390 l 1
EndSplineSet
EndChar

StartChar: bullet
Encoding: 428 8226 249
Width: 462
VWidth: 0
Flags: HW
HStem: 672 249<187 362>
VStem: 152 246<707 887>
LayerCount: 2
UndoRedoHistory
Layer: 1
Undoes
EndUndoes
Redoes
EndRedoes
EndUndoRedoHistory
Fore
SplineSet
261 672 m 0
 344 672 391 734 398 797 c 0
 404 859 370 921 287 921 c 0
 206 921 158 859 152 797 c 0
 145 734 180 672 261 672 c 0
EndSplineSet
EndChar

StartChar: c
Encoding: 99 99 250
Width: 739
VWidth: 0
Flags: HW
HStem: -20 50<237.514 453.615> 1154 50<343.787 568.249>
LayerCount: 2
UndoRedoHistory
Layer: 1
Undoes
EndUndoes
Redoes
EndRedoes
EndUndoRedoHistory
Fore
SplineSet
335 -20 m 0
 596 -20 631 178 655 413 c 2
 658 442 l 1
 594 442 l 1
 592 415 l 1
 562 135 520 30 340 30 c 0
 162 30 137 161 166 441 c 2
 196 721 l 2
 229 1034 276 1154 457 1154 c 0
 602 1154 662 1088 634 815 c 1
 630 778 l 1
 694 778 l 1
 698 817 l 2
 719 1022 705 1204 463 1204 c 0
 254 1204 171 1090 132 721 c 2
 102 442 l 2
 76 194 79 -20 335 -20 c 0
EndSplineSet
EndChar

StartChar: caron
Encoding: 430 711 252
Width: 517
VWidth: 0
Flags: HW
LayerCount: 2
UndoRedoHistory
Layer: 1
Undoes
EndUndoes
Redoes
EndRedoes
EndUndoRedoHistory
Fore
SplineSet
346 1335 m 1
 375 1335 l 1
 582 1658 l 1
 520 1658 l 1
 370 1405 l 1
 272 1658 l 1
 209 1658 l 1
 346 1335 l 1
EndSplineSet
EndChar

StartChar: cedilla
Encoding: 184 184 257
Width: 392
VWidth: 0
Flags: HW
HStem: -344 36<-20 109>
LayerCount: 2
UndoRedoHistory
Layer: 1
Undoes
EndUndoes
Redoes
EndRedoes
EndUndoRedoHistory
Fore
SplineSet
-24 -344 m 1
 144 -344 187 -305 204 -241 c 0
 219 -181 190 -103 81 -89 c 1
 90 0 l 1
 51 0 l 1
 40 -109 l 1
 130 -120 168 -166 154 -230 c 0
 142 -283 120 -308 -20 -308 c 1
 -24 -344 l 1
EndSplineSet
EndChar

StartChar: cent
Encoding: 162 162 258
Width: 769
VWidth: 0
Flags: HW
HStem: -19 49<239 300 352 452> 1154 50<346 444 495 565>
LayerCount: 2
UndoRedoHistory
Layer: 1
Undoes
EndUndoes
Redoes
EndRedoes
EndUndoRedoHistory
Fore
SplineSet
275 -256 m 1
 327 -256 l 1
 352 -20 l 1
 597 -11 631 183 655 413 c 2
 658 442 l 1
 594 442 l 1
 592 415 l 1
 562 135 520 30 340 30 c 0
 162 30 137 161 166 441 c 2
 196 721 l 2
 229 1034 276 1154 457 1154 c 0
 602 1154 662 1088 634 815 c 1
 630 778 l 1
 694 778 l 1
 698 817 l 2
 718 1012 706 1187 495 1203 c 1
 520 1436 l 1
 468 1436 l 1
 444 1204 l 1
 248 1197 169 1079 132 721 c 1
 102 442 l 1
 78 206 79 0 300 -19 c 1
 275 -256 l 1
EndSplineSet
EndChar

StartChar: circumflex
Encoding: 434 710 259
Width: 637
VWidth: 0
Flags: HW
LayerCount: 2
UndoRedoHistory
Layer: 1
Undoes
EndUndoes
Redoes
EndRedoes
EndUndoRedoHistory
Fore
SplineSet
184 1287 m 1
 229 1287 l 1
 446 1627 l 1
 591 1287 l 1
 632 1287 l 1
 500 1658 l 1
 400 1658 l 1
 184 1287 l 1
EndSplineSet
EndChar

StartChar: colon
Encoding: 58 58 260
Width: 387
VWidth: 0
Flags: HW
LayerCount: 2
UndoRedoHistory
Layer: 1
Undoes
EndUndoes
Redoes
EndRedoes
EndUndoRedoHistory
Fore
SplineSet
219 889 m 1
 299 889 l 1
 321 1090 l 1
 241 1090 l 1
 219 889 l 1
141 138 m 1
 221 138 l 1
 242 339 l 1
 162 339 l 1
 141 138 l 1
EndSplineSet
EndChar

StartChar: comma
Encoding: 44 44 261
Width: 355
VWidth: 0
Flags: HW
LayerCount: 2
UndoRedoHistory
Layer: 1
Undoes
EndUndoes
Redoes
EndRedoes
EndUndoRedoHistory
Fore
SplineSet
90 -200 m 1
 168 -139 187 -89 199 30 c 2
 218 208 l 1
 124 208 l 1
 102 0 l 1
 158 0 l 1
 149 -82 142 -109 68 -172 c 1
 90 -200 l 1
EndSplineSet
EndChar

StartChar: copyright
Encoding: 169 169 262
Width: 1765
VWidth: 0
Flags: HW
HStem: -22 50<641 1050> 242 55<718 980> 1445 55<828 1096> 1658 50<813 1222>
CounterMasks: 1 f0
LayerCount: 2
UndoRedoHistory
Layer: 1
Undoes
EndUndoes
Redoes
EndRedoes
EndUndoRedoHistory
Fore
SplineSet
841 -22 m 0
 1427 -22 1710 426 1754 843 c 0
 1797 1260 1607 1708 1023 1708 c 0
 438 1708 152 1260 109 843 c 1
 65 427 256 -22 841 -22 c 0
846 28 m 0
 315 28 126 432 170 845 c 1
 213 1259 486 1658 1017 1658 c 0
 1546 1658 1737 1259 1694 845 c 1
 1650 432 1375 28 846 28 c 0
831 242 m 0
 1121 242 1146 421 1174 681 c 1
 1179 735 l 1
 1118 735 l 1
 1113 684 l 1
 1080 373 1037 297 837 297 c 0
 640 297 606 423 639 734 c 2
 665 984 l 2
 702 1332 756 1445 957 1445 c 0
 1118 1445 1189 1405 1157 1102 c 1
 1151 1048 l 1
 1212 1048 l 1
 1218 1104 l 2
 1242 1331 1232 1500 963 1500 c 0
 731 1500 642 1394 598 984 c 1
 572 735 l 2
 543 459 547 242 831 242 c 0
EndSplineSet
EndChar

StartChar: currency
Encoding: 164 164 263
Width: 1017
VWidth: 0
Flags: HW
HStem: 428 46<400 648> 1189 21G<286 346 856 912> 1258 46<478 726>
LayerCount: 2
UndoRedoHistory
Layer: 1
Undoes
EndUndoes
Redoes
EndRedoes
EndUndoRedoHistory
Fore
SplineSet
522 474 m 0
 307 474 160 651 183 866 c 0
 206 1082 389 1258 604 1258 c 0
 820 1258 966 1082 943 866 c 0
 920 651 738 474 522 474 c 0
57 381 m 1
 236 543 l 1
 305 471 403 427 517 428 c 1
 631 427 739 471 822 543 c 1
 967 381 l 1
 1000 411 l 1
 854 573 l 1
 931 650 984 754 996 866 c 0
 1008 979 977 1082 917 1159 c 1
 1096 1321 l 1
 1069 1351 l 1
 890 1189 l 1
 822 1261 723 1305 609 1304 c 1
 495 1305 388 1261 304 1189 c 1
 159 1351 l 1
 126 1321 l 1
 272 1159 l 1
 195 1082 142 979 130 866 c 0
 118 754 149 650 210 573 c 1
 30 411 l 1
 57 381 l 1
EndSplineSet
EndChar

StartChar: d
Encoding: 100 100 264
Width: 769
VWidth: 0
Flags: HW
HStem: -20 50<232.3 432.284> 1154 50<338.053 538.432>
LayerCount: 2
UndoRedoHistory
Layer: 1
Undoes
EndUndoes
Redoes
EndRedoes
EndUndoRedoHistory
Fore
SplineSet
330 30 m 0
 168 30 136 154 172 490 c 1
 193 699 l 1
 229 1035 274 1154 443 1154 c 0
 542 1154 614 1082 653 1030 c 1
 561 152 l 1
 504 87 422 30 330 30 c 0
325 -20 m 0
 431 -20 509 45 555 96 c 1
 545 0 l 1
 609 0 l 1
 783 1658 l 1
 719 1658 l 1
 659 1087 l 1
 623 1141 556 1203 449 1204 c 1
 242 1204 167 1057 129 698 c 1
 108 494 l 2
 70 131 120 -20 325 -20 c 0
EndSplineSet
EndChar

StartChar: dagger
Encoding: 435 8224 265
Width: 646
VWidth: 0
Flags: HW
LayerCount: 2
UndoRedoHistory
Layer: 1
Undoes
EndUndoes
Redoes
EndRedoes
EndUndoRedoHistory
Fore
SplineSet
255 0 m 1
 315 0 l 1
 436 1153 l 1
 713 1153 l 1
 719 1205 l 1
 442 1205 l 1
 483 1595 l 1
 423 1595 l 1
 382 1205 l 1
 101 1205 l 1
 95 1153 l 1
 376 1153 l 1
 255 0 l 1
EndSplineSet
EndChar

StartChar: daggerdbl
Encoding: 436 8225 266
Width: 730
VWidth: 0
Flags: HW
LayerCount: 2
UndoRedoHistory
Layer: 1
Undoes
EndUndoes
Redoes
EndRedoes
EndUndoRedoHistory
Fore
SplineSet
297 0 m 1
 357 0 l 1
 414 538 l 1
 691 538 l 1
 696 590 l 1
 419 590 l 1
 476 1132 l 1
 753 1132 l 1
 758 1184 l 1
 481 1184 l 1
 525 1595 l 1
 465 1595 l 1
 421 1184 l 1
 140 1184 l 1
 135 1132 l 1
 416 1132 l 1
 359 590 l 1
 78 590 l 1
 73 538 l 1
 354 538 l 1
 297 0 l 1
EndSplineSet
EndChar

StartChar: dcroat
Encoding: 438 273 268
Width: 803
VWidth: 0
Flags: HW
HStem: -20 50<232.3 432.284> 1154 50<338.053 538.432>
LayerCount: 2
UndoRedoHistory
Layer: 1
Undoes
EndUndoes
Redoes
EndRedoes
EndUndoRedoHistory
Fore
SplineSet
330 30 m 0
 168 30 136 154 172 490 c 1
 193 699 l 1
 229 1035 274 1154 443 1154 c 0
 542 1154 614 1082 653 1030 c 1
 561 152 l 1
 504 87 422 30 330 30 c 0
325 -20 m 0
 431 -20 509 45 555 96 c 1
 545 0 l 1
 609 0 l 1
 759 1424 l 1
 872 1424 l 1
 877 1473 l 1
 764 1473 l 1
 783 1658 l 1
 719 1658 l 1
 700 1473 l 1
 549 1473 l 1
 544 1424 l 1
 695 1424 l 1
 659 1087 l 1
 623 1141 556 1203 449 1204 c 1
 242 1204 167 1057 129 698 c 1
 108 494 l 2
 70 131 120 -20 325 -20 c 0
EndSplineSet
EndChar

StartChar: degree
Encoding: 176 176 269
Width: 744
VWidth: 0
Flags: HW
HStem: 1184 46<370 558> 1633 44<407 596>
LayerCount: 2
UndoRedoHistory
Layer: 1
Undoes
EndUndoes
Redoes
EndRedoes
EndUndoRedoHistory
Fore
SplineSet
457 1184 m 0
 562 1184 710 1242 729 1431 c 1
 749 1619 614 1677 509 1677 c 0
 402 1677 256 1619 236 1431 c 1
 217 1242 352 1184 457 1184 c 0
462 1230 m 0
 375 1230 277 1279 293 1430 c 0
 309 1583 416 1633 503 1633 c 0
 592 1633 689 1583 673 1430 c 0
 657 1279 549 1230 462 1230 c 0
EndSplineSet
EndChar

StartChar: dieresis
Encoding: 168 168 270
Width: 739
VWidth: 0
Flags: HW
HStem: 1533 125
LayerCount: 2
UndoRedoHistory
Layer: 1
Undoes
EndUndoes
Redoes
EndRedoes
EndUndoRedoHistory
Fore
SplineSet
600 1533 m 1
 670 1533 l 1
 683 1658 l 1
 613 1658 l 1
 600 1533 l 1
283 1533 m 1
 353 1533 l 1
 366 1658 l 1
 296 1658 l 1
 283 1533 l 1
EndSplineSet
EndChar

StartChar: divide
Encoding: 247 247 271
Width: 665
VWidth: 0
Flags: HW
LayerCount: 2
UndoRedoHistory
Layer: 1
Undoes
EndUndoes
Redoes
EndRedoes
EndUndoRedoHistory
Fore
SplineSet
374 1105 m 1
 446 1105 l 1
 460 1239 l 1
 388 1239 l 1
 374 1105 l 1
119 833 m 1
 642 833 l 1
 648 891 l 1
 125 891 l 1
 119 833 l 1
307 463 m 1
 379 463 l 1
 393 596 l 1
 321 596 l 1
 307 463 l 1
EndSplineSet
EndChar

StartChar: dollar
Encoding: 36 36 272
Width: 889
VWidth: 0
Flags: HW
HStem: -23 56<295 422 477 590> 1625 52<433 550 607 716>
VStem: 88 57<209 387> 856 54<1267 1470>
LayerCount: 2
UndoRedoHistory
Layer: 1
Undoes
EndUndoes
Redoes
EndRedoes
EndUndoRedoHistory
Fore
SplineSet
402 -207 m 1
 457 -207 l 1
 477 -21 l 1
 664 -6 804 100 828 331 c 0
 845 495 747 643 626 782 c 2
 351 1097 l 2
 265 1197 244 1280 252 1358 c 0
 272 1547 411 1625 579 1625 c 0
 787 1625 860 1519 856 1258 c 1
 910 1267 l 1
 926 1576 802 1670 607 1677 c 1
 630 1895 l 1
 573 1895 l 1
 550 1677 l 1
 358 1667 215 1557 193 1355 c 1
 185 1271 211 1165 300 1062 c 2
 580 738 l 1
 713 586 783 473 768 329 c 0
 745 114 620 33 437 33 c 0
 205 33 155 171 145 407 c 1
 88 387 l 1
 85 138 176 -20 422 -23 c 1
 402 -207 l 1
EndSplineSet
EndChar

StartChar: dotlessi
Encoding: 440 305 274
Width: 336
VWidth: 0
Flags: HW
LayerCount: 2
UndoRedoHistory
Layer: 1
Undoes
EndUndoes
Redoes
EndRedoes
EndUndoRedoHistory
Fore
SplineSet
96 0 m 1
 160 0 l 1
 284 1184 l 1
 220 1184 l 1
 96 0 l 1
EndSplineSet
EndChar

StartChar: e
Encoding: 101 101 275
Width: 742
VWidth: 0
Flags: W
HStem: -20 50<236.16 466.414> 1154 50<345.166 565.292>
LayerCount: 2
UndoRedoHistory
Layer: 1
Undoes
EndUndoes
Redoes
EndRedoes
EndUndoRedoHistory
Fore
SplineSet
191 675 m 1
 201 775 l 1
 234 1088 318 1154 463 1154 c 0
 652 1154 655 998 630 761 c 2
 621 675 l 1
 191 675 l 1
336 -20 m 0
 552 -20 625 116 645 304 c 2
 655 395 l 1
 592 395 l 1
 582 301 l 2
 553 28 421 30 341 30 c 0
 203 30 130 95 165 430 c 2
 186 631 l 1
 677 631 l 1
 693 751 l 1
 729 1097 659 1204 469 1204 c 0
 317 1204 178 1159 136 765 c 2
 101 431 l 2
 60 42 185 -20 336 -20 c 0
EndSplineSet
EndChar

StartChar: eight
Encoding: 56 56 283
Width: 1010
VWidth: 0
Flags: HW
HStem: -25 54<332 607> 1620 58<485 776>
LayerCount: 2
UndoRedoHistory
Layer: 1
Undoes
EndUndoes
Redoes
EndRedoes
EndUndoRedoHistory
Fore
SplineSet
559 892 m 1
 345 908 283 1036 307 1265 c 0
 334 1523 443 1620 635 1620 c 0
 826 1620 917 1524 890 1265 c 0
 866 1036 775 908 559 892 c 1
468 29 m 0
 301 29 177 106 210 422 c 0
 237 679 336 813 554 843 c 1
 763 813 835 679 808 422 c 0
 775 105 635 29 468 29 c 0
462 -25 m 0
 729 -25 847 155 875 418 c 0
 914 787 739 834 643 866 c 1
 808 898 929 1026 954 1269 c 0
 977 1486 917 1678 641 1678 c 0
 364 1678 267 1492 244 1276 c 0
 219 1033 310 897 469 866 c 1
 368 834 182 788 143 418 c 0
 115 155 194 -25 462 -25 c 0
EndSplineSet
EndChar

StartChar: ellipsis
Encoding: 444 8230 284
Width: 1032
VWidth: 0
Flags: HW
HStem: 0 201
LayerCount: 2
UndoRedoHistory
Layer: 1
Undoes
EndUndoes
Redoes
EndRedoes
EndUndoRedoHistory
Fore
SplineSet
798 0 m 1
 880 0 l 1
 901 201 l 1
 819 201 l 1
 798 0 l 1
454 0 m 1
 536 0 l 1
 557 201 l 1
 475 201 l 1
 454 0 l 1
110 0 m 1
 192 0 l 1
 213 201 l 1
 131 201 l 1
 110 0 l 1
EndSplineSet
EndChar

StartChar: emdash
Encoding: 446 8212 286
Width: 1348
VWidth: 0
Flags: HW
HStem: 446 69
LayerCount: 2
UndoRedoHistory
Layer: 1
Undoes
EndUndoes
Redoes
EndRedoes
EndUndoRedoHistory
Fore
SplineSet
172 446 m 1
 1212 446 l 1
 1219 515 l 1
 179 515 l 1
 172 446 l 1
EndSplineSet
EndChar

StartChar: endash
Encoding: 447 8211 287
Width: 904
VWidth: 0
Flags: HW
HStem: 446 69
LayerCount: 2
UndoRedoHistory
Layer: 1
Undoes
EndUndoes
Redoes
EndRedoes
EndUndoRedoHistory
Fore
SplineSet
172 446 m 1
 769 446 l 1
 776 515 l 1
 179 515 l 1
 172 446 l 1
EndSplineSet
EndChar

StartChar: eng
Encoding: 448 331 288
Width: 794
VWidth: 0
Flags: HW
HStem: -296 57<278 431.763> 1154 50<426.342 607.316>
LayerCount: 2
UndoRedoHistory
Layer: 1
Undoes
EndUndoes
Redoes
EndRedoes
EndUndoRedoHistory
Fore
SplineSet
272 -296 m 1
 283 -296 l 2
 431 -296 583 -255 609 -12 c 2
 709 939 l 2
 732 1157 638 1204 547 1204 c 0
 442 1204 336 1147 253 1053 c 1
 266 1184 l 1
 202 1184 l 1
 78 0 l 1
 142 0 l 1
 247 1000 l 1
 335 1092 438 1154 530 1154 c 0
 605 1154 662 1117 645 948 c 2
 544 -10 l 2
 530 -146 482 -239 278 -239 c 1
 272 -296 l 1
EndSplineSet
EndChar

StartChar: equal
Encoding: 61 61 290
Width: 782
VWidth: 0
Flags: HW
HStem: 598 381
LayerCount: 2
UndoRedoHistory
Layer: 1
Undoes
EndUndoes
Redoes
EndRedoes
EndUndoRedoHistory
Fore
SplineSet
152 918 m 1
 742 918 l 1
 749 979 l 1
 159 979 l 1
 152 918 l 1
119 598 m 1
 709 598 l 1
 715 659 l 1
 125 659 l 1
 119 598 l 1
EndSplineSet
EndChar

StartChar: estimated
Encoding: 450 8494 291
Width: 773
VWidth: 0
Flags: HW
HStem: -20 50<248 487> 1122 50<355 584>
VStem: 610 53<183 304>
LayerCount: 2
UndoRedoHistory
Layer: 1
Undoes
EndUndoes
Redoes
EndRedoes
EndUndoRedoHistory
Fore
SplineSet
232 663 m 1
 243 773 l 1
 276 1086 333 1122 478 1122 c 0
 667 1122 653 996 628 759 c 2
 618 663 l 1
 232 663 l 1
354 -20 m 0
 570 -20 643 116 663 304 c 2
 673 395 l 1
 620 395 l 1
 610 301 l 2
 581 28 439 30 359 30 c 0
 221 30 169 65 204 400 c 2
 227 619 l 1
 694 619 l 1
 708 719 l 1
 744 1065 673 1172 483 1172 c 0
 331 1172 192 1127 151 733 c 2
 119 431 l 2
 78 42 203 -20 354 -20 c 0
EndSplineSet
EndChar

StartChar: eth
Encoding: 240 240 292
Width: 845
VWidth: 0
Flags: HW
HStem: -24 54<293.574 507.036> 1089 50<410.615 641.384> 1655 47<309.95 410.609>
VStem: 658 55<1258.01 1373>
LayerCount: 2
UndoRedoHistory
Layer: 1
Undoes
EndUndoes
Redoes
EndRedoes
EndUndoRedoHistory
Fore
SplineSet
189 504 m 0
 236 950 347 1089 510 1089 c 0
 567 1089 632 1072 701 1045 c 1
 703 1021 701 778 686 633 c 0
 638 178 590 30 396 30 c 0
 249 30 151 146 189 504 c 0
733 517 m 2
 746 641 l 2
 789 1045 733 1321 713 1390 c 1
 835 1421 l 1
 841 1472 l 1
 702 1438 l 1
 639 1628 487 1687 313 1702 c 1
 303 1655 l 1
 479 1632 602 1566 645 1420 c 1
 463 1374 l 1
 458 1324 l 1
 658 1373 l 1
 684 1309 695 1178 701 1091 c 1
 635 1121 568 1139 504 1139 c 0
 333 1139 183 1009 142 626 c 2
 124 456 l 2
 92 161 171 -24 388 -24 c 0
 623 -24 695 153 733 517 c 2
EndSplineSet
EndChar

StartChar: exclam
Encoding: 33 33 293
Width: 396
VWidth: 0
Flags: HW
LayerCount: 2
UndoRedoHistory
Layer: 1
Undoes
EndUndoes
Redoes
EndRedoes
EndUndoRedoHistory
Fore
SplineSet
184 357 m 1
 207 357 l 1
 376 1658 l 1
 291 1658 l 1
 184 357 l 1
114 0 m 1
 198 0 l 1
 211 121 l 1
 127 121 l 1
 114 0 l 1
EndSplineSet
EndChar

StartChar: exclamdown
Encoding: 161 161 294
Width: 396
VWidth: 0
Flags: HW
VStem: 237 24<755 865>
LayerCount: 2
UndoRedoHistory
Layer: 1
Undoes
EndUndoes
Redoes
EndRedoes
EndUndoRedoHistory
Fore
SplineSet
234 1101 m 1
 318 1101 l 1
 330 1222 l 1
 246 1222 l 1
 234 1101 l 1
68 -436 m 1
 153 -436 l 1
 261 865 l 1
 237 865 l 1
 68 -436 l 1
EndSplineSet
EndChar

StartChar: f
Encoding: 102 102 295
Width: 500
VWidth: 0
Flags: HW
HStem: 1564 53<415.609 585.8>
LayerCount: 2
UndoRedoHistory
Layer: 1
Undoes
EndUndoes
Redoes
EndRedoes
EndUndoRedoHistory
Fore
SplineSet
160 0 m 1
 224 0 l 1
 344 1142 l 1
 549 1142 l 1
 553 1184 l 1
 348 1184 l 1
 368 1372 l 2
 383 1516 402 1564 497 1564 c 0
 524 1564 558 1558 585 1552 c 1
 590 1602 l 1
 568 1611 523 1617 497 1617 c 0
 335 1617 318 1506 305 1384 c 2
 284 1184 l 1
 117 1184 l 1
 113 1142 l 1
 280 1142 l 1
 160 0 l 1
EndSplineSet
EndChar

StartChar: five
Encoding: 53 53 296
Width: 1010
VWidth: 0
Flags: HW
HStem: -20 50<360 623> 974 53<474 720>
VStem: 193 62<123 383>
LayerCount: 2
UndoRedoHistory
Layer: 1
Undoes
EndUndoes
Redoes
EndRedoes
EndUndoRedoHistory
Fore
SplineSet
480 -20 m 0
 705 -20 844 111 884 492 c 0
 922 857 837 1027 619 1027 c 0
 473 1027 383 961 334 895 c 1
 410 1614 l 1
 913 1614 l 1
 922 1658 l 1
 364 1658 l 1
 278 834 l 1
 327 834 l 1
 422 950 514 974 595 974 c 0
 765 974 866 890 823 489 c 1
 788 149 691 30 492 30 c 0
 308 30 227 116 255 383 c 1
 193 383 l 1
 164 109 254 -20 480 -20 c 0
EndSplineSet
EndChar

StartChar: florin
Encoding: 451 402 297
Width: 750
VWidth: 0
Flags: HW
HStem: -302 53<-88.872 86.6783> 1564 53<679.898 855.312>
LayerCount: 2
UndoRedoHistory
Layer: 1
Undoes
EndUndoes
Redoes
EndRedoes
EndUndoRedoHistory
Fore
SplineSet
-7 -302 m 0
 155 -302 189 -191 222 -69 c 2
 544 1142 l 1
 749 1142 l 1
 753 1184 l 1
 555 1184 l 1
 605 1372 l 2
 644 1516 670 1564 765 1564 c 0
 792 1564 826 1558 851 1552 c 1
 865 1602 l 1
 844 1611 800 1617 774 1617 c 0
 612 1617 577 1506 545 1384 c 2
 491 1184 l 1
 317 1184 l 1
 313 1142 l 1
 480 1142 l 1
 161 -57 l 2
 123 -201 96 -249 1 -249 c 0
 -26 -249 -59 -243 -85 -237 c 1
 -98 -287 l 1
 -78 -296 -33 -302 -7 -302 c 0
EndSplineSet
EndChar

StartChar: foundryicon
Encoding: 452 -1 298
Width: 1510
VWidth: 0
Flags: HW
LayerCount: 2
UndoRedoHistory
Layer: 1
Undoes
EndUndoes
Redoes
EndRedoes
EndUndoRedoHistory
Fore
SplineSet
280 277 m 1
 773 604 l 1
 1208 277 l 1
 1095 819 l 1
 1593 1168 l 1
 1021 1168 l 1
 890 1710 l 1
 655 1168 l 1
 83 1168 l 1
 505 819 l 1
 280 277 l 1
EndSplineSet
EndChar

StartChar: four
Encoding: 52 52 299
Width: 1010
VWidth: 0
Flags: HW
LayerCount: 2
UndoRedoHistory
Layer: 1
Undoes
EndUndoes
Redoes
EndRedoes
EndUndoRedoHistory
Fore
SplineSet
223 597 m 1
 777 1549 l 1
 677 597 l 1
 223 597 l 1
614 0 m 1
 678 0 l 1
 735 539 l 1
 929 539 l 1
 935 597 l 1
 741 597 l 1
 852 1658 l 1
 784 1658 l 1
 150 587 l 1
 145 539 l 1
 671 539 l 1
 614 0 l 1
EndSplineSet
EndChar

StartChar: fraction
Encoding: 453 8260 300
Width: 410
VWidth: 0
Flags: HW
LayerCount: 2
UndoRedoHistory
Layer: 1
Undoes
EndUndoes
Redoes
EndRedoes
EndUndoRedoHistory
Fore
SplineSet
-40 0 m 1
 16 0 l 1
 544 1658 l 1
 490 1658 l 1
 -40 0 l 1
EndSplineSet
EndChar

StartChar: g
Encoding: 103 103 301
Width: 873
VWidth: 0
Flags: HW
HStem: -415 53<130.143 488.04> 382 49<318.181 540.42> 1154 50<402.091 603.937>
LayerCount: 2
UndoRedoHistory
Layer: 1
Undoes
EndUndoes
Redoes
EndRedoes
EndUndoRedoHistory
Fore
SplineSet
428 431 m 0
 193 431 187 683 199 802 c 0
 208 887 284 1154 501 1154 c 0
 717 1154 740 909 728 801 c 0
 716 685 662 431 428 431 c 0
310 -362 m 0
 137 -362 10 -314 23 -195 c 0
 36 -67 187 19 280 67 c 1
 384 42 l 2
 632 -17 672 -75 662 -168 c 0
 648 -305 485 -362 310 -362 c 0
304 -415 m 0
 491 -415 703 -341 721 -167 c 0
 736 -24 618 35 425 87 c 0
 377 100 308 116 232 137 c 0
 180 151 137 165 138 173 c 0
 144 228 246 341 295 406 c 1
 332 390 370 382 423 382 c 0
 650 382 768 567 792 800 c 0
 797 843 790 941 775 995 c 1
 829 1059 894 1112 976 1132 c 1
 959 1190 l 1
 931 1180 l 2
 865 1156 797 1099 756 1035 c 1
 721 1112 659 1204 506 1204 c 0
 267 1204 152 963 135 802 c 0
 121 670 138 518 258 429 c 1
 205 367 85 234 77 158 c 0
 73 121 173 94 223 83 c 1
 110 27 -23 -81 -35 -196 c 0
 -48 -327 46 -415 304 -415 c 0
EndSplineSet
EndChar

StartChar: gcommaaccent
Encoding: 456 291 304
Width: 901
VWidth: 0
Flags: HW
HStem: -415 53<121.143 479.04> 382 49<309.181 531.42> 1154 50<393.091 594.937>
VStem: 592 97<1597 1627>
LayerCount: 2
UndoRedoHistory
Layer: 1
Undoes
EndUndoes
Redoes
EndRedoes
EndUndoRedoHistory
Fore
SplineSet
419 431 m 0
 184 431 178 683 190 802 c 0
 199 887 275 1154 492 1154 c 0
 708 1154 731 909 719 801 c 0
 707 685 653 431 419 431 c 0
301 -362 m 0
 128 -362 1 -314 14 -195 c 0
 27 -67 178 19 271 67 c 1
 375 42 l 2
 623 -17 663 -75 653 -168 c 0
 639 -305 476 -362 301 -362 c 0
592 1502 m 1
 689 1502 l 1
 702 1627 l 1
 646 1627 l 1
 649 1658 665 1756 738 1819 c 1
 725 1836 l 1
 647 1775 614 1716 602 1597 c 2
 592 1502 l 1
295 -415 m 0
 482 -415 694 -341 712 -167 c 0
 727 -24 609 35 416 87 c 0
 368 100 299 116 223 137 c 0
 171 151 128 165 129 173 c 0
 135 228 237 341 286 406 c 1
 323 390 361 382 414 382 c 0
 641 382 759 567 783 800 c 0
 788 843 781 941 766 995 c 1
 820 1059 885 1112 967 1132 c 1
 950 1190 l 1
 922 1180 l 2
 856 1156 788 1099 747 1035 c 1
 712 1112 650 1204 497 1204 c 0
 258 1204 143 963 126 802 c 0
 112 670 129 518 249 429 c 1
 196 367 76 234 68 158 c 0
 64 121 164 94 214 83 c 1
 101 27 -32 -81 -44 -196 c 0
 -57 -327 37 -415 295 -415 c 0
EndSplineSet
EndChar

StartChar: germandbls
Encoding: 223 223 306
Width: 967
VWidth: 0
Flags: HW
HStem: -24 55<269 469.301> 926 55<532 655.332> 1659 48<460.504 711.009>
LayerCount: 2
UndoRedoHistory
Layer: 1
Undoes
EndUndoes
Redoes
EndRedoes
EndUndoRedoHistory
Fore
SplineSet
263 -24 m 1
 762 -24 868 283 890 498 c 1
 911 692 877 907 646 956 c 1
 786 988 862 1120 883 1319 c 0
 911 1586 789 1707 605 1707 c 0
 394 1707 268 1639 227 1249 c 2
 96 0 l 1
 160 0 l 1
 291 1250 l 2
 330 1616 441 1659 595 1659 c 0
 770 1659 845 1548 821 1318 c 0
 801 1132 727 981 532 981 c 1
 519 926 l 1
 804 926 851 699 830 491 c 0
 810 301 707 31 269 31 c 1
 263 -24 l 1
EndSplineSet
EndChar

StartChar: grave
Encoding: 96 96 307
Width: 372
VWidth: 0
Flags: HW
HStem: 1264 394
LayerCount: 2
UndoRedoHistory
Layer: 1
Undoes
EndUndoes
Redoes
EndRedoes
EndUndoRedoHistory
Fore
SplineSet
330 1264 m 1
 366 1264 l 1
 297 1658 l 1
 232 1658 l 1
 330 1264 l 1
EndSplineSet
EndChar

StartChar: gravecomb
Encoding: 458 768 308
Width: 0
VWidth: 0
Flags: HW
HStem: 1264 394
LayerCount: 2
UndoRedoHistory
Layer: 1
Undoes
EndUndoes
Redoes
EndRedoes
EndUndoRedoHistory
Fore
SplineSet
143 1264 m 1
 179 1264 l 1
 110 1658 l 1
 45 1658 l 1
 143 1264 l 1
EndSplineSet
EndChar

StartChar: greater
Encoding: 62 62 309
Width: 719
VWidth: 0
Flags: HW
LayerCount: 2
UndoRedoHistory
Layer: 1
Undoes
EndUndoes
Redoes
EndRedoes
EndUndoRedoHistory
Fore
SplineSet
97 191 m 1
 688 636 l 1
 694 695 l 1
 195 1118 l 1
 187 1046 l 1
 637 666 l 1
 105 265 l 1
 97 191 l 1
EndSplineSet
EndChar

StartChar: greaterequal
Encoding: 459 8805 310
Width: 673
VWidth: 0
Flags: HW
LayerCount: 2
UndoRedoHistory
Layer: 1
Undoes
EndUndoes
Redoes
EndRedoes
EndUndoRedoHistory
Fore
SplineSet
22 0 m 1
 571 0 l 1
 577 54 l 1
 28 54 l 1
 22 0 l 1
42 191 m 1
 633 636 l 1
 639 695 l 1
 140 1118 l 1
 132 1046 l 1
 582 666 l 1
 50 265 l 1
 42 191 l 1
EndSplineSet
EndChar

StartChar: guillemotleft
Encoding: 171 171 311
Width: 798
VWidth: 0
Flags: HW
LayerCount: 2
UndoRedoHistory
Layer: 1
Undoes
EndUndoes
Redoes
EndRedoes
EndUndoRedoHistory
Fore
SplineSet
686 292 m 1
 695 378 l 1
 454 711 l 1
 764 1041 l 1
 773 1127 l 1
 381 718 l 1
 380 702 l 1
 686 292 l 1
431 292 m 1
 440 378 l 1
 199 715 l 1
 509 1041 l 1
 518 1127 l 1
 127 718 l 1
 126 702 l 1
 431 292 l 1
EndSplineSet
EndChar

StartChar: guillemotright
Encoding: 187 187 312
Width: 795
VWidth: 0
Flags: HW
LayerCount: 2
UndoRedoHistory
Layer: 1
Undoes
EndUndoes
Redoes
EndRedoes
EndUndoRedoHistory
Fore
SplineSet
349 292 m 1
 740 701 l 1
 741 717 l 1
 436 1127 l 1
 427 1041 l 1
 668 704 l 1
 358 378 l 1
 349 292 l 1
94 292 m 1
 486 701 l 1
 487 717 l 1
 181 1127 l 1
 172 1041 l 1
 413 708 l 1
 103 378 l 1
 94 292 l 1
EndSplineSet
EndChar

StartChar: guilsinglleft
Encoding: 460 8249 313
Width: 798
VWidth: 0
Flags: HW
LayerCount: 2
UndoRedoHistory
Layer: 1
Undoes
EndUndoes
Redoes
EndRedoes
EndUndoRedoHistory
Fore
SplineSet
686 292 m 1
 695 378 l 1
 454 711 l 1
 764 1041 l 1
 773 1127 l 1
 381 718 l 1
 380 702 l 1
 686 292 l 1
EndSplineSet
EndChar

StartChar: guilsinglright
Encoding: 461 8250 314
Width: 708
VWidth: 0
Flags: HW
LayerCount: 2
UndoRedoHistory
Layer: 1
Undoes
EndUndoes
Redoes
EndRedoes
EndUndoRedoHistory
Fore
SplineSet
180 292 m 1
 572 701 l 1
 573 717 l 1
 267 1127 l 1
 258 1041 l 1
 499 708 l 1
 189 378 l 1
 180 292 l 1
EndSplineSet
EndChar

StartChar: h
Encoding: 104 104 315
Width: 758
VWidth: 0
Flags: HW
HStem: 1154 50<424.606 604.316>
LayerCount: 2
UndoRedoHistory
Layer: 1
Undoes
EndUndoes
Redoes
EndRedoes
EndUndoRedoHistory
Fore
SplineSet
78 0 m 1
 142 0 l 1
 247 1004 l 1
 334 1093 436 1154 527 1154 c 0
 602 1154 659 1117 642 948 c 2
 542 0 l 1
 607 0 l 1
 706 939 l 2
 729 1157 635 1204 544 1204 c 0
 440 1204 336 1148 253 1057 c 1
 316 1658 l 1
 252 1658 l 1
 78 0 l 1
EndSplineSet
EndChar

StartChar: hbar
Encoding: 462 295 316
Width: 756
VWidth: 0
Flags: HW
HStem: 1154 50<422.606 602.316>
LayerCount: 2
UndoRedoHistory
Layer: 1
Undoes
EndUndoes
Redoes
EndRedoes
EndUndoRedoHistory
Fore
SplineSet
76 0 m 1
 140 0 l 1
 245 1004 l 1
 332 1093 434 1154 525 1154 c 0
 600 1154 657 1117 640 948 c 2
 540 0 l 1
 605 0 l 1
 704 939 l 2
 727 1157 633 1204 542 1204 c 0
 438 1204 334 1148 251 1057 c 1
 292 1445 l 1
 531 1445 l 1
 536 1494 l 1
 297 1494 l 1
 314 1658 l 1
 250 1658 l 1
 233 1494 l 1
 97 1494 l 1
 92 1445 l 1
 228 1445 l 1
 76 0 l 1
EndSplineSet
EndChar

StartChar: hungarumlaut
Encoding: 464 733 318
Width: 517
VWidth: 0
Flags: HW
HStem: 1388 300
LayerCount: 2
UndoRedoHistory
Layer: 1
Undoes
EndUndoes
Redoes
EndRedoes
EndUndoRedoHistory
Fore
SplineSet
380 1388 m 1
 423 1388 l 1
 608 1688 l 1
 520 1688 l 1
 380 1388 l 1
231 1388 m 1
 271 1388 l 1
 420 1688 l 1
 339 1688 l 1
 231 1388 l 1
EndSplineSet
EndChar

StartChar: hyphen
Encoding: 45 45 319
Width: 549
VWidth: 0
Flags: HW
HStem: 701 59
LayerCount: 2
UndoRedoHistory
Layer: 1
Undoes
EndUndoes
Redoes
EndRedoes
EndUndoRedoHistory
Fore
SplineSet
104 701 m 1
 513 701 l 1
 519 760 l 1
 110 760 l 1
 104 701 l 1
EndSplineSet
EndChar

StartChar: i
Encoding: 105 105 320
Width: 356
VWidth: 0
Flags: HW
LayerCount: 2
UndoRedoHistory
Layer: 1
Undoes
EndUndoes
Redoes
EndRedoes
EndUndoRedoHistory
Fore
SplineSet
238 1331 m 1
 302 1331 l 1
 320 1503 l 1
 256 1503 l 1
 238 1331 l 1
98 0 m 1
 162 0 l 1
 286 1184 l 1
 222 1184 l 1
 98 0 l 1
EndSplineSet
EndChar

StartChar: infinity
Encoding: 468 8734 328
Width: 1208
VWidth: 0
Flags: HW
HStem: 552 53<191 398 862 1064> 1000 53<226 435 899 1099>
LayerCount: 2
UndoRedoHistory
Layer: 1
Undoes
EndUndoes
Redoes
EndRedoes
EndUndoRedoHistory
Fore
SplineSet
964 605 m 0
 858 605 795 672 685 803 c 1
 822 933 899 1000 1005 1000 c 0
 1125 1000 1170 918 1158 803 c 0
 1146 688 1084 605 964 605 c 0
292 605 m 0
 172 605 125 672 138 802 c 0
 152 932 213 1000 333 1000 c 0
 439 1000 501 932 612 803 c 1
 474 673 398 605 292 605 c 0
290 552 m 0
 402 552 492 617 645 764 c 1
 770 621 841 552 953 552 c 0
 1103 552 1191 650 1208 803 c 0
 1224 955 1157 1053 1006 1053 c 0
 894 1053 808 984 653 841 c 1
 531 988 455 1053 343 1053 c 0
 192 1053 104 955 88 802 c 0
 72 649 139 552 290 552 c 0
EndSplineSet
EndChar

StartChar: integral
Encoding: 469 8747 329
Width: 500
VWidth: 0
Flags: HW
HStem: -389 53<-71 99> 1627 53<423 593>
VStem: -70 662
LayerCount: 2
UndoRedoHistory
Layer: 1
Undoes
EndUndoes
Redoes
EndRedoes
EndUndoRedoHistory
Fore
SplineSet
18 -389 m 0
 180 -389 195 -278 208 -156 c 2
 375 1435 l 2
 390 1579 409 1627 504 1627 c 0
 531 1627 564 1621 592 1615 c 1
 597 1665 l 1
 575 1674 530 1680 504 1680 c 0
 342 1680 327 1569 314 1447 c 2
 147 -144 l 2
 132 -288 113 -336 18 -336 c 0
 -9 -336 -43 -330 -70 -324 c 1
 -75 -374 l 1
 -53 -383 -8 -389 18 -389 c 0
EndSplineSet
EndChar

StartChar: j
Encoding: 106 106 332
Width: 391
VWidth: 0
Flags: HW
HStem: -324 58<-63 60.2985>
LayerCount: 2
UndoRedoHistory
Layer: 1
Undoes
EndUndoes
Redoes
EndRedoes
EndUndoRedoHistory
Fore
SplineSet
275 1331 m 1
 339 1331 l 1
 357 1503 l 1
 293 1503 l 1
 275 1331 l 1
-103 -324 m 1
 -63 -324 l 2
 80 -324 171 -268 191 -76 c 2
 323 1184 l 1
 259 1184 l 1
 127 -75 l 2
 118 -164 109 -266 -54 -266 c 2
 -97 -266 l 1
 -103 -324 l 1
EndSplineSet
EndChar

StartChar: k
Encoding: 107 107 334
Width: 747
VWidth: 0
Flags: HW
LayerCount: 2
UndoRedoHistory
Layer: 1
Undoes
EndUndoes
Redoes
EndRedoes
EndUndoRedoHistory
Fore
SplineSet
78 0 m 1
 142 0 l 1
 188 440 l 1
 405 690 l 1
 616 0 l 1
 681 0 l 1
 455 735 l 1
 827 1184 l 1
 754 1184 l 1
 197 523 l 1
 316 1658 l 1
 252 1658 l 1
 78 0 l 1
EndSplineSet
EndChar

StartChar: kgreenlandic
Encoding: 474 312 336
Width: 825
VWidth: 0
Flags: HW
LayerCount: 2
UndoRedoHistory
Layer: 1
Undoes
EndUndoes
Redoes
EndRedoes
EndUndoRedoHistory
Fore
SplineSet
95 0 m 1
 159 0 l 1
 206 452 l 1
 391 675 l 1
 628 0 l 1
 695 0 l 1
 443 717 l 1
 811 1184 l 1
 737 1184 l 1
 214 525 l 1
 283 1184 l 1
 219 1184 l 1
 95 0 l 1
EndSplineSet
EndChar

StartChar: l
Encoding: 108 108 337
Width: 344
VWidth: 0
Flags: HW
LayerCount: 2
UndoRedoHistory
Layer: 1
Undoes
EndUndoes
Redoes
EndRedoes
EndUndoRedoHistory
Fore
SplineSet
100 0 m 1
 164 0 l 1
 338 1658 l 1
 274 1658 l 1
 100 0 l 1
EndSplineSet
EndChar

StartChar: less
Encoding: 60 60 342
Width: 719
VWidth: 0
Flags: HW
LayerCount: 2
UndoRedoHistory
Layer: 1
Undoes
EndUndoes
Redoes
EndRedoes
EndUndoRedoHistory
Fore
SplineSet
582 191 m 1
 590 263 l 1
 140 643 l 1
 672 1044 l 1
 680 1118 l 1
 89 673 l 1
 83 614 l 1
 582 191 l 1
EndSplineSet
EndChar

StartChar: lessequal
Encoding: 479 8804 343
Width: 719
VWidth: 0
Flags: HW
LayerCount: 2
UndoRedoHistory
Layer: 1
Undoes
EndUndoes
Redoes
EndRedoes
EndUndoRedoHistory
Fore
SplineSet
20 0 m 1
 569 0 l 1
 575 54 l 1
 26 54 l 1
 20 0 l 1
582 191 m 1
 590 263 l 1
 140 643 l 1
 672 1044 l 1
 680 1118 l 1
 89 673 l 1
 83 614 l 1
 582 191 l 1
EndSplineSet
EndChar

StartChar: logicalnot
Encoding: 172 172 344
Width: 684
VWidth: 0
Flags: HW
HStem: 606 289
LayerCount: 2
UndoRedoHistory
Layer: 1
Undoes
EndUndoes
Redoes
EndRedoes
EndUndoRedoHistory
Fore
SplineSet
582 606 m 1
 644 606 l 1
 674 895 l 1
 139 895 l 1
 133 836 l 1
 606 836 l 1
 582 606 l 1
EndSplineSet
EndChar

StartChar: lozenge
Encoding: 480 9674 345
Width: 800
VWidth: 0
Flags: HW
LayerCount: 2
UndoRedoHistory
Layer: 1
Undoes
EndUndoes
Redoes
EndRedoes
EndUndoRedoHistory
Fore
SplineSet
371 50 m 1
 171 592 l 1
 473 1134 l 1
 676 592 l 1
 371 50 l 1
339 0 m 1
 395 0 l 1
 734 592 l 1
 505 1184 l 1
 449 1184 l 1
 110 592 l 1
 339 0 l 1
EndSplineSet
EndChar

StartChar: lslash
Encoding: 481 322 346
Width: 488
VWidth: 0
Flags: HW
LayerCount: 2
UndoRedoHistory
Layer: 1
Undoes
EndUndoes
Redoes
EndRedoes
EndUndoRedoHistory
Fore
SplineSet
168 0 m 1
 232 0 l 1
 339 1017 l 1
 471 1090 l 1
 477 1154 l 1
 346 1081 l 1
 406 1658 l 1
 342 1658 l 1
 278 1044 l 1
 149 973 l 1
 143 909 l 1
 271 980 l 1
 168 0 l 1
EndSplineSet
EndChar

StartChar: m
Encoding: 109 109 347
Width: 1228
VWidth: 0
Flags: HW
HStem: 1154 50<426.342 608.603 893.025 1074.32>
LayerCount: 2
UndoRedoHistory
Layer: 1
Undoes
EndUndoes
Redoes
EndRedoes
EndUndoRedoHistory
Fore
SplineSet
78 0 m 1
 142 0 l 1
 247 1000 l 1
 335 1092 438 1154 530 1154 c 0
 605 1154 662 1117 645 948 c 2
 545 0 l 1
 610 0 l 1
 709 939 l 2
 711 960 712 980 712 998 c 1
 800 1091 904 1154 997 1154 c 0
 1072 1154 1129 1117 1112 948 c 2
 1012 0 l 1
 1077 0 l 1
 1176 939 l 2
 1199 1157 1105 1204 1014 1204 c 0
 905 1204 795 1142 710 1042 c 1
 697 1173 621 1204 547 1204 c 0
 442 1204 336 1147 253 1053 c 1
 266 1184 l 1
 202 1184 l 1
 78 0 l 1
EndSplineSet
EndChar

StartChar: macron
Encoding: 175 175 348
Width: 817
VWidth: 0
Flags: HW
HStem: 1606 52
LayerCount: 2
UndoRedoHistory
Layer: 1
Undoes
EndUndoes
Redoes
EndRedoes
EndUndoRedoHistory
Fore
SplineSet
371 1606 m 1
 704 1606 l 1
 709 1658 l 1
 376 1658 l 1
 371 1606 l 1
EndSplineSet
EndChar

StartChar: minus
Encoding: 482 8722 349
Width: 669
VWidth: 0
Flags: HW
HStem: 734 54
LayerCount: 2
UndoRedoHistory
Layer: 1
Undoes
EndUndoes
Redoes
EndRedoes
EndUndoRedoHistory
Fore
SplineSet
97 734 m 1
 646 734 l 1
 652 788 l 1
 103 788 l 1
 97 734 l 1
EndSplineSet
EndChar

StartChar: mu
Encoding: 181 181 350
Width: 807
VWidth: 0
Flags: HW
HStem: -20 50<192.377 374.411>
LayerCount: 2
UndoRedoHistory
Layer: 1
Undoes
EndUndoes
Redoes
EndRedoes
EndUndoRedoHistory
Fore
SplineSet
30 -350 m 1
 95 -350 l 1
 135 26 l 1
 167 -9 211 -20 255 -20 c 0
 366 -20 478 44 564 148 c 1
 548 0 l 1
 612 0 l 1
 736 1184 l 1
 672 1184 l 1
 569 200 l 1
 479 100 369 30 271 30 c 0
 196 30 139 67 157 236 c 2
 256 1184 l 1
 191 1184 l 1
 30 -350 l 1
EndSplineSet
EndChar

StartChar: multiply
Encoding: 215 215 351
Width: 648
VWidth: 0
Flags: HW
LayerCount: 2
UndoRedoHistory
Layer: 1
Undoes
EndUndoes
Redoes
EndRedoes
EndUndoRedoHistory
Fore
SplineSet
114 527 m 1
 363 752 l 1
 564 527 l 1
 605 564 l 1
 404 789 l 1
 653 1014 l 1
 619 1049 l 1
 371 825 l 1
 169 1049 l 1
 129 1014 l 1
 330 789 l 1
 81 564 l 1
 114 527 l 1
EndSplineSet
EndChar

StartChar: n
Encoding: 110 110 352
Width: 761
VWidth: 0
Flags: W
HStem: 1154 50<426.342 607.316>
LayerCount: 2
UndoRedoHistory
Layer: 1
Undoes
EndUndoes
Redoes
EndRedoes
EndUndoRedoHistory
Fore
SplineSet
78 0 m 1
 142 0 l 1
 247 1000 l 1
 335 1092 438 1154 530 1154 c 0
 605 1154 662 1117 645 948 c 2
 545 0 l 1
 610 0 l 1
 709 939 l 2
 732 1157 638 1204 547 1204 c 0
 442 1204 336 1147 253 1053 c 1
 266 1184 l 1
 202 1184 l 1
 78 0 l 1
EndSplineSet
EndChar

StartChar: nine
Encoding: 57 57 357
Width: 1010
VWidth: 0
Flags: HW
HStem: -24 54<333 629> 702 55<383 720> 1622 56<486 784>
VStem: 174 64<113 380>
CounterMasks: 1 e0
LayerCount: 2
UndoRedoHistory
Layer: 1
Undoes
EndUndoes
Redoes
EndRedoes
EndUndoRedoHistory
Fore
SplineSet
549 757 m 0
 296 757 256 850 295 1215 c 1
 330 1552 458 1622 643 1622 c 0
 823 1622 920 1555 879 1165 c 2
 844 830 l 1
 795 804 690 757 549 757 c 0
479 -24 m 0
 719 -24 833 116 863 398 c 2
 946 1189 l 2
 982 1534 900 1678 649 1678 c 0
 382 1678 258 1526 226 1217 c 0
 182 800 265 702 533 702 c 0
 691 702 796 756 839 779 c 1
 798 390 l 2
 766 90 650 30 488 30 c 0
 278 30 209 103 238 380 c 1
 179 380 l 1
 174 336 l 1
 148 87 240 -24 479 -24 c 0
EndSplineSet
EndChar

StartChar: notequal
Encoding: 487 8800 358
Width: 822
VWidth: 0
Flags: HW
LayerCount: 2
UndoRedoHistory
Layer: 1
Undoes
EndUndoes
Redoes
EndRedoes
EndUndoRedoHistory
Fore
SplineSet
108 0 m 1
 169 0 l 1
 413 598 l 1
 709 598 l 1
 715 659 l 1
 438 659 l 1
 544 918 l 1
 742 918 l 1
 749 979 l 1
 569 979 l 1
 846 1658 l 1
 786 1658 l 1
 508 979 l 1
 159 979 l 1
 152 918 l 1
 484 918 l 1
 378 659 l 1
 125 659 l 1
 119 598 l 1
 353 598 l 1
 108 0 l 1
EndSplineSet
EndChar

StartChar: numbersign
Encoding: 35 35 360
Width: 901
VWidth: 0
Flags: HW
LayerCount: 2
UndoRedoHistory
Layer: 1
Undoes
EndUndoes
Redoes
EndRedoes
EndUndoRedoHistory
Fore
SplineSet
348 646 m 1
 457 1048 l 1
 684 1048 l 1
 575 646 l 1
 348 646 l 1
116 0 m 1
 172 0 l 1
 335 601 l 1
 562 601 l 1
 399 0 l 1
 455 0 l 1
 618 601 l 1
 781 601 l 1
 786 646 l 1
 631 646 l 1
 740 1048 l 1
 879 1048 l 1
 884 1093 l 1
 753 1093 l 1
 906 1658 l 1
 850 1658 l 1
 697 1093 l 1
 470 1093 l 1
 623 1658 l 1
 567 1658 l 1
 414 1093 l 1
 234 1093 l 1
 229 1048 l 1
 401 1048 l 1
 292 646 l 1
 136 646 l 1
 131 601 l 1
 279 601 l 1
 116 0 l 1
EndSplineSet
EndChar

StartChar: o
Encoding: 111 111 361
Width: 750
VWidth: 0
Flags: W
HStem: -20 50<232.359 450.434> 1154 50<344.023 562.111>
LayerCount: 2
UndoRedoHistory
Layer: 1
Undoes
EndUndoes
Redoes
EndRedoes
EndUndoRedoHistory
Fore
SplineSet
333 -20 m 0
 558 -20 627 128 660 437 c 2
 693 747 l 2
 725 1056 687 1204 462 1204 c 0
 237 1204 167 1053 135 747 c 2
 102 437 l 2
 69 128 108 -20 333 -20 c 0
338 30 m 0
 147 30 138 171 166 437 c 2
 199 747 l 1
 226 1013 265 1154 456 1154 c 0
 647 1154 656 1013 629 747 c 1
 596 437 l 2
 568 171 529 30 338 30 c 0
EndSplineSet
EndChar

StartChar: oe
Encoding: 489 339 366
Width: 1236
VWidth: 0
Flags: HW
HStem: -20 50<232.359 449.363 728.693 960.414> 1154 50<344.023 563.028 839.877 1059.29>
LayerCount: 2
UndoRedoHistory
Layer: 1
Undoes
EndUndoes
Redoes
EndRedoes
EndUndoRedoHistory
Fore
SplineSet
685 675 m 1
 695 775 l 1
 728 1088 812 1154 957 1154 c 0
 1146 1154 1149 998 1124 761 c 2
 1115 675 l 1
 685 675 l 1
338 30 m 0
 147 30 138 171 166 437 c 2
 199 747 l 1
 226 1013 265 1154 456 1154 c 0
 647 1154 656 1013 629 747 c 1
 596 437 l 2
 568 171 529 30 338 30 c 0
333 -20 m 0
 473 -20 563 49 605 195 c 1
 625 27 726 -20 830 -20 c 0
 1046 -20 1119 116 1139 304 c 2
 1149 395 l 1
 1086 395 l 1
 1076 301 l 2
 1047 28 915 30 835 30 c 0
 697 30 624 95 659 430 c 2
 680 631 l 1
 1171 631 l 1
 1187 751 l 1
 1223 1097 1153 1204 963 1204 c 0
 857 1204 750 1172 689 1004 c 1
 677 1134 600 1204 462 1204 c 0
 237 1204 167 1053 135 747 c 2
 102 437 l 2
 69 128 108 -20 333 -20 c 0
EndSplineSet
EndChar

StartChar: ogonek
Encoding: 490 731 367
Width: 433
VWidth: 0
Flags: HW
HStem: -383 42<169 249>
LayerCount: 2
UndoRedoHistory
Layer: 1
Undoes
EndUndoes
Redoes
EndRedoes
EndUndoRedoHistory
Fore
SplineSet
249 -383 m 1
 264 -341 l 1
 159 -341 102 -291 110 -215 c 0
 117 -155 164 -79 258 2 c 1
 216 2 l 1
 129 -50 65 -143 56 -225 c 0
 47 -310 99 -383 249 -383 c 1
EndSplineSet
EndChar

StartChar: one
Encoding: 49 49 371
Width: 772
VWidth: 0
Flags: HW
HStem: 1397 64<312 374>
LayerCount: 2
UndoRedoHistory
Layer: 1
Undoes
EndUndoes
Redoes
EndRedoes
EndUndoRedoHistory
Fore
SplineSet
376 0 m 1
 440 0 l 1
 614 1658 l 1
 550 1658 l 1
 480 1566 377 1479 312 1461 c 1
 305 1397 l 1
 365 1414 462 1467 540 1565 c 1
 376 0 l 1
EndSplineSet
EndChar

StartChar: onehalf
Encoding: 189 189 372
Width: 1499
VWidth: 0
Flags: HW
HStem: 939 58<1161 1363>
VStem: 1016 56<717 832>
LayerCount: 2
UndoRedoHistory
Layer: 1
Undoes
EndUndoes
Redoes
EndRedoes
EndUndoRedoHistory
Fore
SplineSet
347 0 m 1
 412 0 l 1
 1196 1658 l 1
 1133 1658 l 1
 347 0 l 1
302 506 m 1
 360 506 l 1
 481 1658 l 1
 423 1658 l 1
 409 1646 295 1573 247 1550 c 1
 240 1485 l 1
 416 1589 l 1
 302 506 l 1
939 -3 m 1
 1363 -3 l 1
 1369 57 l 1
 1021 57 l 1
 1318 436 l 2
 1406 548 1463 637 1475 751 c 0
 1492 914 1412 997 1277 997 c 0
 1119 997 1037 916 1018 732 c 1
 1016 717 l 1
 1072 717 l 1
 1088 866 1143 939 1271 939 c 0
 1378 939 1418 870 1405 744 c 0
 1392 619 1334 561 1262 466 c 1
 945 55 l 1
 939 -3 l 1
EndSplineSet
EndChar

StartChar: onequarter
Encoding: 188 188 373
Width: 1499
VWidth: 0
Flags: HW
LayerCount: 2
UndoRedoHistory
Layer: 1
Undoes
EndUndoes
Redoes
EndRedoes
EndUndoRedoHistory
Fore
SplineSet
972 358 m 1
 1303 1010 l 1
 1235 358 l 1
 972 358 l 1
347 0 m 1
 412 0 l 1
 1196 1658 l 1
 1133 1658 l 1
 347 0 l 1
285 506 m 1
 343 506 l 1
 464 1658 l 1
 406 1658 l 1
 392 1646 278 1573 230 1550 c 1
 223 1485 l 1
 399 1589 l 1
 285 506 l 1
1195 -19 m 1
 1259 -19 l 1
 1293 302 l 1
 1427 302 l 1
 1433 358 l 1
 1299 358 l 1
 1379 1122 l 1
 1307 1121 l 1
 906 354 l 1
 901 302 l 1
 1229 302 l 1
 1195 -19 l 1
EndSplineSet
EndChar

StartChar: onesuperior
Encoding: 185 185 374
Width: 772
VWidth: 0
Flags: HW
HStem: 1648 20G<502 528>
LayerCount: 2
UndoRedoHistory
Layer: 1
Undoes
EndUndoes
Redoes
EndRedoes
EndUndoRedoHistory
Fore
SplineSet
435 759 m 1
 499 759 l 1
 603 1753 l 1
 539 1753 l 1
 469 1661 409 1627 353 1606 c 1
 347 1554 l 1
 415 1569 475 1600 530 1668 c 1
 435 759 l 1
EndSplineSet
EndChar

StartChar: ordfeminine
Encoding: 170 170 375
Width: 760
VWidth: 0
Flags: HW
HStem: 744 38<309.709 482.343> 1640 38<433.753 623.537>
VStem: 621 44<759 873>
LayerCount: 2
UndoRedoHistory
Layer: 1
Undoes
EndUndoes
Redoes
EndRedoes
EndUndoRedoHistory
Fore
SplineSet
391 782 m 0
 324 782 239 811 252 932 c 0
 268 1082 329 1104 660 1244 c 1
 627 929 l 1
 571 845 494 782 391 782 c 0
387 744 m 0
 485 744 579 797 622 873 c 1
 621 759 l 1
 665 759 l 1
 728 1365 l 2
 752 1591 707 1678 545 1678 c 0
 391 1678 301 1619 280 1456 c 1
 334 1453 l 1
 352 1624 457 1640 541 1640 c 0
 654 1640 696 1586 671 1352 c 2
 664 1287 l 1
 238 1117 212 1062 198 936 c 1
 186 816 259 744 387 744 c 0
EndSplineSet
EndChar

StartChar: ordmasculine
Encoding: 186 186 376
Width: 760
VWidth: 0
Flags: HW
HStem: 743 32<327.671 514.289> 1647 31<418.972 604.255>
LayerCount: 2
UndoRedoHistory
Layer: 1
Undoes
EndUndoes
Redoes
EndRedoes
EndUndoRedoHistory
Fore
SplineSet
421 775 m 0
 265 775 225 865 240 1004 c 2
 283 1419 l 2
 298 1557 360 1647 513 1647 c 0
 667 1647 710 1557 695 1419 c 2
 652 1004 l 2
 637 865 577 775 421 775 c 0
418 743 m 0
 628 743 682 855 698 1011 c 2
 740 1412 l 2
 757 1568 714 1678 516 1678 c 0
 318 1678 253 1568 236 1412 c 2
 194 1011 l 2
 178 856 210 743 418 743 c 0
EndSplineSet
EndChar

StartChar: oslash
Encoding: 248 248 377
Width: 750
VWidth: 0
Flags: HW
HStem: -20 50<232.359 450.434> 1154 50<344.023 562.111>
LayerCount: 2
UndoRedoHistory
Layer: 1
Undoes
EndUndoes
Redoes
EndRedoes
EndUndoRedoHistory
Fore
SplineSet
94 -109 m 1
 753 1256 l 1
 723 1269 l 1
 64 -96 l 1
 94 -109 l 1
EndSplineSet
Refer: 361 111 N 1 0 0 1 0 0 2
EndChar

StartChar: p
Encoding: 112 112 379
Width: 780
VWidth: 0
Flags: HW
HStem: -20 50<270.058 470.571> 1154 50<393.336 592.522>
LayerCount: 2
UndoRedoHistory
Layer: 1
Undoes
EndUndoes
Redoes
EndRedoes
EndUndoRedoHistory
Fore
SplineSet
370 30 m 0
 276 30 203 91 161 159 c 1
 252 1025 l 1
 300 1076 391 1154 493 1154 c 0
 662 1154 683 1035 647 699 c 1
 626 490 l 1
 590 154 532 30 370 30 c 0
39 -390 m 1
 103 -390 l 1
 155 102 l 1
 189 50 254 -20 365 -20 c 0
 570 -20 652 131 690 494 c 2
 711 698 l 1
 749 1057 706 1204 499 1204 c 0
 386 1204 304 1137 258 1081 c 1
 268 1184 l 1
 204 1184 l 1
 39 -390 l 1
EndSplineSet
EndChar

StartChar: paragraph
Encoding: 182 182 380
Width: 975
VWidth: 0
Flags: HW
LayerCount: 2
UndoRedoHistory
Layer: 1
Undoes
EndUndoes
Redoes
EndRedoes
EndUndoRedoHistory
Fore
SplineSet
354 -191 m 1
 406 -191 l 1
 594 1598 l 1
 887 1598 l 1
 699 -191 l 1
 751 -191 l 1
 945 1658 l 1
 531 1658 l 2
 272 1658 171 1533 156 1387 c 0
 137 1213 263 1120 492 1122 c 1
 354 -191 l 1
EndSplineSet
EndChar

StartChar: parenleft
Encoding: 40 40 381
Width: 518
VWidth: 0
Flags: HW
HStem: -264 51<339 388> 1616 51<518 584>
LayerCount: 2
UndoRedoHistory
Layer: 1
Undoes
EndUndoes
Redoes
EndRedoes
EndUndoRedoHistory
Fore
SplineSet
386 -264 m 1
 392 -213 l 1
 179 -173 218 173 274 702 c 0
 329 1230 363 1576 584 1616 c 1
 589 1667 l 1
 312 1647 268 1275 208 702 c 0
 148 134 115 -224 386 -264 c 1
EndSplineSet
EndChar

StartChar: parenright
Encoding: 41 41 382
Width: 518
VWidth: 0
Flags: HW
HStem: -264 51<2 68> 1616 51<198 247>
LayerCount: 2
UndoRedoHistory
Layer: 1
Undoes
EndUndoes
Redoes
EndRedoes
EndUndoRedoHistory
Fore
SplineSet
-4 -264 m 1
 275 -224 318 134 378 702 c 0
 438 1275 472 1647 199 1667 c 1
 194 1616 l 1
 407 1576 367 1230 312 702 c 0
 256 173 223 -173 2 -213 c 1
 -4 -264 l 1
EndSplineSet
EndChar

StartChar: partialdiff
Encoding: 493 8706 383
Width: 820
VWidth: 0
Flags: HW
HStem: -20 50<249 453> 1071 50<373 580> 1637 50<418 549>
LayerCount: 2
UndoRedoHistory
Layer: 1
Undoes
EndUndoes
Redoes
EndRedoes
EndUndoRedoHistory
Fore
SplineSet
352 30 m 0
 208 30 154 117 180 358 c 0
 184 398 189 442 198 490 c 1
 221 636 l 2
 274 972 314 1071 483 1071 c 0
 587 1071 662 991 699 940 c 1
 596 291 l 1
 568 122 478 30 352 30 c 0
346 -20 m 1
 492 -20 626 82 660 291 c 2
 660 291 804 1195 806 1214 c 0
 845 1592 638 1687 418 1687 c 1
 392 1637 l 1
 649 1623 776 1540 741 1213 c 0
 739 1194 708 995 708 995 c 1
 673 1051 605 1120 491 1121 c 1
 284 1121 213 994 157 635 c 1
 134 494 l 2
 128 453 123 415 119 379 c 0
 90 100 150 -14 346 -20 c 1
EndSplineSet
EndChar

StartChar: percent
Encoding: 37 37 384
Width: 1090
VWidth: 0
Flags: HW
HStem: -14 52<736 868> 758 52<809 936> 886 52<250 382> 1658 52<323 450>
LayerCount: 2
UndoRedoHistory
Layer: 1
Undoes
EndUndoes
Redoes
EndRedoes
EndUndoRedoHistory
Fore
SplineSet
169 0 m 1
 234 0 l 1
 1021 1688 l 1
 958 1688 l 1
 169 0 l 1
794 -14 m 0
 923 -14 968 91 981 222 c 2
 1019 579 l 2
 1033 710 1003 810 880 810 c 0
 757 810 707 711 693 579 c 2
 655 222 l 2
 642 91 664 -14 794 -14 c 0
799 38 m 0
 723 38 701 100 713 217 c 2
 751 581 l 2
 763 690 800 758 875 758 c 0
 949 758 973 690 961 582 c 2
 923 217 l 2
 911 100 874 38 799 38 c 0
308 886 m 0
 437 886 482 991 496 1122 c 2
 533 1479 l 2
 547 1610 518 1710 395 1710 c 0
 272 1710 221 1611 207 1479 c 2
 170 1122 l 2
 156 991 178 886 308 886 c 0
314 938 m 0
 238 938 215 1000 227 1117 c 2
 266 1481 l 2
 277 1590 314 1658 389 1658 c 0
 463 1658 487 1590 476 1482 c 2
 437 1117 l 2
 425 1000 389 938 314 938 c 0
EndSplineSet
EndChar

StartChar: period
Encoding: 46 46 385
Width: 354
VWidth: 0
Flags: HW
HStem: 0 201
LayerCount: 2
UndoRedoHistory
Layer: 1
Undoes
EndUndoes
Redoes
EndRedoes
EndUndoRedoHistory
Fore
SplineSet
110 0 m 1
 192 0 l 1
 213 201 l 1
 131 201 l 1
 110 0 l 1
EndSplineSet
EndChar

StartChar: periodcentered
Encoding: 183 183 386
Width: 415
VWidth: 0
Flags: HW
HStem: 713 123
LayerCount: 2
UndoRedoHistory
Layer: 1
Undoes
EndUndoes
Redoes
EndRedoes
EndUndoRedoHistory
Fore
SplineSet
238 713 m 1
 306 713 l 1
 319 836 l 1
 251 836 l 1
 238 713 l 1
EndSplineSet
EndChar

StartChar: perthousand
Encoding: 495 8240 387
Width: 1564
VWidth: 0
Flags: HW
HStem: -14 52<756 888 1189 1321> 758 52<829 956 1264 1389> 886 52<270 402> 1658 52<343 470>
LayerCount: 2
UndoRedoHistory
Layer: 1
Undoes
EndUndoes
Redoes
EndRedoes
EndUndoRedoHistory
Fore
SplineSet
189 0 m 1
 254 0 l 1
 1041 1688 l 1
 978 1688 l 1
 189 0 l 1
1247 -15 m 0
 1376 -15 1421 90 1435 221 c 2
 1473 578 l 2
 1487 709 1457 809 1334 809 c 0
 1211 809 1161 710 1147 578 c 2
 1109 221 l 2
 1095 90 1117 -15 1247 -15 c 0
1253 37 m 0
 1177 37 1154 99 1167 216 c 2
 1205 580 l 2
 1216 689 1254 757 1329 757 c 0
 1403 757 1426 689 1415 581 c 2
 1377 216 l 2
 1364 99 1328 37 1253 37 c 0
814 -14 m 0
 943 -14 988 91 1001 222 c 2
 1039 579 l 2
 1053 710 1023 810 900 810 c 0
 777 810 727 711 713 579 c 2
 675 222 l 2
 662 91 684 -14 814 -14 c 0
819 38 m 0
 743 38 721 100 733 217 c 2
 771 581 l 2
 783 690 820 758 895 758 c 0
 969 758 993 690 981 582 c 2
 943 217 l 2
 931 100 894 38 819 38 c 0
328 886 m 0
 457 886 502 991 516 1122 c 2
 553 1479 l 2
 567 1610 538 1710 415 1710 c 0
 292 1710 241 1611 227 1479 c 2
 190 1122 l 2
 176 991 198 886 328 886 c 0
334 938 m 0
 258 938 235 1000 247 1117 c 2
 286 1481 l 2
 297 1590 334 1658 409 1658 c 0
 483 1658 507 1590 496 1482 c 2
 457 1117 l 2
 445 1000 409 938 334 938 c 0
EndSplineSet
EndChar

StartChar: pi
Encoding: 496 960 388
Width: 803
VWidth: 0
Flags: HW
HStem: 0 60<616.323 686>
LayerCount: 2
UndoRedoHistory
Layer: 1
Undoes
EndUndoes
Redoes
EndRedoes
EndUndoRedoHistory
Fore
SplineSet
288 1131 m 1
 635 1131 l 1
 546 288 l 2
 525 81 538 0 686 0 c 1
 706 60 l 1
 585 60 591 108 610 283 c 2
 699 1131 l 1
 830 1131 l 1
 835 1184 l 1
 111 1184 l 1
 106 1131 l 1
 224 1131 l 1
 105 0 l 1
 169 0 l 1
 288 1131 l 1
EndSplineSet
EndChar

StartChar: plus
Encoding: 43 43 389
Width: 703
VWidth: 0
Flags: HW
HStem: 516 664
LayerCount: 2
UndoRedoHistory
Layer: 1
Undoes
EndUndoes
Redoes
EndRedoes
EndUndoRedoHistory
Fore
SplineSet
339 516 m 1
 392 516 l 1
 425 827 l 1
 706 827 l 1
 711 875 l 1
 430 875 l 1
 462 1180 l 1
 409 1180 l 1
 377 875 l 1
 96 875 l 1
 91 827 l 1
 372 827 l 1
 339 516 l 1
EndSplineSet
EndChar

StartChar: plusminus
Encoding: 177 177 390
Width: 621
VWidth: 0
Flags: HW
LayerCount: 2
UndoRedoHistory
Layer: 1
Undoes
EndUndoes
Redoes
EndRedoes
EndUndoRedoHistory
Fore
SplineSet
53 0 m 1
 512 0 l 1
 519 70 l 1
 60 70 l 1
 53 0 l 1
285 382 m 1
 361 382 l 1
 381 573 l 1
 572 573 l 1
 580 643 l 1
 389 643 l 1
 409 834 l 1
 333 834 l 1
 313 643 l 1
 121 643 l 1
 113 573 l 1
 305 573 l 1
 285 382 l 1
EndSplineSet
EndChar

StartChar: product
Encoding: 497 8719 391
Width: 1151
VWidth: 0
Flags: HW
LayerCount: 2
UndoRedoHistory
Layer: 1
Undoes
EndUndoes
Redoes
EndRedoes
EndUndoRedoHistory
Fore
SplineSet
80 -390 m 1
 144 -390 l 1
 354 1606 l 1
 1055 1606 l 1
 845 -390 l 1
 909 -390 l 1
 1124 1658 l 1
 295 1658 l 1
 80 -390 l 1
EndSplineSet
EndChar

StartChar: q
Encoding: 113 113 392
Width: 774
VWidth: 0
Flags: HW
HStem: -20 50<238.3 439.102> 1154 50<344.053 545.138>
LayerCount: 2
UndoRedoHistory
Layer: 1
Undoes
EndUndoes
Redoes
EndRedoes
EndUndoRedoHistory
Fore
SplineSet
336 30 m 0
 174 30 142 154 178 490 c 1
 199 699 l 1
 235 1035 280 1154 449 1154 c 0
 549 1154 621 1081 660 1029 c 1
 568 154 l 1
 512 88 428 30 336 30 c 0
511 -390 m 1
 575 -390 l 1
 740 1184 l 1
 676 1184 l 1
 666 1086 l 1
 630 1140 563 1203 455 1204 c 1
 248 1204 173 1057 135 698 c 1
 114 494 l 2
 76 131 126 -20 331 -20 c 0
 438 -20 517 46 562 97 c 1
 511 -390 l 1
EndSplineSet
EndChar

StartChar: question
Encoding: 63 63 393
Width: 938
VWidth: 0
Flags: HW
HStem: 1623 55<443 714>
VStem: 238 56<1251 1492>
LayerCount: 2
UndoRedoHistory
Layer: 1
Undoes
EndUndoes
Redoes
EndRedoes
EndUndoRedoHistory
Fore
SplineSet
344 1 m 1
 405 1 l 1
 417 119 l 1
 356 119 l 1
 344 1 l 1
389 408 m 1
 443 408 l 1
 467 636 l 1
 759 799 888 975 916 1240 c 0
 948 1546 779 1678 599 1678 c 0
 392 1678 198 1564 238 1311 c 1
 249 1234 l 1
 304 1253 l 1
 294 1325 l 1
 265 1526 411 1623 593 1623 c 0
 743 1623 886 1517 857 1239 c 0
 834 1021 746 847 415 658 c 1
 389 408 l 1
EndSplineSet
EndChar

StartChar: questiondown
Encoding: 191 191 394
Width: 823
VWidth: 0
Flags: HW
HStem: -466 55<127 399>
VStem: 537 55<-296 -99 -41 -36>
LayerCount: 2
UndoRedoHistory
Layer: 1
Undoes
EndUndoes
Redoes
EndRedoes
EndUndoRedoHistory
Fore
SplineSet
424 1093 m 1
 485 1093 l 1
 498 1211 l 1
 437 1211 l 1
 424 1093 l 1
242 -466 m 0
 449 -466 643 -352 604 -99 c 2
 592 -22 l 1
 537 -41 l 1
 547 -113 l 1
 576 -314 430 -411 248 -411 c 0
 98 -411 -45 -305 -16 -27 c 0
 7 191 96 365 426 554 c 1
 453 804 l 1
 399 804 l 1
 375 576 l 1
 83 413 -47 237 -75 -28 c 0
 -107 -334 62 -466 242 -466 c 0
EndSplineSet
EndChar

StartChar: quotedbl
Encoding: 34 34 395
Width: 667
VWidth: 0
Flags: HW
HStem: 1204 454
LayerCount: 2
UndoRedoHistory
Layer: 1
Undoes
EndUndoes
Redoes
EndRedoes
EndUndoRedoHistory
Fore
SplineSet
499 1204 m 1
 535 1204 l 1
 623 1658 l 1
 546 1658 l 1
 499 1204 l 1
244 1204 m 1
 280 1204 l 1
 368 1658 l 1
 291 1658 l 1
 244 1204 l 1
EndSplineSet
EndChar

StartChar: quotedblbase
Encoding: 498 8222 396
Width: 644
VWidth: 0
Flags: HW
LayerCount: 2
UndoRedoHistory
Layer: 1
Undoes
EndUndoes
Redoes
EndRedoes
EndUndoRedoHistory
Fore
SplineSet
339 -210 m 1
 417 -149 435 -90 447 29 c 2
 461 165 l 1
 371 165 l 1
 354 -1 l 1
 403 -1 l 1
 394 -90 384 -130 311 -193 c 1
 339 -210 l 1
125 -210 m 1
 203 -149 221 -90 233 29 c 2
 247 165 l 1
 157 165 l 1
 140 -1 l 1
 189 -1 l 1
 180 -90 170 -130 97 -193 c 1
 125 -210 l 1
EndSplineSet
EndChar

StartChar: quotedblleft
Encoding: 499 8220 397
Width: 580
VWidth: 0
Flags: HW
LayerCount: 2
UndoRedoHistory
Layer: 1
Undoes
EndUndoes
Redoes
EndRedoes
EndUndoRedoHistory
Fore
SplineSet
454 1329 m 1
 544 1329 l 1
 561 1495 l 1
 512 1495 l 1
 521 1584 531 1624 604 1687 c 1
 576 1704 l 1
 498 1643 480 1584 468 1465 c 2
 454 1329 l 1
243 1329 m 1
 333 1329 l 1
 350 1495 l 1
 301 1495 l 1
 310 1584 320 1624 393 1687 c 1
 365 1704 l 1
 287 1643 269 1584 257 1465 c 2
 243 1329 l 1
EndSplineSet
EndChar

StartChar: quotedblright
Encoding: 500 8221 398
Width: 970
VWidth: 0
Flags: HW
LayerCount: 2
UndoRedoHistory
Layer: 1
Undoes
EndUndoes
Redoes
EndRedoes
EndUndoRedoHistory
Fore
SplineSet
650 1283 m 1
 728 1344 745 1403 758 1522 c 2
 772 1658 l 1
 682 1658 l 1
 665 1492 l 1
 714 1492 l 1
 704 1403 695 1363 622 1300 c 1
 650 1283 l 1
461 1283 m 1
 539 1344 556 1403 569 1522 c 2
 583 1658 l 1
 493 1658 l 1
 476 1492 l 1
 525 1492 l 1
 515 1403 506 1363 433 1300 c 1
 461 1283 l 1
EndSplineSet
EndChar

StartChar: quoteleft
Encoding: 501 8216 399
Width: 336
VWidth: 0
Flags: HW
LayerCount: 2
UndoRedoHistory
Layer: 1
Undoes
EndUndoes
Redoes
EndRedoes
EndUndoRedoHistory
Fore
SplineSet
207 1329 m 1
 297 1329 l 1
 314 1495 l 1
 265 1495 l 1
 274 1584 284 1624 357 1687 c 1
 329 1704 l 1
 251 1643 233 1584 221 1465 c 2
 207 1329 l 1
EndSplineSet
EndChar

StartChar: quoteright
Encoding: 502 8217 400
Width: 267
VWidth: 0
Flags: HW
LayerCount: 2
UndoRedoHistory
Layer: 1
Undoes
EndUndoes
Redoes
EndRedoes
EndUndoRedoHistory
Fore
SplineSet
210 1283 m 1
 288 1344 305 1403 318 1522 c 2
 332 1658 l 1
 242 1658 l 1
 225 1492 l 1
 274 1492 l 1
 264 1403 255 1363 182 1300 c 1
 210 1283 l 1
EndSplineSet
EndChar

StartChar: quotesinglbase
Encoding: 503 8218 401
Width: 572
VWidth: 0
Flags: HW
LayerCount: 2
UndoRedoHistory
Layer: 1
Undoes
EndUndoes
Redoes
EndRedoes
EndUndoRedoHistory
Fore
SplineSet
195 -208 m 1
 274 -147 291 -88 303 31 c 1
 318 167 l 1
 228 167 l 1
 210 1 l 1
 259 1 l 1
 250 -88 241 -128 167 -191 c 1
 195 -208 l 1
EndSplineSet
EndChar

StartChar: quotesingle
Encoding: 39 39 402
Width: 380
VWidth: 0
Flags: HW
HStem: 1204 454
LayerCount: 2
UndoRedoHistory
Layer: 1
Undoes
EndUndoes
Redoes
EndRedoes
EndUndoRedoHistory
Fore
SplineSet
244 1204 m 1
 280 1204 l 1
 368 1658 l 1
 291 1658 l 1
 244 1204 l 1
EndSplineSet
EndChar

StartChar: r
Encoding: 114 114 403
Width: 549
VWidth: 0
Flags: HW
HStem: 1133 61<446.181 574>
LayerCount: 2
UndoRedoHistory
Layer: 1
Undoes
EndUndoes
Redoes
EndRedoes
EndUndoRedoHistory
Fore
SplineSet
98 0 m 1
 162 0 l 1
 263 963 l 1
 332 1066 438 1133 568 1133 c 2
 582 1133 l 1
 588 1194 l 1
 574 1194 l 2
 482 1194 343 1134 270 1028 c 1
 286 1184 l 1
 222 1184 l 1
 98 0 l 1
EndSplineSet
EndChar

StartChar: radical
Encoding: 505 8730 405
Width: 909
VWidth: 0
Flags: HW
LayerCount: 2
UndoRedoHistory
Layer: 1
Undoes
EndUndoes
Redoes
EndRedoes
EndUndoRedoHistory
Fore
SplineSet
386 0 m 1
 466 0 l 1
 1019 1658 l 1
 949 1658 l 1
 863 1399 777 1140 691 879 c 0
 606 619 521 358 436 97 c 1
 413 278 390 460 366 642 c 0
 343 823 319 1005 293 1184 c 1
 74 1184 l 1
 69 1128 l 1
 231 1128 l 1
 386 0 l 1
EndSplineSet
EndChar

StartChar: registered
Encoding: 174 174 408
Width: 1765
VWidth: 0
Flags: HW
HStem: -22 50<641 1050> 873 51<1077 1149> 1455 53<1090 1200> 1658 50<813 1222>
LayerCount: 2
UndoRedoHistory
Layer: 1
Undoes
EndUndoes
Redoes
EndRedoes
EndUndoRedoHistory
Fore
SplineSet
841 -22 m 0
 1427 -22 1710 426 1754 843 c 0
 1797 1260 1607 1708 1023 1708 c 0
 438 1708 152 1260 109 843 c 1
 65 427 256 -22 841 -22 c 0
846 28 m 0
 315 28 126 432 170 845 c 1
 213 1259 486 1658 1017 1658 c 0
 1546 1658 1737 1259 1694 845 c 1
 1650 432 1375 28 846 28 c 0
746 924 m 1
 802 1455 l 1
 1090 1455 l 2
 1250 1455 1281 1361 1263 1194 c 0
 1247 1038 1209 924 1039 924 c 2
 746 924 l 1
611 198 m 1
 670 198 l 1
 741 873 l 1
 1020 873 l 1
 1163 198 l 1
 1224 198 l 1
 1077 879 l 1
 1253 899 1308 1051 1323 1194 c 0
 1339 1343 1317 1508 1102 1508 c 2
 748 1508 l 1
 611 198 l 1
EndSplineSet
EndChar

StartChar: ring
Encoding: 508 730 409
Width: 588
VWidth: 0
Flags: HW
HStem: 1374 43<340 473> 1636 42<357 491>
LayerCount: 2
UndoRedoHistory
Layer: 1
Undoes
EndUndoes
Redoes
EndRedoes
EndUndoRedoHistory
Fore
SplineSet
404 1417 m 0
 356 1417 302 1443 310 1526 c 0
 319 1610 378 1636 426 1636 c 0
 475 1636 529 1610 520 1526 c 0
 512 1443 452 1417 404 1417 c 0
398 1374 m 0
 463 1374 557 1410 569 1526 c 0
 582 1642 495 1678 430 1678 c 0
 364 1678 272 1642 259 1526 c 0
 247 1410 333 1374 398 1374 c 0
EndSplineSet
EndChar

StartChar: s
Encoding: 115 115 410
Width: 716
VWidth: 0
Flags: HW
HStem: -20 50<238.554 464.877> 1154 50<325.958 540.093>
VStem: 71 56<147.645 320> 610 55<894 1083.49>
LayerCount: 2
UndoRedoHistory
Layer: 1
Undoes
EndUndoes
Redoes
EndRedoes
EndUndoRedoHistory
Fore
SplineSet
342 -20 m 0
 511 -20 626 80 643 240 c 1
 658 418 552 516 448 615 c 2
 345 712 l 2
 237 814 215 874 226 980 c 0
 239 1099 326 1154 441 1154 c 0
 556 1154 630 1090 610 882 c 1
 665 894 l 1
 682 1091 614 1204 444 1204 c 0
 291 1204 180 1119 164 967 c 0
 152 855 190 773 312 661 c 2
 414 568 l 2
 546 447 594 343 584 245 c 0
 569 105 484 30 350 30 c 0
 201 30 119 119 127 336 c 1
 71 320 l 1
 64 109 159 -20 342 -20 c 0
EndSplineSet
EndChar

StartChar: section
Encoding: 167 167 416
Width: 752
VWidth: 0
Flags: HW
HStem: -20 47<268 459> 1625 50<406 584>
VStem: 79 53<201 303> 693 58<1392 1482>
LayerCount: 2
UndoRedoHistory
Layer: 1
Undoes
EndUndoes
Redoes
EndRedoes
EndUndoRedoHistory
Fore
SplineSet
519 511 m 1
 254 833 l 2
 202 895 184 946 190 996 c 1
 199 1089 270 1146 371 1171 c 1
 566 972 l 2
 673 864 717 790 690 680 c 0
 669 594 586 538 519 511 c 1
344 -20 m 0
 501 -20 623 83 635 241 c 0
 643 339 587 409 544 476 c 1
 627 514 714 561 738 679 c 0
 768 822 704 906 611 1005 c 2
 442 1183 l 2
 361 1269 293 1361 302 1443 c 0
 314 1563 406 1625 505 1625 c 0
 634 1625 673 1476 693 1379 c 1
 751 1396 l 1
 719 1511 674 1675 515 1675 c 0
 355 1675 256 1568 242 1439 c 0
 233 1355 287 1282 347 1206 c 1
 252 1179 146 1112 133 993 c 0
 128 942 143 869 203 799 c 2
 401 567 l 2
 589 346 588 285 581 223 c 0
 569 107 477 27 353 27 c 0
 222 27 148 160 132 316 c 1
 79 298 l 1
 102 136 174 -20 344 -20 c 0
EndSplineSet
EndChar

StartChar: semicolon
Encoding: 59 59 417
Width: 407
VWidth: 0
Flags: HW
LayerCount: 2
UndoRedoHistory
Layer: 1
Undoes
EndUndoes
Redoes
EndRedoes
EndUndoRedoHistory
Fore
SplineSet
219 889 m 1
 299 889 l 1
 321 1090 l 1
 241 1090 l 1
 219 889 l 1
130 -10 m 1
 208 51 227 101 239 220 c 2
 255 374 l 1
 165 374 l 1
 146 190 l 1
 198 190 l 1
 189 108 182 81 108 18 c 1
 130 -10 l 1
EndSplineSet
EndChar

StartChar: seven
Encoding: 55 55 418
Width: 1010
VWidth: 0
Flags: HW
LayerCount: 2
UndoRedoHistory
Layer: 1
Undoes
EndUndoes
Redoes
EndRedoes
EndUndoRedoHistory
Fore
SplineSet
378 0 m 1
 442 0 l 1
 970 1625 l 1
 973 1658 l 1
 329 1658 l 1
 323 1602 l 1
 898 1602 l 1
 378 0 l 1
EndSplineSet
EndChar

StartChar: six
Encoding: 54 54 419
Width: 1010
VWidth: 0
Flags: HW
HStem: -24 56<340 641> 897 55<426 738> 1624 54<511 795>
VStem: 883 59<1274 1541>
CounterMasks: 1 e0
LayerCount: 2
UndoRedoHistory
Layer: 1
Undoes
EndUndoes
Redoes
EndRedoes
EndUndoRedoHistory
Fore
SplineSet
481 32 m 0
 302 32 200 99 241 489 c 2
 277 824 l 1
 329 845 471 897 572 897 c 0
 825 897 865 804 826 439 c 1
 789 83 666 32 481 32 c 0
475 -24 m 0
 742 -24 862 128 895 437 c 0
 939 854 856 952 588 952 c 0
 470 952 344 898 282 875 c 1
 323 1264 l 2
 354 1564 500 1624 657 1624 c 0
 835 1624 912 1551 883 1274 c 1
 942 1274 l 1
 947 1318 l 1
 973 1567 892 1678 653 1678 c 0
 413 1678 288 1538 258 1256 c 2
 175 465 l 2
 139 120 224 -24 475 -24 c 0
EndSplineSet
EndChar

StartChar: slash
Encoding: 47 47 420
Width: 640
VWidth: 0
Flags: HW
LayerCount: 2
UndoRedoHistory
Layer: 1
Undoes
EndUndoes
Redoes
EndRedoes
EndUndoRedoHistory
Fore
SplineSet
-2 0 m 1
 59 0 l 1
 736 1658 l 1
 676 1658 l 1
 -2 0 l 1
EndSplineSet
EndChar

StartChar: sterling
Encoding: 163 163 422
Width: 709
VWidth: 0
Flags: HW
HStem: 1634 44<479 687>
VStem: 737 50<1329 1591>
LayerCount: 2
UndoRedoHistory
Layer: 1
Undoes
EndUndoes
Redoes
EndRedoes
EndUndoRedoHistory
Fore
SplineSet
3 0 m 1
 640 0 l 1
 645 44 l 1
 201 44 l 1
 284 837 l 1
 592 837 l 1
 597 883 l 1
 289 883 l 1
 319 1174 l 2
 350 1467 377 1634 585 1634 c 0
 741 1634 761 1557 737 1329 c 1
 787 1329 l 1
 788 1339 789 1349 790 1359 c 0
 807 1539 799 1678 591 1678 c 0
 340 1678 291 1496 257 1173 c 2
 227 883 l 1
 96 883 l 1
 91 837 l 1
 222 837 l 1
 139 44 l 1
 7 34 l 1
 3 0 l 1
EndSplineSet
EndChar

StartChar: summation
Encoding: 514 8721 423
Width: 763
VWidth: 0
Flags: HW
LayerCount: 2
UndoRedoHistory
Layer: 1
Undoes
EndUndoes
Redoes
EndRedoes
EndUndoRedoHistory
Fore
SplineSet
0 -390 m 1
 571 -390 l 1
 577 -334 l 1
 94 -334 l 1
 545 670 l 1
 299 1602 l 1
 766 1602 l 1
 772 1658 l 1
 215 1658 l 1
 481 670 l 1
 0 -390 l 1
EndSplineSet
EndChar

StartChar: t
Encoding: 116 116 424
Width: 500
VWidth: 0
Flags: W
HStem: -12 53<256.029 409.677>
LayerCount: 2
UndoRedoHistory
Layer: 1
Undoes
EndUndoes
Redoes
EndRedoes
EndUndoRedoHistory
Fore
SplineSet
314 -12 m 0
 340 -12 386 -6 410 3 c 1
 416 53 l 1
 387 47 352 41 325 41 c 0
 236 41 228 89 243 233 c 2
 339 1142 l 1
 544 1142 l 1
 548 1184 l 1
 343 1184 l 1
 385 1576 l 1
 321 1576 l 1
 279 1184 l 1
 112 1184 l 1
 108 1142 l 1
 275 1142 l 1
 178 221 l 2
 165 99 159 -12 314 -12 c 0
EndSplineSet
EndChar

StartChar: tbar
Encoding: 515 359 425
Width: 500
VWidth: 0
Flags: HW
HStem: -12 53<256.029 409.677>
LayerCount: 2
UndoRedoHistory
Layer: 1
Undoes
EndUndoes
Redoes
EndRedoes
EndUndoRedoHistory
Fore
SplineSet
471 760 m 1
 476 809 l 1
 108 809 l 1
 103 760 l 1
 471 760 l 1
EndSplineSet
Refer: 424 116 N 1 0 0 1 0 0 2
EndChar

StartChar: thorn
Encoding: 254 254 428
Width: 774
VWidth: 0
Flags: HW
HStem: -20 50<270.058 470.571> 1154 50<393.336 592.522>
LayerCount: 2
UndoRedoHistory
Layer: 1
Undoes
EndUndoes
Redoes
EndRedoes
EndUndoRedoHistory
Fore
SplineSet
370 30 m 0
 276 30 203 91 161 159 c 1
 252 1025 l 1
 300 1076 391 1154 493 1154 c 0
 662 1154 683 1035 647 699 c 1
 626 490 l 1
 590 154 532 30 370 30 c 0
39 -390 m 1
 103 -390 l 1
 155 102 l 1
 189 50 254 -20 365 -20 c 0
 570 -20 652 131 690 494 c 2
 711 698 l 1
 749 1057 706 1204 499 1204 c 0
 386 1204 304 1137 258 1081 c 1
 318 1658 l 1
 254 1658 l 1
 39 -390 l 1
EndSplineSet
EndChar

StartChar: three
Encoding: 51 51 429
Width: 1010
VWidth: 0
Flags: HW
HStem: -24 51<324 591> 838 44<555 689> 1628 50<496 768>
LayerCount: 2
UndoRedoHistory
Layer: 1
Undoes
EndUndoes
Redoes
EndRedoes
EndUndoRedoHistory
Fore
SplineSet
445 -24 m 0
 714 -24 840 167 868 433 c 0
 900 744 762 840 676 857 c 1
 809 877 928 1006 956 1278 c 0
 979 1496 901 1678 654 1678 c 0
 376 1678 283 1526 260 1308 c 1
 259 1292 l 1
 315 1292 l 1
 317 1313 l 1
 343 1559 462 1628 650 1628 c 0
 854 1628 910 1481 889 1280 c 0
 860 1007 771 882 560 882 c 2
 506 882 l 1
 501 838 l 1
 555 838 l 2
 765 838 824 669 799 429 c 0
 763 89 602 27 451 27 c 0
 269 27 193 133 215 343 c 2
 218 373 l 1
 163 373 l 1
 161 352 l 1
 138 131 202 -24 445 -24 c 0
EndSplineSet
EndChar

StartChar: threequarters
Encoding: 190 190 430
Width: 1499
VWidth: 0
Flags: HW
HStem: 647 58<211 401> 1140 61<378 446> 1601 58<307 499>
LayerCount: 2
UndoRedoHistory
Layer: 1
Undoes
EndUndoes
Redoes
EndRedoes
EndUndoRedoHistory
Fore
SplineSet
972 358 m 1
 1303 1010 l 1
 1235 358 l 1
 972 358 l 1
347 0 m 1
 412 0 l 1
 1196 1658 l 1
 1133 1658 l 1
 347 0 l 1
1195 -19 m 1
 1256 -19 l 1
 1290 302 l 1
 1424 302 l 1
 1430 358 l 1
 1296 358 l 1
 1376 1121 l 1
 1307 1121 l 1
 906 354 l 1
 901 302 l 1
 1229 302 l 1
 1195 -19 l 1
292 647 m 0
 452 647 542 764 559 922 c 0
 578 1107 497 1153 446 1172 c 1
 512 1186 586 1259 603 1421 c 0
 617 1550 568 1659 421 1659 c 0
 256 1659 187 1568 173 1438 c 1
 242 1441 l 1
 254 1548 304 1601 416 1601 c 0
 507 1601 550 1541 537 1422 c 0
 520 1260 464 1201 378 1201 c 1
 372 1140 l 1
 457 1140 507 1055 493 920 c 0
 476 758 394 705 304 705 c 0
 196 705 167 770 177 865 c 1
 108 870 l 1
 95 739 148 647 292 647 c 0
EndSplineSet
EndChar

StartChar: threesuperior
Encoding: 179 179 431
Width: 795
VWidth: 0
Flags: HW
HStem: 747 58<332 521> 1240 61<496 569> 1701 58<428 620>
LayerCount: 2
UndoRedoHistory
Layer: 1
Undoes
EndUndoes
Redoes
EndRedoes
EndUndoRedoHistory
Fore
SplineSet
413 747 m 0
 573 747 663 864 679 1022 c 1
 699 1207 622 1253 571 1272 c 1
 636 1286 707 1359 724 1521 c 0
 737 1650 689 1759 542 1759 c 0
 377 1759 307 1668 294 1538 c 1
 293 1529 l 1
 362 1529 l 1
 363 1541 l 1
 374 1648 425 1701 537 1701 c 0
 628 1701 670 1641 658 1522 c 0
 641 1360 589 1301 503 1301 c 2
 424 1301 l 1
 417 1240 l 1
 496 1240 l 2
 581 1240 627 1155 613 1020 c 0
 596 858 515 805 425 805 c 0
 317 805 287 870 297 965 c 2
 299 983 l 1
 230 983 l 1
 229 970 l 1
 215 839 269 747 413 747 c 0
EndSplineSet
EndChar

StartChar: tilde
Encoding: 518 732 432
Width: 693
VWidth: 0
Flags: HW
VStem: 246 55<1530 1593> 644 49<1592 1658>
LayerCount: 2
UndoRedoHistory
Layer: 1
Undoes
EndUndoes
Redoes
EndRedoes
EndUndoRedoHistory
Fore
SplineSet
531 1518 m 0
 670 1499 691 1641 693 1658 c 1
 644 1658 l 1
 634 1586 597 1555 542 1565 c 0
 499 1573 460 1644 406 1656 c 0
 273 1686 246 1534 246 1530 c 1
 301 1530 l 1
 307 1593 348 1622 394 1608 c 0
 434 1596 472 1526 531 1518 c 0
EndSplineSet
EndChar

StartChar: tildecomb
Encoding: 519 771 433
Width: 693
VWidth: 0
Flags: HW
VStem: 246 55<1530 1593> 644 49<1592 1658>
LayerCount: 2
UndoRedoHistory
Layer: 1
Undoes
EndUndoes
Redoes
EndRedoes
EndUndoRedoHistory
Fore
SplineSet
531 1518 m 0
 670 1499 691 1641 693 1658 c 1
 644 1658 l 1
 634 1586 597 1555 542 1565 c 0
 499 1573 460 1644 406 1656 c 0
 273 1686 246 1534 246 1530 c 1
 301 1530 l 1
 307 1593 348 1622 394 1608 c 0
 434 1596 472 1526 531 1518 c 0
EndSplineSet
EndChar

StartChar: trademark
Encoding: 520 8482 434
Width: 1370
VWidth: 0
Flags: HW
LayerCount: 2
UndoRedoHistory
Layer: 1
Undoes
EndUndoes
Redoes
EndRedoes
EndUndoRedoHistory
Fore
SplineSet
271 767 m 1
 335 767 l 1
 422 1603 l 1
 610 1603 l 1
 616 1658 l 1
 162 1658 l 1
 156 1603 l 1
 358 1603 l 1
 271 767 l 1
628 767 m 1
 690 767 l 1
 770 1531 l 1
 952 767 l 1
 980 767 l 1
 1329 1549 l 1
 1247 767 l 1
 1308 767 l 1
 1401 1658 l 1
 1320 1658 l 1
 979 881 l 1
 799 1658 l 1
 721 1658 l 1
 628 767 l 1
EndSplineSet
EndChar

StartChar: two
Encoding: 50 50 435
Width: 1010
VWidth: 0
Flags: HW
HStem: 1622 56<486 772>
VStem: 213 61<1209 1366>
LayerCount: 2
UndoRedoHistory
Layer: 1
Undoes
EndUndoes
Redoes
EndRedoes
EndUndoRedoHistory
Fore
SplineSet
82 0 m 1
 795 0 l 1
 801 56 l 1
 159 56 l 1
 687 741 l 2
 808 898 939 1075 959 1266 c 0
 986 1524 877 1678 650 1678 c 0
 384 1678 248 1543 216 1234 c 1
 213 1209 l 1
 274 1209 l 1
 275 1215 275 1220 276 1226 c 0
 304 1466 379 1622 645 1622 c 0
 825 1622 921 1497 899 1286 c 0
 877 1076 763 929 640 770 c 2
 87 52 l 1
 82 0 l 1
EndSplineSet
EndChar

StartChar: twosuperior
Encoding: 178 178 436
Width: 791
VWidth: 0
Flags: HW
HStem: 1701 58<424 626>
VStem: 279 56<1479 1594>
LayerCount: 2
UndoRedoHistory
Layer: 1
Undoes
EndUndoes
Redoes
EndRedoes
EndUndoRedoHistory
Fore
SplineSet
202 759 m 1
 626 759 l 1
 632 819 l 1
 284 819 l 1
 581 1198 l 2
 669 1310 726 1399 738 1513 c 0
 755 1676 675 1759 540 1759 c 0
 382 1759 300 1678 281 1494 c 1
 279 1479 l 1
 335 1479 l 1
 351 1628 406 1701 534 1701 c 0
 641 1701 682 1632 668 1506 c 0
 655 1381 597 1323 525 1228 c 1
 208 817 l 1
 202 759 l 1
EndSplineSet
EndChar

StartChar: u
Encoding: 117 117 437
Width: 770
VWidth: 0
Flags: HW
HStem: -20 50<192.197 374.411>
LayerCount: 2
UndoRedoHistory
Layer: 1
Undoes
EndUndoes
Redoes
EndRedoes
EndUndoRedoHistory
Fore
SplineSet
255 -20 m 0
 366 -20 478 44 564 148 c 1
 548 0 l 1
 612 0 l 1
 736 1184 l 1
 672 1184 l 1
 569 200 l 1
 479 100 369 30 271 30 c 0
 196 30 139 67 157 236 c 2
 256 1184 l 1
 191 1184 l 1
 93 245 l 2
 70 27 164 -20 255 -20 c 0
EndSplineSet
EndChar

StartChar: underscore
Encoding: 95 95 445
Width: 650
VWidth: 0
Flags: HW
HStem: -147 58
LayerCount: 2
UndoRedoHistory
Layer: 1
Undoes
EndUndoes
Redoes
EndRedoes
EndUndoRedoHistory
Fore
SplineSet
-55 -147 m 1
 595 -147 l 1
 601 -89 l 1
 -49 -89 l 1
 -55 -147 l 1
EndSplineSet
EndChar

StartChar: uni00AD
Encoding: 173 173 447
Width: 659
VWidth: 0
Flags: HW
HStem: 510 53
LayerCount: 2
UndoRedoHistory
Layer: 1
Undoes
EndUndoes
Redoes
EndRedoes
EndUndoRedoHistory
Fore
SplineSet
131 510 m 1
 572 510 l 1
 577 563 l 1
 136 563 l 1
 131 510 l 1
EndSplineSet
EndChar

StartChar: uni0237
Encoding: 564 567 488
Width: 391
VWidth: 0
Flags: HW
HStem: -324 58<-63 60.2985>
LayerCount: 2
UndoRedoHistory
Layer: 1
Undoes
EndUndoes
Redoes
EndRedoes
EndUndoRedoHistory
Fore
SplineSet
-103 -324 m 1
 -63 -324 l 2
 80 -324 171 -268 191 -76 c 2
 323 1184 l 1
 259 1184 l 1
 127 -75 l 2
 118 -164 109 -266 -54 -266 c 2
 -97 -266 l 1
 -103 -324 l 1
EndSplineSet
EndChar

StartChar: uni0302
Encoding: 566 -1 490
Width: 637
VWidth: 0
Flags: HW
LayerCount: 2
UndoRedoHistory
Layer: 1
Undoes
EndUndoes
Redoes
EndRedoes
EndUndoRedoHistory
Fore
SplineSet
184 1287 m 1
 229 1287 l 1
 446 1627 l 1
 591 1287 l 1
 632 1287 l 1
 500 1658 l 1
 400 1658 l 1
 184 1287 l 1
EndSplineSet
EndChar

StartChar: uni0304
Encoding: 567 772 491
Width: 817
VWidth: 0
Flags: HW
HStem: 1606 52
LayerCount: 2
UndoRedoHistory
Layer: 1
Undoes
EndUndoes
Redoes
EndRedoes
EndUndoRedoHistory
Fore
SplineSet
371 1606 m 1
 704 1606 l 1
 709 1658 l 1
 376 1658 l 1
 371 1606 l 1
EndSplineSet
EndChar

StartChar: uni0306
Encoding: 568 -1 492
Width: 744
VWidth: 0
Flags: HW
HStem: 1462 48<399 589>
VStem: 291 54<1560 1658> 675 54<1590 1658>
LayerCount: 2
UndoRedoHistory
Layer: 1
Undoes
EndUndoes
Redoes
EndRedoes
EndUndoRedoHistory
Fore
SplineSet
487 1462 m 0
 592 1462 705 1509 729 1658 c 1
 675 1658 l 1
 653 1546 570 1510 491 1510 c 0
 413 1510 338 1546 345 1658 c 1
 291 1658 l 1
 285 1509 382 1462 487 1462 c 0
EndSplineSet
EndChar

StartChar: uni0307
Encoding: 569 775 493
Width: 0
VWidth: 0
Flags: HW
HStem: 1457 201
LayerCount: 2
UndoRedoHistory
Layer: 1
Undoes
EndUndoes
Redoes
EndRedoes
EndUndoRedoHistory
Fore
SplineSet
84 1457 m 1
 166 1457 l 1
 187 1658 l 1
 105 1658 l 1
 84 1457 l 1
EndSplineSet
EndChar

StartChar: uni0308
Encoding: 570 -1 494
Width: 0
VWidth: 0
Flags: HW
HStem: 1533 125
LayerCount: 2
UndoRedoHistory
Layer: 1
Undoes
EndUndoes
Redoes
EndRedoes
EndUndoRedoHistory
Fore
SplineSet
245 1533 m 1
 315 1533 l 1
 328 1658 l 1
 258 1658 l 1
 245 1533 l 1
-72 1533 m 1
 -2 1533 l 1
 11 1658 l 1
 -59 1658 l 1
 -72 1533 l 1
EndSplineSet
EndChar

StartChar: uni030A
Encoding: 571 -1 495
Width: 588
VWidth: 0
Flags: HW
HStem: 1374 43<340 473> 1636 42<357 491>
LayerCount: 2
UndoRedoHistory
Layer: 1
Undoes
EndUndoes
Redoes
EndRedoes
EndUndoRedoHistory
Fore
SplineSet
404 1417 m 0
 356 1417 302 1443 310 1526 c 0
 319 1610 378 1636 426 1636 c 0
 475 1636 529 1610 520 1526 c 0
 512 1443 452 1417 404 1417 c 0
398 1374 m 0
 463 1374 557 1410 569 1526 c 0
 582 1642 495 1678 430 1678 c 0
 364 1678 272 1642 259 1526 c 0
 247 1410 333 1374 398 1374 c 0
EndSplineSet
EndChar

StartChar: uni030C
Encoding: 572 780 496
Width: 0
VWidth: 0
Flags: HW
LayerCount: 2
UndoRedoHistory
Layer: 1
Undoes
EndUndoes
Redoes
EndRedoes
EndUndoRedoHistory
Fore
SplineSet
83 1335 m 1
 112 1335 l 1
 319 1658 l 1
 257 1658 l 1
 107 1405 l 1
 9 1658 l 1
 -54 1658 l 1
 83 1335 l 1
EndSplineSet
EndChar

StartChar: uni030F
Encoding: 573 783 497
Width: 532
VWidth: 0
Flags: HW
HStem: 1378 280
VStem: 201 80<1626 1658> 399 77<1619 1658>
LayerCount: 2
UndoRedoHistory
Layer: 1
Undoes
EndUndoes
Redoes
EndRedoes
EndUndoRedoHistory
Fore
SplineSet
502 1378 m 1
 535 1378 l 1
 476 1658 l 1
 399 1658 l 1
 502 1378 l 1
328 1378 m 1
 364 1378 l 1
 281 1658 l 1
 201 1658 l 1
 328 1378 l 1
EndSplineSet
EndChar

StartChar: uni0311
Encoding: 574 785 498
Width: 744
VWidth: 0
Flags: HW
HStem: 1610 48<411 601>
VStem: 271 54<1462 1530> 655 54<1462 1560>
LayerCount: 2
UndoRedoHistory
Layer: 1
Undoes
EndUndoes
Redoes
EndRedoes
EndUndoRedoHistory
Fore
SplineSet
271 1462 m 1
 325 1462 l 1
 346 1574 430 1610 509 1610 c 0
 587 1610 661 1574 655 1462 c 1
 709 1462 l 1
 715 1611 618 1658 513 1658 c 0
 408 1658 295 1611 271 1462 c 1
EndSplineSet
EndChar

StartChar: uni0326
Encoding: 575 806 499
Width: 500
VWidth: 0
Flags: HW
VStem: 139 100<-214 -184>
LayerCount: 2
UndoRedoHistory
Layer: 1
Undoes
EndUndoes
Redoes
EndRedoes
EndUndoRedoHistory
Fore
SplineSet
116 -423 m 1
 194 -362 226 -303 239 -184 c 2
 249 -89 l 1
 152 -89 l 1
 139 -214 l 1
 195 -214 l 1
 191 -245 176 -343 102 -406 c 1
 116 -423 l 1
EndSplineSet
EndChar

StartChar: uni0490
Encoding: 580 1168 504
Width: 760
VWidth: 0
Flags: HW
LayerCount: 2
UndoRedoHistory
Layer: 1
Undoes
EndUndoes
Redoes
EndRedoes
EndUndoRedoHistory
Fore
SplineSet
121 0 m 1
 185 0 l 1
 354 1606 l 1
 843 1606 l 1
 865 1819 l 1
 818 1819 l 1
 801 1658 l 1
 295 1658 l 1
 121 0 l 1
EndSplineSet
EndChar

StartChar: uni04AE
Encoding: 581 1198 505
Width: 830
VWidth: 0
Flags: HW
LayerCount: 2
UndoRedoHistory
Layer: 1
Undoes
EndUndoes
Redoes
EndRedoes
EndUndoRedoHistory
Fore
SplineSet
355 0 m 1
 420 0 l 1
 495 712 l 1
 966 1658 l 1
 894 1658 l 1
 606 1065 l 1
 468 782 l 1
 383 1068 l 1
 206 1658 l 1
 132 1658 l 1
 430 712 l 1
 355 0 l 1
EndSplineSet
EndChar

StartChar: uni04AF
Encoding: 582 1199 506
Width: 753
VWidth: 0
Flags: HW
LayerCount: 2
UndoRedoHistory
Layer: 1
Undoes
EndUndoes
Redoes
EndRedoes
EndUndoRedoHistory
Fore
SplineSet
272 -294 m 1
 338 -294 l 1
 371 15 l 1
 783 1184 l 1
 721 1184 l 1
 352 137 l 1
 204 1184 l 1
 143 1184 l 1
 305 17 l 1
 272 -294 l 1
EndSplineSet
EndChar

StartChar: uni04B0
Encoding: 583 1200 507
Width: 830
VWidth: 0
Flags: HW
LayerCount: 2
UndoRedoHistory
Layer: 1
Undoes
EndUndoes
Redoes
EndRedoes
EndUndoRedoHistory
Fore
SplineSet
70 670 m 1
 840 670 l 1
 846 721 l 1
 76 721 l 1
 70 670 l 1
EndSplineSet
Refer: 505 1198 N 1 0 0 1 0 0 2
EndChar

StartChar: uni04B1
Encoding: 584 1201 508
Width: 753
VWidth: 0
Flags: HW
LayerCount: 2
UndoRedoHistory
Layer: 1
Undoes
EndUndoes
Redoes
EndRedoes
EndUndoRedoHistory
Fore
SplineSet
80 0 m 1
 597 0 l 1
 602 47 l 1
 85 47 l 1
 80 0 l 1
EndSplineSet
Refer: 506 1199 N 1 0 0 1 0 0 2
EndChar

StartChar: uni04E8
Encoding: 586 1256 510
Width: 1056
VWidth: 0
Flags: HW
HStem: -24 56<332.221 633.828> 1623 55<492.35 800.316>
LayerCount: 2
UndoRedoHistory
Layer: 1
Undoes
EndUndoes
Redoes
EndRedoes
EndUndoRedoHistory
Fore
SplineSet
202 822 m 1
 941 822 l 1
 947 873 l 1
 208 873 l 1
 202 822 l 1
EndSplineSet
Refer: 70 79 N 1 0 0 1 0 0 2
EndChar

StartChar: uni04E9
Encoding: 587 1257 511
Width: 750
VWidth: 0
Flags: HW
HStem: -20 50<232.359 450.434> 1154 50<344.023 562.111>
LayerCount: 2
UndoRedoHistory
Layer: 1
Undoes
EndUndoes
Redoes
EndRedoes
EndUndoRedoHistory
Fore
SplineSet
148 592 m 1
 642 592 l 1
 648 643 l 1
 154 643 l 1
 148 592 l 1
EndSplineSet
Refer: 361 111 N 1 0 0 1 0 0 2
EndChar

StartChar: uni2074
Encoding: 602 8308 526
Width: 750
VWidth: 0
Flags: HW
LayerCount: 2
UndoRedoHistory
Layer: 1
Undoes
EndUndoes
Redoes
EndRedoes
EndUndoRedoHistory
Fore
SplineSet
245 895 m 1
 577 1547 l 1
 508 895 l 1
 245 895 l 1
468 518 m 1
 529 518 l 1
 563 839 l 1
 697 839 l 1
 703 895 l 1
 569 895 l 1
 649 1658 l 1
 580 1658 l 1
 180 891 l 1
 174 839 l 1
 502 839 l 1
 468 518 l 1
EndSplineSet
EndChar

StartChar: uni2215
Encoding: 603 8725 527
Width: 640
VWidth: 0
Flags: HW
LayerCount: 2
UndoRedoHistory
Layer: 1
Undoes
EndUndoes
Redoes
EndRedoes
EndUndoRedoHistory
Fore
SplineSet
-2 0 m 1
 59 0 l 1
 736 1658 l 1
 676 1658 l 1
 -2 0 l 1
EndSplineSet
EndChar

StartChar: uni2219
Encoding: 604 8729 528
Width: 415
VWidth: 0
Flags: HW
HStem: 713 123
LayerCount: 2
UndoRedoHistory
Layer: 1
Undoes
EndUndoes
Redoes
EndRedoes
EndUndoRedoHistory
Fore
SplineSet
238 713 m 1
 306 713 l 1
 319 836 l 1
 251 836 l 1
 238 713 l 1
EndSplineSet
EndChar

StartChar: uniFB01
Encoding: 606 64257 530
Width: 827
VWidth: 0
Flags: HW
HStem: 1564 53<415.609 585.8>
LayerCount: 2
UndoRedoHistory
Layer: 1
Undoes
EndUndoes
Redoes
EndRedoes
EndUndoRedoHistory
Fore
SplineSet
709 1331 m 1
 773 1331 l 1
 791 1503 l 1
 727 1503 l 1
 709 1331 l 1
160 0 m 1
 224 0 l 1
 344 1142 l 1
 689 1142 l 1
 569 0 l 1
 633 0 l 1
 757 1184 l 1
 348 1184 l 1
 368 1372 l 2
 383 1516 402 1564 497 1564 c 0
 524 1564 558 1558 585 1552 c 1
 590 1602 l 1
 568 1611 523 1617 497 1617 c 0
 335 1617 318 1506 305 1384 c 2
 284 1184 l 1
 117 1184 l 1
 113 1142 l 1
 280 1142 l 1
 160 0 l 1
EndSplineSet
EndChar

StartChar: uniFB02
Encoding: 607 64258 531
Width: 851
VWidth: 0
Flags: HW
HStem: 1576 50<462.402 767.277>
LayerCount: 2
UndoRedoHistory
Layer: 1
Undoes
EndUndoes
Redoes
EndRedoes
EndUndoRedoHistory
Fore
SplineSet
344 1142 m 1
 549 1142 l 1
 553 1184 l 1
 348 1184 l 1
 368 1372 l 2
 380 1485 398 1576 606 1576 c 0
 651 1576 704 1571 769 1562 c 1
 605 0 l 1
 669 0 l 1
 837 1602 l 1
 747 1618 673 1626 611 1626 c 0
 353 1626 318 1499 305 1384 c 2
 284 1184 l 1
 117 1184 l 1
 113 1142 l 1
 280 1142 l 1
 160 0 l 1
 224 0 l 1
 344 1142 l 1
EndSplineSet
EndChar

StartChar: uniFB03
Encoding: 608 64259 532
Width: 1351
VWidth: 0
Flags: HW
HStem: 1184 21G<348 757.1> 1552 50<498.271 586.434 969.271 1057.43> 1564 53<415.609 585.8 886.609 1056.8>
LayerCount: 2
UndoRedoHistory
Layer: 1
Undoes
EndUndoes
Redoes
EndRedoes
EndUndoRedoHistory
Fore
SplineSet
160 0 m 1xa0
 224 0 l 1
 344 1142 l 1
 751 1142 l 1
 631 0 l 1
 695 0 l 1
 815 1142 l 1
 1213 1142 l 1
 1093 0 l 1
 1157 0 l 1
 1281 1184 l 1
 819 1184 l 1
 839 1372 l 2
 854 1516 873 1564 968 1564 c 0xa0
 995 1564 1029 1558 1056 1552 c 1
 1061 1602 l 1xc0
 1039 1611 994 1617 968 1617 c 0
 806 1617 789 1506 776 1384 c 2
 755 1184 l 1
 348 1184 l 1
 368 1372 l 2
 383 1516 402 1564 497 1564 c 0xa0
 524 1564 558 1558 585 1552 c 1
 590 1602 l 1xc0
 568 1611 523 1617 497 1617 c 0
 335 1617 318 1506 305 1384 c 2
 284 1184 l 1
 117 1184 l 1
 113 1142 l 1
 280 1142 l 1
 160 0 l 1xa0
1233 1331 m 1
 1297 1331 l 1
 1315 1503 l 1
 1251 1503 l 1
 1233 1331 l 1
EndSplineSet
EndChar

StartChar: v
Encoding: 118 118 537
Width: 708
VWidth: 0
Flags: HW
LayerCount: 2
UndoRedoHistory
Layer: 1
Undoes
EndUndoes
Redoes
EndRedoes
EndUndoRedoHistory
Fore
SplineSet
290 0 m 1
 352 0 l 1
 750 1184 l 1
 688 1184 l 1
 331 100 l 1
 192 1184 l 1
 126 1184 l 1
 290 0 l 1
EndSplineSet
EndChar

StartChar: w
Encoding: 119 119 538
Width: 1142
VWidth: 0
Flags: HW
LayerCount: 2
UndoRedoHistory
Layer: 1
Undoes
EndUndoes
Redoes
EndRedoes
EndUndoRedoHistory
Fore
SplineSet
229 0 m 1
 322 0 l 1
 655 1122 l 1
 761 0 l 1
 845 0 l 1
 1155 1184 l 1
 1093 1184 l 1
 809 54 l 1
 699 1184 l 1
 619 1184 l 1
 279 48 l 1
 217 1184 l 1
 155 1184 l 1
 229 0 l 1
EndSplineSet
EndChar

StartChar: x
Encoding: 120 120 543
Width: 756
VWidth: 0
Flags: HW
LayerCount: 2
UndoRedoHistory
Layer: 1
Undoes
EndUndoes
Redoes
EndRedoes
EndUndoRedoHistory
Fore
SplineSet
10 0 m 1
 77 0 l 1
 400 546 l 1
 606 0 l 1
 666 0 l 1
 441 611 l 1
 786 1184 l 1
 715 1184 l 1
 417 676 l 1
 229 1184 l 1
 158 1184 l 1
 373 615 l 1
 10 0 l 1
EndSplineSet
EndChar

StartChar: y
Encoding: 121 121 544
Width: 753
VWidth: 0
Flags: HW
HStem: -294 56<4 200.203>
LayerCount: 2
UndoRedoHistory
Layer: 1
Undoes
EndUndoes
Redoes
EndRedoes
EndUndoRedoHistory
Fore
SplineSet
-2 -294 m 1
 51 -294 l 2
 234 -294 314 -235 357 -110 c 1
 783 1184 l 1
 721 1184 l 1
 346 23 l 1
 204 1184 l 1
 143 1184 l 1
 281 97 l 2
 288 41 300 -33 296 -67 c 0
 285 -168 253 -238 4 -238 c 1
 -2 -294 l 1
EndSplineSet
EndChar

StartChar: yen
Encoding: 165 165 548
Width: 830
VWidth: 0
Flags: HW
LayerCount: 2
UndoRedoHistory
Layer: 1
Undoes
EndUndoes
Redoes
EndRedoes
EndUndoRedoHistory
Fore
SplineSet
350 0 m 1
 417 0 l 1
 439 212 l 1
 665 212 l 1
 670 258 l 1
 444 258 l 1
 470 507 l 1
 696 507 l 1
 701 551 l 1
 489 551 l 1
 966 1658 l 1
 894 1658 l 1
 447 583 l 1
 206 1658 l 1
 132 1658 l 1
 393 551 l 1
 177 551 l 1
 172 507 l 1
 403 507 l 1
 377 258 l 1
 146 258 l 1
 141 212 l 1
 372 212 l 1
 350 0 l 1
EndSplineSet
EndChar

StartChar: z
Encoding: 122 122 550
Width: 648
VWidth: 0
Flags: HW
LayerCount: 2
UndoRedoHistory
Layer: 1
Undoes
EndUndoes
Redoes
EndRedoes
EndUndoRedoHistory
Fore
SplineSet
27 0 m 1
 534 0 l 1
 539 50 l 1
 97 50 l 1
 661 1133 l 1
 666 1184 l 1
 198 1184 l 1
 193 1133 l 1
 599 1133 l 1
 32 51 l 1
 27 0 l 1
EndSplineSet
EndChar

StartChar: zero
Encoding: 48 48 554
Width: 1010
VWidth: 0
Flags: HW
HStem: -24 45<346 593> 1633 45<514 760>
LayerCount: 2
UndoRedoHistory
Layer: 1
Undoes
EndUndoes
Redoes
EndRedoes
EndUndoRedoHistory
Fore
SplineSet
462 -24 m 0
 776 -24 861 180 891 464 c 2
 967 1194 l 2
 997 1477 938 1678 641 1678 c 0
 344 1678 243 1477 213 1194 c 2
 137 464 l 2
 107 181 150 -24 462 -24 c 0
467 21 m 0
 233 21 175 185 202 439 c 2
 284 1218 l 2
 310 1469 407 1633 637 1633 c 0
 868 1633 927 1469 901 1218 c 2
 819 439 l 2
 793 186 701 21 467 21 c 0
EndSplineSet
EndChar
